<?xml version="1.0" encoding="utf-8"?>
<!-- Generator: Adobe Illustrator 16.0.0, SVG Export Plug-In . SVG Version: 6.00 Build 0)  -->
<!DOCTYPE svg PUBLIC "-//W3C//DTD SVG 1.1//EN" "http://www.w3.org/Graphics/SVG/1.1/DTD/svg11.dtd">
<svg version="1.1" id="圖層_1" xmlns="http://www.w3.org/2000/svg" xmlns:xlink="http://www.w3.org/1999/xlink" x="0px" y="0px"
	 width="188.25px" height="250px" viewBox="0 0 188.25 250" enable-background="new 0 0 188.25 250" xml:space="preserve">
<g>
	<path display="none" fill="#F9FAF9" stroke="#000000" d="M183.416,235.551c0,7.828-6.346,14.174-14.172,14.174H19.007
		c-7.828,0-14.174-6.346-14.174-14.174V14.449c0-7.827,6.346-14.173,14.174-14.173h150.237c7.826,0,14.172,6.346,14.172,14.173
		V235.551z"/>
	<path fill-rule="evenodd" clip-rule="evenodd" stroke="#000000" stroke-width="0.065" stroke-linejoin="round" d="M17.581,42.795
		c-0.041,0.027-0.07,0.042-0.117,0.072c-3.038,1.94-6.583,5.725-6.946,10.441c-0.173,2.244,1.262,3.798,3.117,3.832
		c1.185,0.021,2.137-0.399,2.653-1.203c0.429-0.668,0.538-1.699,0.607-1.223c0.25,1.816-0.511,3.563-0.922,5.088
		c0.459-0.167,1.035-0.251,1.613-0.253h0.01c0.576,0.002,1.152,0.086,1.61,0.253c-0.411-1.525-1.17-3.271-0.921-5.088
		c0.069-0.477,0.179,0.555,0.606,1.223c0.516,0.804,1.469,1.225,2.652,1.203c1.855-0.034,3.291-1.588,3.118-3.832
		c-0.364-4.717-3.908-8.501-6.943-10.441c-0.033-0.024-0.063-0.039-0.11-0.072H17.581z"/>
	<path fill-rule="evenodd" clip-rule="evenodd" stroke="#000000" stroke-width="0.065" stroke-linejoin="round" d="M170.65,207.205
		c-0.041-0.027-0.07-0.041-0.117-0.072c-3.037-1.939-6.582-5.725-6.945-10.441c-0.174-2.244,1.262-3.797,3.117-3.832
		c1.184-0.021,2.137,0.4,2.652,1.203c0.43,0.668,0.539,1.699,0.607,1.223c0.25-1.816-0.51-3.563-0.922-5.088
		c0.459,0.168,1.035,0.252,1.613,0.254h0.01c0.578-0.002,1.152-0.086,1.611-0.254c-0.412,1.525-1.17,3.271-0.922,5.088
		c0.07,0.477,0.18-0.555,0.607-1.223c0.516-0.803,1.469-1.225,2.652-1.203c1.855,0.035,3.291,1.588,3.117,3.832
		c-0.363,4.717-3.908,8.502-6.943,10.441c-0.033,0.025-0.063,0.041-0.109,0.072H170.65z"/>
	<g>
		<polygon fill="none" points="168.549,219.594 172.873,219.6 170.715,231.152 		"/>
		<path d="M177.748,213.758l-0.004-2.301l-5.451,0.002l0.004,2.301h1.668l-0.625,3.34l-5.26-0.008l-0.625-3.334h1.572l-0.004-2.301
			h-5.449l0.002,2.301h1.705l4.057,21.781l0.545-0.004l-0.002,0.016l2.188-0.025l4.068-21.766L177.748,213.758z M172.873,219.6
			l-2.158,11.553l-2.166-11.559L172.873,219.6z"/>
	</g>
	<g>
		<polygon fill="none" points="15.476,30.407 19.802,30.401 17.643,18.847 		"/>
		<path d="M23.065,36.242l-4.067-21.767l-2.188-0.026l0.003,0.016l-0.545-0.004L12.21,36.242l-1.705,0.001l-0.002,2.301h5.449
			l0.003-2.302h-1.572l0.625-3.334l5.261-0.008l0.624,3.341l-1.667-0.001l-0.004,2.302l5.45,0.002l0.004-2.302H23.065z
			 M15.476,30.407l2.167-11.56l2.159,11.554L15.476,30.407z"/>
	</g>
	<path fill-rule="evenodd" clip-rule="evenodd" fill="none" stroke="#000000" stroke-width="1.5" stroke-linejoin="round" d="
		M94.011,69.928c-0.189,0.146-0.323,0.223-0.544,0.391c-14.08,10.457-30.506,30.86-32.19,56.296
		c-0.801,12.1,5.85,20.477,14.448,20.658c5.489,0.117,9.902-2.15,12.294-6.484c1.987-3.605,2.495-9.162,2.817-6.594
		c1.158,9.795-2.368,19.209-4.275,27.432c2.127-0.898,4.8-1.352,7.478-1.361h0.044c2.675,0.01,5.343,0.463,7.466,1.361
		c-1.904-8.223-5.426-17.637-4.268-27.432c0.322-2.568,0.828,2.988,2.813,6.594c2.389,4.334,6.803,6.602,12.291,6.484
		c8.6-0.182,15.25-8.559,14.449-20.658c-1.686-25.436-18.111-45.839-32.182-56.296c-0.152-0.134-0.278-0.25-0.508-0.391H94.011z"/>
	<path d="M70.787,132.582c-0.014-0.205-0.021-0.404-0.02-0.602l0,0c0-4.756,3.691-8.753,8.499-9.068l0,0
		c0.251-0.018,0.499-0.024,0.744-0.024l0,0c5.877,0,10.818,4.565,11.207,10.512l0,0h0.001c0.018,0.277-0.192,0.514-0.467,0.531l0,0
		c-0.276,0.018-0.514-0.191-0.531-0.467l0,0c-0.353-5.418-4.859-9.578-10.21-9.578l0,0c-0.226,0-0.45,0.008-0.677,0.023l0,0
		c-4.281,0.277-7.566,3.839-7.566,8.07l0,0c0,0.176,0.005,0.354,0.018,0.535l0,0c0.219,3.371,3.023,5.959,6.354,5.959l0,0
		c0.139,0,0.28-0.004,0.422-0.014l0,0c2.646-0.17,4.675-2.373,4.675-4.984l0,0c0-0.109-0.004-0.221-0.011-0.33l0,0
		c-0.134-2.063-1.852-3.648-3.888-3.648l0,0c-0.088,0-0.171,0.002-0.258,0.01l0,0c-1.598,0.105-2.824,1.434-2.824,3.01l0,0
		c0,0.068,0.002,0.131,0.007,0.201l0,0c0.079,1.225,1.1,2.164,2.31,2.164l0,0c0.049,0,0.104-0.002,0.152-0.002l0,0
		c0.927-0.061,1.639-0.834,1.639-1.748l0,0c0-0.039-0.002-0.08-0.004-0.117l0,0c-0.044-0.689-0.619-1.219-1.299-1.219l0,0
		c-0.035,0-0.058,0.002-0.084,0.004l0,0c-0.5,0.033-0.882,0.447-0.882,0.938l0,0c0,0.025,0.001,0.041,0.002,0.053l0,0
		c0.024,0.275-0.179,0.518-0.454,0.543l0,0c-0.275,0.023-0.519-0.18-0.542-0.453l0,0c-0.005-0.057-0.006-0.104-0.006-0.143l0,0
		c0-1.016,0.789-1.867,1.799-1.934l0,0c0.068-0.008,0.124-0.008,0.167-0.008l0,0c1.206,0,2.217,0.936,2.297,2.16l0,0
		c0.003,0.055,0.005,0.113,0.005,0.176l0,0c0,1.439-1.116,2.648-2.586,2.746l0,0c-0.062,0.002-0.13,0.004-0.204,0.006l0,0
		c-1.734-0.002-3.193-1.346-3.307-3.098l0,0c-0.006-0.094-0.009-0.184-0.009-0.27l0,0c0-2.102,1.632-3.867,3.748-4.006l0,0
		c0.117-0.01,0.229-0.012,0.333-0.014l0,0c2.563,0.002,4.715,1.99,4.886,4.586l0,0c0.008,0.129,0.013,0.26,0.013,0.393l0,0
		c0,3.137-2.436,5.775-5.612,5.984l0,0c-0.161,0.008-0.321,0.014-0.484,0.014l0,0C74.284,139.475,71.042,136.48,70.787,132.582
		L70.787,132.582z"/>
	<path d="M109.535,139.459c-3.17-0.209-5.6-2.846-5.6-5.98l0,0c0-0.131,0.002-0.266,0.014-0.396l0,0
		c0.168-2.592,2.318-4.582,4.875-4.582l0,0c0.105,0,0.215,0.002,0.322,0.01l0,0c2.125,0.141,3.754,1.906,3.754,4.008l0,0
		c0,0.09-0.004,0.176-0.01,0.266l0,0c-0.113,1.754-1.568,3.1-3.301,3.1l0,0c-0.076,0-0.145-0.002-0.217-0.006l0,0
		c-1.455-0.096-2.57-1.305-2.57-2.744l0,0c0-0.057,0-0.123,0.006-0.182l0,0c0.08-1.217,1.088-2.154,2.293-2.154l0,0
		c0.043,0,0.098,0,0.15,0.006l0,0c1.027,0.068,1.813,0.92,1.813,1.938l0,0c0,0.047,0,0.084-0.002,0.111l0,0
		c-0.008,0.275-0.24,0.492-0.516,0.484l0,0c-0.275-0.01-0.492-0.24-0.484-0.516l0,0c0.002-0.039,0.002-0.064,0.002-0.08l0,0
		c0-0.492-0.381-0.906-0.893-0.939l0,0c-0.014-0.002-0.035-0.004-0.07-0.004l0,0c-0.678,0-1.252,0.529-1.297,1.236l0,0
		c-0.002,0.021-0.004,0.057-0.004,0.1l0,0c0,0.914,0.713,1.688,1.625,1.746l0,0c0.061,0.002,0.115,0.006,0.164,0.004l0,0
		c1.207,0.002,2.225-0.939,2.305-2.16l0,0c0.004-0.074,0.006-0.141,0.006-0.205l0,0c0-1.576-1.225-2.906-2.828-3.01l0,0
		c-0.078-0.008-0.16-0.01-0.248-0.01l0,0c-2.029,0-3.744,1.586-3.879,3.654l0,0c-0.008,0.105-0.012,0.215-0.012,0.326l0,0
		c0,2.611,2.027,4.811,4.664,4.982l0,0c0.143,0.008,0.285,0.014,0.424,0.014l0,0c3.322,0,6.123-2.588,6.342-5.959l0,0
		c0.012-0.182,0.018-0.361,0.018-0.537l0,0c0-4.229-3.279-7.791-7.555-8.069l0,0c-0.225-0.015-0.449-0.022-0.676-0.021l0,0
		c-5.34-0.001-9.848,4.159-10.199,9.577l0,0v0.002c-0.018,0.275-0.256,0.484-0.531,0.467l0,0c-0.275-0.02-0.484-0.258-0.467-0.533
		l0,0c0.389-5.947,5.33-10.512,11.197-10.512l0,0c0.244,0,0.492,0.007,0.742,0.024l0,0c4.805,0.314,8.488,4.312,8.488,9.066l0,0
		c0,0.199-0.006,0.398-0.02,0.602l0,0c-0.254,3.9-3.49,6.895-7.34,6.895l0,0C109.859,139.475,109.697,139.469,109.535,139.459
		L109.535,139.459z"/>
	<path d="M94.086,137.777c-0.133,0-0.259-0.053-0.354-0.146l0,0c-0.095-0.094-0.146-0.221-0.146-0.354l0,0
		c0.001-0.078,0.005-0.156,0.01-0.232l0,0c-0.104-1.848-1.637-3.795-2.44-4.637l0,0c-0.276-0.295-0.448-0.453-0.449-0.453l0,0
		c-0.145-0.133-0.199-0.336-0.14-0.523l0,0c0.001-0.006,0.946-2.957,1.654-6.143l0,0c0.486-2.17,0.863-4.512,1.407-6.471l0,0
		c-0.218-0.76-0.45-1.451-0.705-2.043l0,0c-0.012-0.028-0.021-0.058-0.027-0.087l0,0c-1.01-2.532-3.411-4.147-5.972-4.146l0,0
		c-0.68,0-1.372,0.113-2.057,0.354l0,0c-2.036,0.714-3.308,2.627-3.309,4.668l0,0c0.001,0.546,0.091,1.1,0.283,1.644l0,0
		c0.557,1.586,2.049,2.58,3.64,2.58l0,0c0.426,0,0.857-0.07,1.281-0.22l0,0c1.229-0.433,1.997-1.589,1.998-2.818l0,0
		c-0.001-0.33-0.055-0.664-0.171-0.992l0,0c-0.331-0.943-1.217-1.531-2.16-1.531l0,0c-0.252,0-0.507,0.041-0.761,0.131l0,0
		c-0.713,0.249-1.157,0.919-1.158,1.634l0,0c0,0.19,0.032,0.383,0.1,0.575l0,0c0.185,0.527,0.683,0.858,1.212,0.858l0,0
		c0.143,0,0.286-0.023,0.427-0.072l0,0c0.382-0.135,0.621-0.495,0.621-0.877l0,0c0-0.102-0.017-0.205-0.053-0.308l0,0
		c-0.094-0.266-0.342-0.429-0.606-0.43l0,0c-0.07,0-0.141,0.011-0.214,0.037l0,0c-0.171,0.059-0.276,0.219-0.277,0.391l0,0
		c0.001,0.044,0.009,0.09,0.025,0.137l0,0v0.002c0.091,0.26-0.046,0.545-0.307,0.637l0,0c-0.261,0.091-0.546-0.046-0.637-0.307l0,0
		c-0.055-0.153-0.082-0.312-0.081-0.469l0,0c-0.001-0.585,0.364-1.131,0.944-1.334l0,0c0.179-0.063,0.364-0.094,0.546-0.094l0,0
		c0.678,0,1.312,0.422,1.55,1.098l0,0c0.074,0.211,0.109,0.428,0.109,0.64l0,0c0,0.797-0.496,1.538-1.289,1.82l0,0
		c-0.251,0.088-0.508,0.129-0.759,0.129l0,0c-0.943,0-1.824-0.589-2.155-1.526l0,0c-0.105-0.299-0.156-0.605-0.156-0.907l0,0
		c-0.001-1.128,0.704-2.183,1.827-2.576l0,0c0.359-0.128,0.729-0.188,1.092-0.188l0,0c1.356,0,2.626,0.846,3.104,2.198l0,0
		c0.154,0.438,0.228,0.885,0.228,1.325l0,0c0,1.645-1.027,3.183-2.666,3.761l0,0c-0.533,0.188-1.077,0.277-1.613,0.277l0,0
		c-2.005,0-3.88-1.251-4.584-3.248l0,0c-0.229-0.652-0.339-1.319-0.338-1.976l0,0c-0.001-2.455,1.53-4.751,3.976-5.611l0,0
		c0.791-0.278,1.597-0.412,2.389-0.412l0,0c3.015,0.002,5.801,1.911,6.937,4.869l0,0c0.006,0.018,0.012,0.034,0.017,0.052l0,0
		c0.098,0.234,0.192,0.479,0.283,0.735l0,0c0.118-0.298,0.243-0.579,0.379-0.84l0,0c1.457-2.787,4.05-4.794,7.031-4.8l0,0
		c0.74,0,1.502,0.126,2.266,0.396l0,0c2.445,0.861,3.975,3.157,3.975,5.611l0,0c0,0.655-0.109,1.321-0.338,1.976l0,0
		c-0.705,1.998-2.578,3.248-4.584,3.247l0,0c-0.535,0.001-1.08-0.089-1.613-0.276l0,0c-1.639-0.577-2.666-2.115-2.664-3.761l0,0
		c-0.002-0.44,0.072-0.889,0.227-1.324l0,0c0.477-1.353,1.746-2.199,3.104-2.199l0,0c0.361,0,0.73,0.06,1.092,0.188l0,0
		c1.123,0.396,1.826,1.448,1.824,2.576l0,0c0,0.301-0.051,0.606-0.154,0.907l0,0c-0.33,0.939-1.213,1.528-2.156,1.526l0,0
		c-0.254,0.002-0.51-0.042-0.758-0.129l0,0c-0.793-0.279-1.289-1.023-1.289-1.82l0,0c0-0.211,0.033-0.43,0.109-0.64l0,0
		c0.238-0.676,0.873-1.098,1.551-1.098l0,0c0.178,0,0.365,0.028,0.545,0.094l0,0c0.58,0.206,0.945,0.749,0.943,1.334l0,0
		c0.002,0.158-0.027,0.314-0.076,0.464l0,0c-0.088,0.261-0.373,0.401-0.635,0.313l0,0c-0.262-0.088-0.402-0.371-0.313-0.633l0,0
		c0.018-0.055,0.023-0.104,0.025-0.145l0,0c-0.002-0.171-0.107-0.332-0.281-0.392l0,0c-0.068-0.025-0.137-0.036-0.209-0.036l0,0
		c-0.266,0-0.514,0.165-0.607,0.434l0,0c-0.035,0.098-0.053,0.199-0.053,0.304l0,0c0,0.383,0.238,0.743,0.619,0.876l0,0
		c0.143,0.05,0.287,0.073,0.428,0.073l0,0c0.529,0,1.027-0.329,1.213-0.856l0,0c0.066-0.194,0.098-0.388,0.098-0.577l0,0
		c0-0.714-0.443-1.385-1.156-1.634l0,0c-0.254-0.09-0.508-0.131-0.76-0.131l0,0c-0.943,0-1.83,0.589-2.16,1.533l0,0
		c-0.117,0.326-0.17,0.66-0.17,0.99l0,0c0,1.229,0.768,2.386,1.996,2.818l0,0c0.426,0.148,0.857,0.219,1.281,0.219l0,0
		c1.592,0,3.082-0.992,3.641-2.578l0,0c0.189-0.547,0.281-1.1,0.281-1.645l0,0c0-2.04-1.273-3.953-3.309-4.669l0,0
		c-0.658-0.232-1.303-0.338-1.932-0.338l0,0c-2.502-0.006-4.811,1.718-6.146,4.264l0,0c-0.285,0.541-0.533,1.223-0.756,1.996l0,0
		c0.545,1.964,0.986,4.256,1.477,6.459l0,0c0.672,3.02,1.555,5.831,1.646,6.12l0,0c0.08,0.197,0.027,0.426-0.137,0.568l0,0
		c0,0-0.186,0.158-0.477,0.453l0,0c-0.293,0.295-0.684,0.719-1.074,1.227l0,0c-0.734,0.957-1.436,2.211-1.51,3.406l0,0
		c0.004,0.074,0.007,0.15,0.008,0.227l0,0c0,0.133-0.052,0.26-0.146,0.354l0,0c-0.094,0.094-0.22,0.146-0.354,0.146l0,0H94.086
		L94.086,137.777z M94.108,135.029c0.748-1.721,2.095-3.072,2.648-3.592l0,0c-0.256-0.826-1-3.299-1.588-5.944l0,0
		c-0.344-1.556-0.667-3.148-1.011-4.618l0,0c-0.324,1.474-0.62,3.09-0.96,4.63l0,0c-0.587,2.641-1.329,5.111-1.586,5.939l0,0
		C92.131,131.965,93.401,133.316,94.108,135.029L94.108,135.029z"/>
	<path d="M103.711,98.398c-1.795,0-3.6-0.646-5.025-1.956l0,0c-1.303-1.191-1.965-2.827-1.963-4.463l0,0
		c-0.002-1.459,0.525-2.929,1.592-4.088l0,0c0.973-1.063,2.309-1.604,3.643-1.604l0,0c1.191-0.001,2.391,0.431,3.34,1.3l0,0
		c0.871,0.799,1.314,1.894,1.314,2.989l0,0c0,0.977-0.354,1.961-1.066,2.738l0,0c-0.658,0.718-1.563,1.085-2.465,1.084l0,0
		c-0.807,0-1.619-0.291-2.258-0.879l0,0c-0.596-0.546-0.9-1.296-0.9-2.046l0,0c0-0.668,0.242-1.344,0.73-1.873l0,0
		c0.455-0.499,1.084-0.754,1.709-0.754l0,0c0.559,0,1.123,0.203,1.566,0.61l0,0c0.422,0.385,0.637,0.916,0.635,1.442l0,0
		c0,0.472-0.17,0.946-0.514,1.322l0,0c-0.326,0.355-0.779,0.538-1.227,0.538l0,0c-0.4,0-0.807-0.146-1.125-0.438l0,0
		c-0.203-0.187-0.217-0.503-0.029-0.706l0,0c0.186-0.204,0.502-0.218,0.705-0.031l0,0c0.129,0.118,0.287,0.174,0.449,0.175l0,0
		c0.182-0.001,0.357-0.071,0.488-0.215l0,0c0.17-0.186,0.252-0.414,0.252-0.646l0,0c0-0.261-0.102-0.516-0.309-0.704l0,0
		c-0.258-0.234-0.572-0.347-0.893-0.348l0,0c-0.359,0.001-0.711,0.143-0.973,0.429l0,0c-0.314,0.341-0.465,0.766-0.467,1.197l0,0
		c0.002,0.482,0.193,0.957,0.576,1.309l0,0c0.449,0.413,1.014,0.615,1.582,0.615l0,0c0.637,0,1.266-0.255,1.729-0.758l0,0
		c0.539-0.59,0.801-1.326,0.803-2.063l0,0c-0.002-0.829-0.332-1.648-0.99-2.251l0,0c-0.76-0.697-1.711-1.038-2.664-1.038l0,0
		c-1.066,0-2.127,0.43-2.906,1.279l0,0c-0.891,0.97-1.328,2.191-1.328,3.412l0,0c0,1.369,0.551,2.729,1.639,3.727l0,0
		c1.236,1.134,2.793,1.692,4.35,1.692l0,0c1.744,0,3.479-0.702,4.752-2.087l0,0c1.438-1.572,2.146-3.549,2.148-5.524l0,0
		c-0.002-2.213-0.891-4.414-2.65-6.028l0,0v0.001c-0.203-0.188-0.217-0.504-0.031-0.707l0,0c0.188-0.204,0.504-0.218,0.707-0.031
		l0,0c1.973,1.809,2.975,4.285,2.975,6.766l0,0c0,2.214-0.799,4.438-2.412,6.2l0,0c-1.467,1.598-3.475,2.411-5.484,2.411l0,0
		C103.715,98.398,103.713,98.398,103.711,98.398L103.711,98.398z"/>
	<path d="M78.85,95.987c-1.614-1.762-2.413-3.986-2.412-6.199l0,0c-0.001-2.48,1.002-4.958,2.974-6.767l0,0h0.001
		c0.204-0.186,0.52-0.173,0.706,0.031l0,0c0.187,0.203,0.174,0.52-0.029,0.706l0,0c-1.761,1.613-2.651,3.814-2.652,6.029l0,0
		c0.001,1.975,0.71,3.951,2.15,5.522l0,0c1.271,1.387,3.007,2.088,4.753,2.088l0,0c1.558,0,3.117-0.559,4.357-1.692l0,0
		c1.09-0.998,1.641-2.357,1.641-3.727l0,0c0-1.221-0.438-2.441-1.33-3.413l0,0c-0.78-0.849-1.842-1.277-2.913-1.278l0,0
		c-0.955,0.001-1.908,0.342-2.667,1.037l0,0c-0.658,0.604-0.99,1.424-0.99,2.252l0,0c0,0.738,0.264,1.474,0.803,2.063l0,0
		c0.464,0.505,1.093,0.759,1.729,0.76l0,0c0.568,0,1.135-0.202,1.587-0.616l0,0c0.384-0.351,0.575-0.827,0.576-1.309l0,0
		c-0.001-0.43-0.153-0.856-0.467-1.198l0,0c-0.262-0.285-0.616-0.428-0.976-0.428l0,0c-0.322,0-0.64,0.113-0.894,0.347l0,0
		c-0.208,0.19-0.311,0.445-0.312,0.705l0,0c0.001,0.232,0.082,0.459,0.252,0.645l0,0c0.132,0.145,0.309,0.215,0.491,0.216l0,0
		c0.163-0.001,0.322-0.058,0.452-0.176l0,0c0.204-0.186,0.521-0.171,0.707,0.033l0,0c0.186,0.204,0.17,0.521-0.033,0.707l0,0
		c-0.319,0.29-0.725,0.437-1.126,0.436l0,0c-0.447,0.001-0.9-0.183-1.228-0.539l0,0c-0.345-0.374-0.516-0.851-0.516-1.321l0,0
		c0-0.528,0.215-1.058,0.636-1.442l0,0c0.444-0.407,1.011-0.61,1.569-0.61l0,0c0.626,0,1.255,0.254,1.712,0.752l0,0
		c0.487,0.531,0.731,1.206,0.73,1.875l0,0c0.001,0.75-0.305,1.5-0.901,2.047l0,0c-0.642,0.586-1.455,0.878-2.262,0.878l0,0
		c-0.902,0-1.809-0.365-2.467-1.083l0,0c-0.713-0.778-1.067-1.763-1.066-2.739l0,0c-0.001-1.096,0.444-2.191,1.315-2.989l0,0
		c0.948-0.87,2.15-1.3,3.343-1.3l0,0c1.337,0,2.675,0.54,3.649,1.603l0,0c1.066,1.16,1.595,2.629,1.594,4.089l0,0
		c0.001,1.637-0.662,3.271-1.966,4.464l0,0c-1.43,1.308-3.236,1.956-5.032,1.956l0,0C82.328,98.399,80.317,97.586,78.85,95.987
		L78.85,95.987z"/>
	<path d="M76.135,112.969c-2.37-0.782-3.872-2.984-3.872-5.352l0,0c0-0.586,0.091-1.183,0.285-1.767l0,0
		c0.641-1.939,2.441-3.168,4.376-3.168l0,0c0.479,0,0.968,0.075,1.446,0.234l0,0c1.593,0.526,2.603,2.005,2.602,3.596l0,0
		c0,0.395-0.062,0.794-0.191,1.188l0,0c-0.436,1.315-1.657,2.148-2.973,2.148l0,0c-0.326,0-0.656-0.051-0.981-0.157l0,0
		c-1.095-0.362-1.789-1.379-1.789-2.474l0,0c0-0.27,0.043-0.547,0.133-0.816l0,0c0.304-0.917,1.155-1.499,2.072-1.499l0,0
		c0.228,0,0.459,0.035,0.686,0.111l0,0c0.775,0.256,1.269,0.978,1.269,1.754l0,0c0,0.19-0.031,0.386-0.093,0.577l0,0
		c-0.086,0.262-0.369,0.405-0.631,0.319l0,0c-0.263-0.087-0.406-0.369-0.32-0.631l0,0c0.03-0.09,0.043-0.18,0.043-0.266l0,0
		c0-0.355-0.226-0.688-0.583-0.806l0,0c-0.123-0.041-0.246-0.06-0.37-0.06l0,0c-0.495,0-0.96,0.315-1.123,0.814l0,0
		c-0.056,0.166-0.081,0.334-0.081,0.501l0,0c0,0.673,0.427,1.302,1.102,1.523l0,0c0.222,0.074,0.447,0.107,0.668,0.107l0,0
		c0.895,0,1.729-0.566,2.022-1.461l0,0c0.096-0.293,0.142-0.587,0.142-0.876l0,0c0-1.17-0.742-2.261-1.915-2.646l0,0
		c-0.378-0.124-0.758-0.183-1.133-0.183l0,0c-1.514,0-2.926,0.961-3.426,2.48l0,0c-0.16,0.482-0.235,0.971-0.235,1.453l0,0
		c0,1.945,1.235,3.76,3.185,4.402l0,0c0.616,0.203,1.242,0.3,1.857,0.3l0,0c2.485,0,4.801-1.578,5.622-4.066l0,0
		c0.258-0.785,0.382-1.579,0.382-2.36l0,0c-0.001-3.159-2.006-6.103-5.17-7.147l0,0c-0.994-0.327-2-0.482-2.99-0.482l0,0
		c-4.001,0-7.729,2.54-9.052,6.548l0,0h0.001c-0.087,0.264-0.369,0.405-0.632,0.318l0,0c-0.263-0.086-0.405-0.368-0.318-0.631l0,0
		c1.463-4.429,5.578-7.235,10.001-7.235l0,0c1.094,0,2.207,0.171,3.303,0.534l0,0c3.585,1.184,5.857,4.516,5.857,8.096l0,0
		c0,0.886-0.14,1.787-0.433,2.674l0,0c-0.961,2.908-3.665,4.753-6.571,4.753l0,0C77.585,113.32,76.854,113.207,76.135,112.969
		L76.135,112.969z"/>
	<path d="M103.344,108.567c-0.295-0.888-0.434-1.79-0.434-2.677l0,0c0-3.578,2.27-6.909,5.85-8.093l0,0
		c1.092-0.362,2.203-0.534,3.297-0.534l0,0c4.416,0,8.525,2.808,9.984,7.235l0,0c0.086,0.263-0.055,0.545-0.318,0.632l0,0
		c-0.262,0.086-0.545-0.057-0.631-0.319l0,0c-1.32-4.009-5.041-6.548-9.035-6.549l0,0c-0.988,0.001-1.994,0.155-2.982,0.484l0,0
		c-3.16,1.043-5.164,3.986-5.164,7.144l0,0c0,0.782,0.123,1.577,0.383,2.363l0,0c0.82,2.489,3.133,4.065,5.611,4.066l0,0
		c0.613-0.001,1.236-0.097,1.854-0.3l0,0c1.945-0.643,3.18-2.456,3.18-4.401l0,0c0-0.482-0.076-0.972-0.236-1.455l0,0
		c-0.498-1.519-1.908-2.479-3.418-2.479l0,0c-0.375,0-0.754,0.058-1.131,0.183l0,0c-1.17,0.386-1.91,1.478-1.912,2.647l0,0
		c0.002,0.29,0.045,0.583,0.143,0.874l0,0c0.295,0.896,1.127,1.463,2.018,1.463l0,0c0.221,0,0.445-0.034,0.666-0.108l0,0
		c0.672-0.221,1.1-0.85,1.1-1.522l0,0c0-0.166-0.025-0.337-0.08-0.503l0,0c-0.164-0.498-0.627-0.813-1.121-0.813l0,0
		c-0.123,0-0.248,0.019-0.371,0.06l0,0c-0.354,0.117-0.58,0.449-0.58,0.805l0,0c0,0.09,0.014,0.176,0.043,0.262l0,0
		c0.088,0.262-0.053,0.545-0.314,0.634l0,0c-0.262,0.089-0.545-0.052-0.633-0.313l0,0c-0.066-0.195-0.096-0.395-0.096-0.583l0,0
		c0-0.776,0.492-1.497,1.264-1.752l0,0c0.229-0.077,0.461-0.112,0.688-0.112l0,0c0.916-0.001,1.768,0.583,2.07,1.502l0,0
		c0.088,0.268,0.131,0.543,0.131,0.814l0,0c0,1.094-0.691,2.109-1.785,2.473l0,0c-0.324,0.106-0.654,0.157-0.98,0.157l0,0
		c-1.314,0.001-2.533-0.834-2.967-2.148l0,0c-0.131-0.394-0.193-0.795-0.193-1.188l0,0c0-1.592,1.008-3.07,2.598-3.596l0,0
		c0.479-0.159,0.965-0.235,1.445-0.235l0,0c1.932,0,3.729,1.229,4.369,3.168l0,0c0.191,0.584,0.285,1.181,0.283,1.768l0,0
		c0.002,2.366-1.498,4.568-3.865,5.352l0,0c-0.719,0.235-1.447,0.35-2.166,0.35l0,0C107.002,113.32,104.303,111.475,103.344,108.567
		L103.344,108.567z"/>
	<g>
		<path d="M100.443,171.584c-0.52,0-1.049-0.088-1.564-0.271l0,0c-1.555-0.559-2.521-2.021-2.521-3.584l0,0
			c0-0.428,0.07-0.863,0.225-1.285l0,0c0.461-1.285,1.668-2.086,2.959-2.086l0,0c0.354,0,0.713,0.059,1.064,0.186l0,0
			c1.068,0.385,1.732,1.391,1.732,2.463l0,0c0,0.293-0.051,0.592-0.154,0.885l0,0c-0.322,0.895-1.164,1.453-2.064,1.453l0,0
			c-0.248,0-0.498-0.043-0.74-0.129l0,0c-0.758-0.273-1.23-0.984-1.23-1.746l0,0c0-0.207,0.035-0.424,0.111-0.627l0,0
			c0.232-0.646,0.84-1.049,1.49-1.049l0,0c0.176,0,0.357,0.029,0.535,0.094l0,0c0.559,0.201,0.906,0.725,0.904,1.285l0,0
			c0,0.154-0.025,0.309-0.08,0.463l0,0c-0.086,0.24-0.242,0.436-0.436,0.572l0,0c0.256-0.135,0.465-0.359,0.568-0.65l0,0
			c0.064-0.186,0.096-0.371,0.096-0.551l0,0c0-0.662-0.41-1.285-1.07-1.521l0,0c-0.242-0.086-0.484-0.127-0.727-0.127l0,0
			c-0.879,0-1.705,0.545-2.02,1.424l0,0c-0.113,0.313-0.166,0.631-0.166,0.947l0,0c0,1.15,0.715,2.23,1.859,2.643l0,0
			c0.406,0.145,0.82,0.213,1.229,0.213l0,0c1.49,0,2.889-0.922,3.422-2.406l0,0c0.188-0.523,0.275-1.055,0.275-1.576l0,0
			c0-1.916-1.186-3.713-3.092-4.393l0,0l0,0c-0.26-0.094-0.396-0.381-0.303-0.641l0,0c0.092-0.26,0.379-0.396,0.639-0.303l0,0
			c2.314,0.83,3.756,3.01,3.756,5.336l0,0c0,0.635-0.107,1.281-0.334,1.914l0,0c-0.68,1.891-2.461,3.068-4.359,3.068l0,0
			C100.445,171.584,100.445,171.584,100.443,171.584L100.443,171.584z M99.199,167.186c-0.035,0.09-0.051,0.186-0.051,0.283l0,0
			c0,0.143,0.037,0.281,0.104,0.406l0,0c0.002-0.053,0.01-0.105,0.029-0.156l0,0c0.09-0.262,0.377-0.396,0.637-0.305l0,0
			c0.023,0.006,0.045,0.01,0.068,0.01l0,0c0.078,0,0.156-0.049,0.18-0.121l0,0c0.018-0.049,0.023-0.09,0.023-0.131l0,0
			c0-0.15-0.092-0.293-0.244-0.346l0,0c-0.066-0.023-0.131-0.033-0.195-0.033l0,0C99.512,166.793,99.285,166.939,99.199,167.186
			L99.199,167.186z"/>
		<path d="M106.281,164.5c-1.395,0.002-2.795-0.512-3.889-1.545l0,0l0,0c-0.201-0.189-0.211-0.506-0.02-0.707l0,0
			c0.188-0.199,0.504-0.209,0.707-0.02l0,0c0.902,0.852,2.051,1.271,3.201,1.271l0,0c1.242,0,2.477-0.488,3.396-1.461l0,0
			c0.664-0.705,0.99-1.6,0.992-2.496l0,0c-0.002-0.967-0.383-1.928-1.139-2.643l0,0c-0.545-0.514-1.234-0.766-1.928-0.768l0,0
			c-0.748,0.002-1.49,0.295-2.043,0.883l0,0c-0.393,0.416-0.584,0.941-0.584,1.471l0,0c0,0.57,0.225,1.137,0.672,1.563l0,0
			c0.313,0.295,0.709,0.439,1.109,0.439l0,0c0.43,0,0.855-0.17,1.176-0.506l0,0c0.215-0.227,0.32-0.51,0.324-0.801l0,0
			c-0.033,0.232-0.139,0.461-0.314,0.646l0,0c-0.268,0.281-0.629,0.428-0.992,0.426l0,0c-0.334,0.002-0.674-0.123-0.936-0.371l0,0
			c-0.332-0.311-0.5-0.734-0.498-1.152l0,0c-0.002-0.389,0.145-0.783,0.432-1.086l0,0c0.363-0.387,0.859-0.584,1.35-0.582l0,0
			c0.457-0.002,0.918,0.168,1.273,0.506l0,0c0.455,0.43,0.688,1.012,0.688,1.596l0,0c0,0.537-0.197,1.082-0.6,1.506l0,0
			c-0.514,0.541-1.209,0.82-1.902,0.818l0,0c-0.643,0.002-1.291-0.236-1.797-0.713l0,0c-0.654-0.619-0.986-1.457-0.984-2.289l0,0
			c-0.002-0.773,0.283-1.553,0.855-2.158l0,0c0.748-0.793,1.762-1.195,2.771-1.195l0,0c0.936,0,1.879,0.348,2.613,1.041l0,0
			c0.965,0.908,1.453,2.141,1.451,3.369l0,0c0.002,1.141-0.418,2.287-1.264,3.184l0,0c-1.113,1.176-2.617,1.773-4.119,1.773l0,0
			C106.285,164.5,106.283,164.5,106.281,164.5L106.281,164.5z M106.678,158.33c-0.109,0.115-0.16,0.256-0.16,0.4l0,0
			c0,0.156,0.059,0.309,0.184,0.426l0,0c0.07,0.066,0.158,0.098,0.25,0.098l0,0c0.098,0,0.193-0.037,0.268-0.113l0,0
			c0.037-0.039,0.053-0.084,0.053-0.133l0,0c0-0.053-0.02-0.104-0.061-0.143l0,0c-0.199-0.189-0.209-0.506-0.018-0.707l0,0
			c0.037-0.039,0.082-0.072,0.129-0.096l0,0c-0.008-0.002-0.016-0.002-0.023-0.002l0,0
			C107.068,158.063,106.846,158.15,106.678,158.33L106.678,158.33z"/>
		<path d="M112.887,168.813c-0.803,0.002-1.607-0.324-2.193-0.961l0,0c-0.438-0.477-0.658-1.082-0.658-1.682l0,0
			c0-0.67,0.271-1.342,0.805-1.83l0,0c0.398-0.367,0.908-0.553,1.412-0.551l0,0c0.561-0.002,1.127,0.229,1.537,0.676l0,0
			c0.313,0.336,0.467,0.77,0.467,1.195l0,0c0,0.477-0.193,0.955-0.572,1.305l0,0c-0.289,0.266-0.662,0.4-1.025,0.4l0,0
			c-0.408,0-0.818-0.168-1.115-0.488l0,0c-0.23-0.252-0.35-0.574-0.348-0.891l0,0c-0.002-0.352,0.143-0.711,0.424-0.965l0,0
			c0.051-0.047,0.105-0.09,0.162-0.125l0,0c-0.094,0.045-0.184,0.105-0.266,0.18l0,0c-0.32,0.293-0.48,0.689-0.48,1.094l0,0
			c0,0.359,0.129,0.717,0.393,1.004l0,0c0.391,0.424,0.922,0.639,1.459,0.641l0,0c0.482-0.002,0.959-0.174,1.34-0.523l0,0
			c0.559-0.516,0.84-1.213,0.842-1.916l0,0c-0.002-0.629-0.227-1.258-0.688-1.76l0,0c-0.668-0.727-1.574-1.09-2.486-1.092l0,0
			c-0.816,0-1.635,0.295-2.283,0.893l0,0v0.002c-0.203,0.186-0.52,0.174-0.707-0.029l0,0c-0.188-0.205-0.174-0.521,0.029-0.707l0,0
			c0.84-0.773,1.904-1.158,2.961-1.156l0,0c1.18-0.002,2.359,0.475,3.223,1.414l0,0c0.637,0.689,0.951,1.566,0.949,2.436l0,0
			c0.002,0.971-0.393,1.941-1.162,2.652l0,0c-0.57,0.525-1.295,0.785-2.014,0.785l0,0
			C112.889,168.813,112.889,168.813,112.887,168.813L112.887,168.813z M112.295,165.76c-0.066,0.059-0.1,0.139-0.1,0.227l0,0
			c0,0.076,0.025,0.15,0.084,0.213l0,0c0.023,0.025,0.051,0.049,0.08,0.07l0,0c-0.037-0.166,0.012-0.346,0.145-0.471l0,0
			c0.01-0.01,0.01-0.016,0.01-0.021l0,0c0-0.006,0-0.01-0.004-0.012l0,0c-0.033-0.035-0.07-0.049-0.111-0.051l0,0
			C112.363,165.715,112.328,165.729,112.295,165.76L112.295,165.76z"/>
	</g>
	<g>
		<path d="M83.375,168.5c-0.229-0.633-0.335-1.279-0.335-1.914l0,0c0-2.328,1.442-4.506,3.756-5.336l0,0
			c0.259-0.092,0.546,0.041,0.639,0.301l0,0c0.094,0.262-0.042,0.547-0.302,0.641l0,0c-1.905,0.684-3.092,2.479-3.093,4.395l0,0
			c0.001,0.521,0.088,1.053,0.275,1.576l0,0c0.532,1.484,1.933,2.406,3.424,2.406l0,0c0.406,0,0.82-0.068,1.227-0.213l0,0
			c1.146-0.41,1.859-1.492,1.859-2.645l0,0c0-0.314-0.054-0.635-0.166-0.947l0,0c-0.313-0.877-1.141-1.422-2.02-1.422l0,0
			c-0.242,0-0.484,0.039-0.726,0.129l0,0c-0.66,0.234-1.07,0.857-1.071,1.52l0,0c0.001,0.182,0.03,0.363,0.096,0.547l0,0
			c0.104,0.291,0.311,0.516,0.565,0.65l0,0c-0.192-0.135-0.347-0.33-0.433-0.568l0,0c-0.055-0.152-0.081-0.311-0.081-0.463l0,0
			c0-0.561,0.35-1.086,0.9-1.285l0,0c0.18-0.066,0.364-0.096,0.54-0.096l0,0c0.651,0,1.259,0.404,1.491,1.049l0,0
			c0.073,0.205,0.109,0.418,0.109,0.627l0,0c0.001,0.762-0.472,1.475-1.231,1.748l0,0c-0.241,0.084-0.49,0.127-0.738,0.127l0,0
			c-0.9,0-1.742-0.557-2.063-1.451l0,0c-0.105-0.293-0.155-0.592-0.155-0.885l0,0c0-1.074,0.665-2.078,1.731-2.461l0,0
			c0.352-0.129,0.713-0.188,1.065-0.188l0,0c1.29,0,2.499,0.801,2.961,2.084l0,0c0.151,0.422,0.224,0.857,0.224,1.285l0,0
			c0,1.563-0.967,3.027-2.522,3.586l0,0c-0.516,0.184-1.044,0.271-1.563,0.271l0,0C85.837,171.57,84.055,170.391,83.375,168.5
			L83.375,168.5z M88.902,167.705c0.017,0.051,0.025,0.102,0.026,0.152l0,0c0.066-0.123,0.103-0.264,0.103-0.406l0,0
			c0-0.096-0.016-0.193-0.05-0.287l0,0c-0.086-0.24-0.312-0.389-0.551-0.389l0,0c-0.066,0-0.129,0.012-0.196,0.035l0,0
			c-0.15,0.055-0.243,0.195-0.244,0.346l0,0c0,0.041,0.008,0.082,0.023,0.125l0,0c0.025,0.078,0.101,0.127,0.181,0.127l0,0
			c0.021,0,0.044-0.004,0.072-0.012l0,0c0.054-0.02,0.109-0.029,0.163-0.029l0,0C88.637,167.367,88.831,167.498,88.902,167.705
			L88.902,167.705z"/>
		<path d="M77.775,162.709c-0.843-0.895-1.264-2.041-1.263-3.182l0,0c-0.001-1.229,0.487-2.461,1.452-3.369l0,0
			c0.734-0.695,1.677-1.041,2.613-1.041l0,0c1.01,0,2.021,0.402,2.77,1.193l0,0c0.573,0.607,0.858,1.387,0.858,2.16l0,0
			c0,0.834-0.333,1.67-0.986,2.289l0,0c-0.505,0.477-1.153,0.713-1.796,0.713l0,0c-0.693,0-1.39-0.277-1.903-0.82l0,0
			c-0.399-0.422-0.6-0.967-0.599-1.506l0,0c-0.001-0.58,0.23-1.166,0.688-1.594l0,0c0.356-0.338,0.817-0.508,1.272-0.508l0,0
			c0.491,0,0.985,0.197,1.35,0.582l0,0c0.288,0.305,0.433,0.699,0.432,1.088l0,0c0.001,0.418-0.167,0.84-0.497,1.152l0,0
			c-0.263,0.248-0.604,0.371-0.937,0.371l0,0c-0.363,0-0.727-0.145-0.994-0.428l0,0c-0.175-0.184-0.279-0.412-0.314-0.646l0,0
			c0.005,0.291,0.111,0.574,0.327,0.803l0,0c0.318,0.336,0.745,0.504,1.176,0.506l0,0c0.4-0.002,0.796-0.146,1.108-0.439l0,0
			c0.448-0.426,0.673-0.992,0.674-1.563l0,0c-0.001-0.531-0.193-1.057-0.586-1.473l0,0c-0.554-0.586-1.294-0.879-2.042-0.881l0,0
			c-0.692,0.002-1.383,0.254-1.927,0.768l0,0c-0.758,0.715-1.139,1.676-1.14,2.643l0,0c0.001,0.896,0.329,1.791,0.992,2.494l0,0
			c0.918,0.973,2.153,1.463,3.395,1.463l0,0c1.152,0,2.302-0.42,3.204-1.273l0,0v0.002c0.201-0.191,0.517-0.182,0.707,0.02l0,0
			c0.189,0.199,0.18,0.516-0.02,0.705l0,0c-1.094,1.033-2.497,1.547-3.892,1.547l0,0C80.395,164.484,78.889,163.887,77.775,162.709
			L77.775,162.709z M80.992,158.146c0.188,0.201,0.177,0.518-0.025,0.705l0,0c-0.038,0.037-0.057,0.084-0.058,0.139l0,0
			c0.001,0.049,0.017,0.096,0.052,0.133l0,0c0.072,0.076,0.17,0.115,0.269,0.115l0,0c0.092-0.002,0.181-0.031,0.249-0.098l0,0
			c0.125-0.119,0.185-0.271,0.186-0.426l0,0c-0.001-0.145-0.052-0.287-0.159-0.4l0,0c-0.172-0.18-0.395-0.27-0.623-0.27l0,0
			c-0.008,0-0.015,0-0.022,0l0,0C80.908,158.07,80.953,158.104,80.992,158.146L80.992,158.146z"/>
		<path d="M73.276,168.012c-0.771-0.711-1.163-1.684-1.162-2.652l0,0c0-0.869,0.315-1.746,0.949-2.436l0,0
			c0.861-0.939,2.043-1.416,3.223-1.416l0,0c1.058,0,2.122,0.385,2.961,1.156l0,0l0.001,0.002c0.203,0.186,0.216,0.502,0.028,0.705
			l0,0c-0.188,0.203-0.504,0.217-0.705,0.029l0,0c-0.651-0.598-1.467-0.891-2.285-0.893l0,0c-0.914,0.002-1.819,0.367-2.486,1.092
			l0,0c-0.46,0.502-0.686,1.129-0.687,1.76l0,0c0.001,0.703,0.282,1.4,0.841,1.916l0,0c0.381,0.35,0.859,0.52,1.34,0.521l0,0
			c0.536-0.002,1.067-0.215,1.459-0.639l0,0c0.264-0.287,0.391-0.645,0.392-1.004l0,0c-0.001-0.402-0.161-0.801-0.479-1.094l0,0
			c-0.082-0.076-0.172-0.137-0.267-0.182l0,0c0.057,0.035,0.111,0.078,0.161,0.123l0,0c0.282,0.258,0.426,0.613,0.425,0.967l0,0
			c0.001,0.316-0.113,0.639-0.347,0.891l0,0c-0.298,0.322-0.707,0.49-1.114,0.49l0,0c-0.367,0-0.736-0.135-1.026-0.402l0,0
			c-0.378-0.348-0.573-0.826-0.572-1.303l0,0c-0.001-0.426,0.155-0.857,0.467-1.197l0,0c0.411-0.447,0.977-0.676,1.538-0.676l0,0
			c0.503,0,1.013,0.184,1.412,0.553l0,0c0.531,0.488,0.804,1.16,0.802,1.83l0,0c0.002,0.6-0.216,1.205-0.655,1.682l0,0
			c-0.587,0.635-1.391,0.961-2.194,0.961l0,0C74.575,168.797,73.849,168.537,73.276,168.012L73.276,168.012z M75.671,165.75
			c-0.004,0.006-0.005,0.008-0.005,0.012l0,0c0.001,0.006,0,0.01,0.009,0.018l0,0c0.134,0.125,0.184,0.307,0.147,0.473l0,0
			c0.028-0.02,0.055-0.043,0.08-0.07l0,0c0.055-0.061,0.081-0.135,0.082-0.213l0,0c-0.001-0.086-0.034-0.168-0.102-0.229l0,0
			c-0.029-0.027-0.064-0.041-0.102-0.041l0,0C75.739,165.701,75.703,165.715,75.671,165.75L75.671,165.75z"/>
	</g>
	<g>
		<path d="M90.38,71.75c-1.504,0.001-3.01-0.598-4.123-1.776l0,0c-0.844-0.895-1.264-2.041-1.264-3.182l0,0
			c0-1.229,0.488-2.46,1.452-3.37l0,0c0.735-0.693,1.677-1.04,2.612-1.04l0,0c1.01,0,2.022,0.402,2.771,1.194l0,0
			c0.573,0.606,0.859,1.386,0.858,2.158l0,0c0.001,0.835-0.332,1.671-0.985,2.289l0,0c-0.505,0.478-1.153,0.715-1.797,0.714l0,0
			c-0.694,0.001-1.39-0.275-1.903-0.819l0,0c-0.399-0.423-0.599-0.967-0.599-1.506l0,0c0-0.582,0.231-1.166,0.688-1.594l0,0
			c0.356-0.339,0.817-0.51,1.273-0.508l0,0c0.49-0.002,0.984,0.196,1.349,0.581l0,0c0.288,0.306,0.433,0.699,0.432,1.088l0,0
			c0.001,0.419-0.167,0.84-0.495,1.152l0,0c-0.264,0.247-0.604,0.372-0.938,0.372l0,0c-0.362,0-0.727-0.146-0.994-0.429l0,0
			c-0.174-0.184-0.278-0.411-0.313-0.645l0,0c0.006,0.289,0.111,0.573,0.327,0.801l0,0c0.317,0.336,0.744,0.506,1.175,0.507l0,0
			c0.4-0.001,0.796-0.146,1.108-0.441l0,0c0.448-0.424,0.673-0.99,0.674-1.563l0,0c-0.001-0.529-0.192-1.056-0.585-1.472l0,0
			c-0.555-0.586-1.295-0.88-2.044-0.88l0,0c-0.692,0-1.382,0.253-1.926,0.766l0,0c-0.758,0.716-1.138,1.677-1.139,2.644l0,0
			c0.001,0.897,0.328,1.791,0.992,2.495l0,0c0.918,0.973,2.153,1.463,3.395,1.463l0,0c1.151,0,2.301-0.421,3.204-1.273l0,0v0.001
			c0.2-0.19,0.517-0.182,0.706,0.02l0,0c0.19,0.2,0.181,0.517-0.02,0.706l0,0c-1.093,1.033-2.493,1.547-3.887,1.547l0,0
			C90.383,71.75,90.381,71.75,90.38,71.75L90.38,71.75z M89.473,65.41c0.188,0.201,0.178,0.518-0.022,0.707l0,0
			c-0.041,0.037-0.061,0.085-0.061,0.139l0,0c0,0.05,0.017,0.095,0.052,0.133l0,0c0.074,0.077,0.17,0.115,0.269,0.115l0,0
			c0.093-0.001,0.181-0.033,0.251-0.098l0,0c0.123-0.118,0.183-0.271,0.184-0.427l0,0c-0.001-0.146-0.053-0.287-0.159-0.401l0,0
			c-0.171-0.18-0.394-0.267-0.622-0.268l0,0c-0.007,0-0.014,0-0.021,0l0,0C89.39,65.335,89.434,65.369,89.473,65.41L89.473,65.41z"
			/>
		<path d="M83.776,76.061c-0.72,0.001-1.446-0.261-2.018-0.786l0,0c-0.771-0.71-1.164-1.682-1.163-2.651l0,0
			c-0.001-0.87,0.315-1.746,0.949-2.437l0,0c0.862-0.938,2.044-1.415,3.223-1.414l0,0c1.058-0.001,2.123,0.383,2.962,1.155l0,0
			c0.203,0.188,0.216,0.504,0.028,0.707l0,0c-0.187,0.203-0.503,0.216-0.706,0.029l0,0c-0.649-0.598-1.465-0.891-2.284-0.891l0,0
			c-0.913,0-1.819,0.365-2.485,1.09l0,0c-0.461,0.502-0.686,1.129-0.687,1.76l0,0c0.001,0.704,0.282,1.4,0.84,1.916l0,0
			c0.382,0.35,0.859,0.521,1.341,0.522l0,0c0.537-0.001,1.066-0.215,1.458-0.641l0,0c0.264-0.286,0.392-0.643,0.393-1.004l0,0
			c-0.001-0.402-0.161-0.8-0.48-1.094l0,0c-0.082-0.075-0.172-0.136-0.267-0.181l0,0c0.058,0.036,0.112,0.078,0.164,0.125l0,0
			c0.279,0.258,0.424,0.613,0.423,0.966l0,0c0.001,0.315-0.114,0.638-0.348,0.891l0,0c-0.297,0.321-0.707,0.489-1.114,0.488l0,0
			c-0.365,0.001-0.736-0.133-1.026-0.4l0,0c-0.378-0.348-0.572-0.827-0.572-1.303l0,0c0-0.427,0.156-0.859,0.467-1.197l0,0
			c0.41-0.447,0.977-0.677,1.538-0.676l0,0c0.503,0,1.014,0.184,1.412,0.552l0,0c0.532,0.488,0.804,1.16,0.803,1.829l0,0
			c0.001,0.6-0.218,1.205-0.655,1.682l0,0c-0.585,0.636-1.389,0.962-2.19,0.962l0,0C83.779,76.061,83.777,76.061,83.776,76.061
			L83.776,76.061z M84.154,73.013c-0.006,0.006-0.006,0.009-0.006,0.014l0,0c0.001,0.007,0.001,0.009,0.008,0.016l0,0
			c0.135,0.124,0.186,0.307,0.149,0.475l0,0c0.027-0.021,0.055-0.044,0.079-0.07l0,0c0.056-0.062,0.081-0.135,0.082-0.213l0,0
			c0-0.086-0.034-0.168-0.101-0.229l0,0c-0.03-0.027-0.064-0.04-0.102-0.04l0,0C84.221,72.965,84.184,72.98,84.154,73.013
			L84.154,73.013z"/>
	</g>
	<g>
		<path d="M93.816,70.152c-0.201-0.189-0.21-0.505-0.021-0.706l0,0c0.189-0.201,0.506-0.21,0.706-0.02l0,0
			c0.903,0.852,2.053,1.272,3.204,1.273l0,0c1.24-0.001,2.477-0.49,3.396-1.463l0,0c0.664-0.705,0.99-1.599,0.992-2.496l0,0
			c-0.002-0.966-0.383-1.927-1.139-2.642l0,0c-0.545-0.515-1.236-0.767-1.928-0.767l0,0c-0.748,0-1.49,0.294-2.043,0.881l0,0
			c-0.393,0.416-0.584,0.941-0.586,1.471l0,0c0.002,0.571,0.225,1.137,0.674,1.563l0,0c0.313,0.296,0.709,0.439,1.109,0.44l0,0
			c0.432-0.001,0.857-0.17,1.176-0.506l0,0c0.215-0.229,0.322-0.516,0.326-0.808l0,0c-0.033,0.235-0.139,0.466-0.314,0.652l0,0
			c-0.268,0.281-0.631,0.428-0.992,0.427l0,0c-0.336,0.001-0.676-0.124-0.938-0.372l0,0c-0.33-0.31-0.5-0.733-0.498-1.151l0,0
			c-0.002-0.391,0.145-0.784,0.432-1.087l0,0c0.363-0.387,0.859-0.583,1.35-0.583l0,0c0.455,0,0.916,0.169,1.273,0.508l0,0
			c0.455,0.429,0.688,1.012,0.688,1.594l0,0c0,0.539-0.199,1.082-0.6,1.507l0,0c-0.514,0.543-1.209,0.82-1.902,0.819l0,0
			c-0.643,0.001-1.291-0.237-1.797-0.713l0,0c-0.656-0.619-0.988-1.457-0.986-2.29l0,0c-0.002-0.773,0.285-1.553,0.859-2.157l0,0
			c0.746-0.794,1.76-1.195,2.77-1.194l0,0c0.936-0.001,1.879,0.345,2.613,1.039l0,0c0.965,0.909,1.453,2.141,1.453,3.369l0,0
			c0,1.141-0.422,2.288-1.266,3.183l0,0c-1.115,1.179-2.619,1.776-4.123,1.776l0,0C96.311,71.7,94.908,71.186,93.816,70.152
			L93.816,70.152z M98.1,65.53c-0.107,0.113-0.158,0.254-0.158,0.399l0,0c0,0.155,0.059,0.307,0.184,0.425l0,0
			c0.072,0.066,0.16,0.099,0.252,0.1l0,0c0.098-0.001,0.193-0.038,0.266-0.114l0,0c0.035-0.038,0.053-0.084,0.053-0.134l0,0
			c0-0.052-0.02-0.104-0.061-0.143l0,0c-0.201-0.19-0.207-0.507-0.018-0.706l0,0c0.039-0.04,0.082-0.072,0.127-0.097l0,0
			c-0.008,0-0.014-0.001-0.021-0.001l0,0C98.492,65.26,98.27,65.349,98.1,65.53L98.1,65.53z"/>
		<path d="M104.311,76.011c-0.803,0.002-1.609-0.324-2.193-0.962l0,0c-0.438-0.476-0.658-1.081-0.658-1.682l0,0
			c0-0.669,0.271-1.342,0.805-1.829l0,0c0.398-0.368,0.908-0.553,1.412-0.552l0,0c0.563-0.001,1.127,0.228,1.537,0.676l0,0
			c0.313,0.338,0.467,0.771,0.467,1.197l0,0c0,0.476-0.195,0.954-0.572,1.303l0,0c-0.289,0.268-0.66,0.4-1.025,0.4l0,0
			c-0.408,0-0.818-0.166-1.115-0.489l0,0c-0.232-0.251-0.348-0.573-0.348-0.89l0,0c0-0.352,0.143-0.71,0.424-0.966l0,0
			c0.053-0.047,0.107-0.089,0.164-0.125l0,0c-0.096,0.045-0.186,0.105-0.268,0.182l0,0c-0.32,0.294-0.48,0.689-0.48,1.093l0,0
			c0,0.36,0.129,0.717,0.395,1.005l0,0c0.391,0.425,0.92,0.639,1.457,0.639l0,0c0.48,0,0.959-0.172,1.34-0.521l0,0
			c0.557-0.515,0.84-1.213,0.84-1.916l0,0c0-0.631-0.225-1.259-0.686-1.76l0,0c-0.668-0.726-1.574-1.09-2.486-1.091l0,0
			c-0.818,0-1.635,0.294-2.283,0.892l0,0l0,0c-0.203,0.187-0.52,0.174-0.707-0.029l0,0c-0.186-0.203-0.174-0.52,0.029-0.707l0,0
			c0.84-0.772,1.904-1.156,2.961-1.156l0,0c1.18,0,2.359,0.477,3.223,1.415l0,0c0.635,0.691,0.951,1.566,0.949,2.437l0,0
			c0.002,0.971-0.393,1.941-1.162,2.652l0,0c-0.57,0.523-1.295,0.785-2.014,0.785l0,0C104.313,76.011,104.313,76.011,104.311,76.011
			L104.311,76.011z M103.717,72.958c-0.064,0.06-0.098,0.139-0.098,0.227l0,0c0,0.077,0.025,0.15,0.084,0.213l0,0
			c0.023,0.026,0.051,0.05,0.078,0.07l0,0c-0.035-0.166,0.014-0.347,0.146-0.472l0,0c0.008-0.008,0.01-0.015,0.01-0.019l0,0
			c0-0.008-0.002-0.01-0.004-0.013l0,0c-0.033-0.036-0.07-0.049-0.111-0.05l0,0C103.785,72.916,103.752,72.926,103.717,72.958
			L103.717,72.958z"/>
	</g>
	<path fill-rule="evenodd" clip-rule="evenodd" stroke="#000000" stroke-width="0.455" stroke-linejoin="round" d="M94.091,73.273
		C77.693,85.845,79.81,89.91,79.81,89.91s13.946-16.763,28.061-0.183C107.871,89.727,110.49,85.845,94.091,73.273L94.091,73.273z"/>
	<path fill-rule="evenodd" clip-rule="evenodd" stroke="#000000" stroke-width="0.455" stroke-linejoin="round" d="M116.748,101.906
		c0,0,13.316,23.593,4.875,37.215c-7.15,11.539-22.75,2.764-20.637-6.338c0,0,1.949,9.752,11.537,9.102
		c0,0,10.365-0.842,7.637-13.326c-0.205-0.945-2.6-8.615-10.563-9.589C109.598,118.969,118.373,118.481,116.748,101.906z"/>
	<path fill-rule="evenodd" clip-rule="evenodd" stroke="#000000" stroke-width="0.455" stroke-linejoin="round" d="M71.559,101.906
		c0,0-13.316,23.593-4.875,37.215c7.149,11.539,23.163,3.787,20.638-6.338c0,0-1.95,9.752-11.538,9.102
		c0,0-10.366-0.842-7.638-13.326c0.207-0.945,2.601-8.615,10.563-9.589C78.708,118.969,69.934,118.481,71.559,101.906z"/>
	<path fill-rule="evenodd" clip-rule="evenodd" stroke="#000000" stroke-width="0.455" stroke-linejoin="round" d="M94.205,90.531
		c0,0,0.975,12.464,7.801,9.864c0,0-2.926,3.785-0.813,8.336c0,0-6.642,0.294-6.804,4.519h-0.208
		c-0.162-4.225-7.172-4.519-7.172-4.519c2.113-4.551-0.813-8.336-0.813-8.336c6.825,2.6,7.801-9.864,7.801-9.864H94.205z"/>
	
		<circle fill-rule="evenodd" clip-rule="evenodd" stroke="#000000" stroke-width="0.455" stroke-linejoin="round" cx="77.704" cy="106.885" r="1.189"/>
	
		<circle fill-rule="evenodd" clip-rule="evenodd" stroke="#000000" stroke-width="0.455" stroke-linejoin="round" cx="85.541" cy="91.072" r="1.189"/>
	
		<circle fill-rule="evenodd" clip-rule="evenodd" stroke="#000000" stroke-width="0.455" stroke-linejoin="round" cx="102.47" cy="91.12" r="1.19"/>
	
		<circle fill-rule="evenodd" clip-rule="evenodd" stroke="#000000" stroke-width="0.455" stroke-linejoin="round" cx="110.396" cy="106.837" r="1.189"/>
	
		<circle fill-rule="evenodd" clip-rule="evenodd" stroke="#000000" stroke-width="0.455" stroke-linejoin="round" cx="78.58" cy="132.779" r="1.19"/>
	
		<circle fill-rule="evenodd" clip-rule="evenodd" stroke="#000000" stroke-width="0.455" stroke-linejoin="round" cx="109.611" cy="132.779" r="1.189"/>
	
		<circle fill-rule="evenodd" clip-rule="evenodd" stroke="#000000" stroke-width="0.3458" stroke-linejoin="round" cx="85.82" cy="118.206" r="0.904"/>
	
		<circle fill-rule="evenodd" clip-rule="evenodd" stroke="#000000" stroke-width="0.3458" stroke-linejoin="round" cx="102.475" cy="118.269" r="0.904"/>
	
		<circle fill-rule="evenodd" clip-rule="evenodd" stroke="#000000" stroke-width="0.3458" stroke-linejoin="round" cx="85.602" cy="110.174" r="1.197"/>
	
		<circle fill-rule="evenodd" clip-rule="evenodd" stroke="#000000" stroke-width="0.3458" stroke-linejoin="round" cx="102.584" cy="110.174" r="1.197"/>
	
		<circle fill-rule="evenodd" clip-rule="evenodd" stroke="#000000" stroke-width="0.2628" stroke-linejoin="round" cx="94.188" cy="114.968" r="0.909"/>
	
		<circle fill-rule="evenodd" clip-rule="evenodd" stroke="#000000" stroke-width="0.2628" stroke-linejoin="round" cx="84.78" cy="99.767" r="0.909"/>
	
		<circle fill-rule="evenodd" clip-rule="evenodd" stroke="#000000" stroke-width="0.2628" stroke-linejoin="round" cx="103.543" cy="99.629" r="0.91"/>
	
		<circle fill-rule="evenodd" clip-rule="evenodd" stroke="#000000" stroke-width="0.2628" stroke-linejoin="round" cx="93.887" cy="87.51" r="2.123"/>
	<g>
		<path d="M60.755,105.444c-1.793-0.735-2.879-2.466-2.878-4.291l0,0c0-0.585,0.11-1.181,0.346-1.753l0,0
			c0.604-1.474,2.025-2.368,3.524-2.367l0,0c0.481,0,0.971,0.092,1.442,0.285l0,0c1.218,0.498,1.955,1.672,1.954,2.911l0,0
			c0,0.398-0.076,0.802-0.234,1.192l0,0c-0.415,1.013-1.393,1.626-2.424,1.625l0,0c-0.331,0.001-0.667-0.063-0.99-0.194l0,0
			c-0.849-0.349-1.363-1.167-1.362-2.031l0,0c-0.001-0.275,0.053-0.56,0.164-0.829l0,0c0.294-0.718,0.985-1.154,1.717-1.153l0,0
			c0.234,0,0.473,0.044,0.702,0.139l0,0c0.612,0.252,0.984,0.843,0.983,1.466l0,0c0,0.199-0.038,0.403-0.118,0.601l0,0
			c-0.218,0.528-0.728,0.849-1.265,0.848l0,0c-0.174,0-0.35-0.033-0.518-0.102l0,0c-0.235-0.097-0.424-0.261-0.552-0.46l0,0
			c0.122,0.261,0.339,0.479,0.626,0.597l0,0c0.201,0.082,0.408,0.121,0.612,0.121l0,0c0.638-0.001,1.242-0.379,1.498-1.004l0,0
			c0.108-0.269,0.16-0.543,0.161-0.814l0,0c-0.001-0.846-0.503-1.646-1.334-1.985l0,0c-0.35-0.145-0.708-0.211-1.063-0.211l0,0
			c-1.105,0.001-2.154,0.658-2.6,1.747l0,0c-0.185,0.449-0.271,0.914-0.271,1.373l0,0c0.001,1.432,0.852,2.79,2.259,3.366l0,0
			c0.579,0.236,1.178,0.348,1.766,0.348l0,0c1.841,0,3.585-1.094,4.323-2.899l0,0c0.104-0.257,0.396-0.379,0.652-0.274l0,0
			c0.255,0.105,0.378,0.397,0.273,0.652l0,0c-0.898,2.194-3.015,3.522-5.249,3.522l0,0C62.186,105.868,61.458,105.73,60.755,105.444
			L60.755,105.444z M61.803,99.961c0.254,0.107,0.374,0.4,0.267,0.654l0,0c-0.008,0.021-0.013,0.042-0.013,0.069l0,0
			c0,0.075,0.046,0.148,0.121,0.179l0,0c0.045,0.019,0.093,0.028,0.139,0.028l0,0c0.144-0.001,0.283-0.087,0.339-0.226l0,0
			c0.031-0.076,0.045-0.151,0.045-0.224l0,0c-0.001-0.23-0.137-0.448-0.363-0.54l0,0c-0.107-0.045-0.215-0.065-0.323-0.065l0,0
			c-0.129,0.001-0.257,0.03-0.372,0.086l0,0C61.697,99.927,61.75,99.94,61.803,99.961L61.803,99.961z"/>
		<path d="M59.78,112.281c-0.31,0-0.624-0.049-0.932-0.15l0,0c-1.517-0.5-2.478-1.906-2.477-3.421l0,0
			c0-0.374,0.059-0.752,0.181-1.125l0,0c0.606-1.841,2.317-3.01,4.156-3.009l0,0c0.454,0,0.916,0.071,1.37,0.221l0,0
			c0.263,0.088,0.404,0.37,0.317,0.632l0,0c-0.086,0.262-0.369,0.404-0.631,0.318l0,0c-0.352-0.116-0.706-0.171-1.057-0.171l0,0
			c-1.417,0-2.739,0.9-3.205,2.322l0,0c-0.09,0.271-0.132,0.544-0.133,0.812l0,0c0.001,1.093,0.694,2.111,1.79,2.472l0,0
			c0.206,0.067,0.413,0.1,0.619,0.1l0,0c0.83,0,1.607-0.529,1.882-1.363l0,0c0.051-0.153,0.073-0.31,0.073-0.464l0,0
			c0-0.623-0.396-1.205-1.02-1.409l0,0c-0.104-0.034-0.207-0.051-0.31-0.054l0,0c0.064,0.009,0.129,0.024,0.191,0.045l0,0
			c0.553,0.184,0.903,0.694,0.903,1.247l0,0c0,0.136-0.021,0.274-0.067,0.411l0,0c-0.211,0.637-0.801,1.042-1.439,1.041l0,0
			c-0.157,0-0.317-0.024-0.474-0.076l0,0c-0.745-0.245-1.218-0.937-1.217-1.681l0,0c-0.001-0.185,0.028-0.371,0.088-0.552l0,0
			c0.29-0.88,1.105-1.438,1.983-1.437l0,0c0.217-0.001,0.438,0.034,0.653,0.104l0,0c1.044,0.346,1.708,1.314,1.707,2.359l0,0
			c0.001,0.257-0.039,0.52-0.124,0.777l0,0c-0.414,1.253-1.577,2.05-2.829,2.05l0,0C59.781,112.281,59.78,112.281,59.78,112.281
			L59.78,112.281z M60.094,109.083l-0.001,0.005c0.001,0.006,0.005,0.017,0.016,0.02l0,0c0.175,0.059,0.296,0.203,0.332,0.371l0,0
			c0.018-0.03,0.032-0.063,0.044-0.098l0,0c0.01-0.033,0.016-0.066,0.016-0.099l0,0c0-0.131-0.085-0.255-0.216-0.297l0,0
			c-0.018-0.005-0.032-0.007-0.048-0.008l0,0C60.174,108.979,60.116,109.018,60.094,109.083L60.094,109.083z"/>
	</g>
	<g>
		<path d="M120.104,102.345L120.104,102.345c-0.105-0.255,0.018-0.548,0.273-0.651l0,0c0.254-0.104,0.547,0.017,0.65,0.272l0,0
			c0.74,1.808,2.484,2.9,4.322,2.901l0,0c0.59-0.001,1.186-0.112,1.768-0.349l0,0c1.406-0.576,2.256-1.935,2.258-3.366l0,0
			c-0.002-0.458-0.088-0.924-0.271-1.374l0,0c-0.443-1.088-1.494-1.745-2.6-1.746l0,0c-0.355,0-0.715,0.067-1.063,0.211l0,0
			c-0.832,0.339-1.334,1.14-1.334,1.986l0,0c0,0.271,0.051,0.544,0.16,0.813l0,0c0.256,0.626,0.861,1.004,1.498,1.005l0,0
			c0.203-0.001,0.41-0.039,0.611-0.12l0,0c0.287-0.118,0.502-0.334,0.625-0.594l0,0c-0.127,0.197-0.316,0.36-0.551,0.457l0,0
			c-0.168,0.067-0.342,0.102-0.516,0.101l0,0c-0.539,0.001-1.049-0.319-1.264-0.847l0,0c-0.084-0.197-0.121-0.404-0.121-0.602l0,0
			c0-0.625,0.373-1.215,0.982-1.466l0,0c0.23-0.095,0.471-0.139,0.705-0.139l0,0c0.73-0.001,1.422,0.436,1.719,1.155l0,0
			c0.107,0.269,0.162,0.55,0.162,0.827l0,0c0,0.864-0.514,1.682-1.365,2.032l0,0c-0.322,0.131-0.658,0.194-0.988,0.194l0,0
			c-1.031,0.001-2.008-0.613-2.422-1.624l0,0c-0.162-0.391-0.236-0.796-0.236-1.193l0,0c0-1.24,0.738-2.414,1.953-2.911l0,0
			c0.471-0.194,0.963-0.286,1.443-0.286l0,0c1.5-0.001,2.922,0.894,3.525,2.367l0,0c0.232,0.573,0.346,1.168,0.346,1.753l0,0
			c0,1.825-1.086,3.556-2.881,4.291l0,0c-0.701,0.287-1.43,0.424-2.145,0.424l0,0C123.117,105.869,121,104.54,120.104,102.345
			L120.104,102.345z M125.914,99.902c-0.227,0.093-0.361,0.312-0.363,0.541l0,0c0,0.074,0.014,0.146,0.045,0.222l0,0
			c0.059,0.141,0.195,0.227,0.34,0.227l0,0c0.045,0,0.092-0.008,0.139-0.026l0,0c0.074-0.03,0.119-0.104,0.121-0.181l0,0
			c0-0.024-0.004-0.049-0.014-0.073l0,0c-0.105-0.257,0.018-0.547,0.273-0.651l0,0c0.051-0.021,0.104-0.032,0.154-0.036l0,0
			c-0.115-0.056-0.242-0.085-0.371-0.085l0,0C126.129,99.838,126.021,99.859,125.914,99.902L125.914,99.902z"/>
		<path d="M125.643,110.232c-0.086-0.258-0.127-0.521-0.127-0.778l0,0c0-1.044,0.664-2.015,1.709-2.359l0,0
			c0.215-0.07,0.436-0.104,0.652-0.104l0,0c0.877,0,1.693,0.557,1.984,1.437l0,0c0.061,0.184,0.088,0.37,0.088,0.552l0,0
			c0,0.745-0.473,1.435-1.217,1.682l0,0c-0.158,0.051-0.318,0.076-0.475,0.076l0,0c-0.639,0-1.23-0.405-1.438-1.039l0,0
			c-0.047-0.136-0.068-0.276-0.068-0.414l0,0c-0.002-0.552,0.35-1.065,0.9-1.246l0,0c0.066-0.021,0.133-0.037,0.199-0.047l0,0
			c-0.104,0.002-0.209,0.02-0.314,0.055l0,0c-0.625,0.204-1.021,0.786-1.021,1.409l0,0c0,0.154,0.023,0.31,0.076,0.465l0,0
			c0.273,0.834,1.049,1.362,1.881,1.362l0,0c0.205,0,0.414-0.031,0.619-0.099l0,0c1.094-0.361,1.787-1.381,1.789-2.473l0,0
			c-0.002-0.269-0.043-0.543-0.131-0.812l0,0c-0.469-1.422-1.791-2.322-3.207-2.322l0,0c-0.35,0-0.705,0.055-1.057,0.171l0,0h0.002
			c-0.264,0.086-0.547-0.056-0.633-0.318l0,0c-0.086-0.263,0.057-0.544,0.318-0.632l0,0c0.453-0.149,0.916-0.221,1.369-0.221l0,0
			c1.84,0,3.549,1.168,4.156,3.009l0,0c0.123,0.373,0.182,0.752,0.18,1.125l0,0c0.002,1.514-0.961,2.921-2.475,3.422l0,0
			c-0.309,0.102-0.623,0.148-0.932,0.148l0,0C127.219,112.282,126.055,111.485,125.643,110.232L125.643,110.232z M127.967,108.987
			c-0.133,0.042-0.215,0.164-0.215,0.296l0,0c0,0.03,0.004,0.063,0.018,0.099l0,0c0.01,0.034,0.025,0.067,0.043,0.097l0,0
			c0.035-0.167,0.156-0.312,0.33-0.369l0,0c0.008-0.002,0.016-0.016,0.016-0.021l0,0c0,0-0.002-0.006,0-0.004l0,0
			c-0.021-0.066-0.082-0.104-0.145-0.105l0,0C128,108.978,127.986,108.98,127.967,108.987L127.967,108.987z"/>
	</g>
	<polygon stroke="#000000" stroke-width="0.1007" stroke-linecap="round" stroke-linejoin="round" points="96.828,156.891 
		91.13,156.891 93.982,144.033 	"/>
	<polygon stroke="#000000" stroke-width="0.0503" stroke-linecap="round" stroke-linejoin="round" points="95.551,131.412 
		92.702,131.41 94.128,124.981 	"/>
	<polygon stroke="#000000" stroke-width="0.0503" stroke-linecap="round" stroke-linejoin="round" points="73.094,95.015 
		74.625,92.613 79.282,97.268 	"/>
	<polygon stroke="#000000" stroke-width="0.0503" stroke-linecap="round" stroke-linejoin="round" points="115.137,94.96 
		113.605,92.557 108.949,97.212 	"/>
	<polygon stroke="#000000" stroke-width="0.0503" stroke-linecap="round" stroke-linejoin="round" points="76.503,101.413 
		78.034,99.009 82.691,103.665 	"/>
	<polygon stroke="#000000" stroke-width="0.0503" stroke-linecap="round" stroke-linejoin="round" points="111.818,101.413 
		110.287,99.009 105.631,103.665 	"/>
	<polygon stroke="#000000" stroke-width="0.0503" stroke-linecap="round" stroke-linejoin="round" points="97.639,125.547 
		100.197,124.294 96.09,119.145 	"/>
	<polygon stroke="#000000" stroke-width="0.0503" stroke-linecap="round" stroke-linejoin="round" points="90.742,125.566 
		88.184,124.314 92.29,119.165 	"/>
	<polygon stroke="#000000" stroke-width="0.0503" stroke-linecap="round" stroke-linejoin="round" points="78.996,124.398 
		80.433,126.857 74.165,128.873 	"/>
	<polygon stroke="#000000" stroke-width="0.0503" stroke-linecap="round" stroke-linejoin="round" points="109.42,124.525 
		107.982,126.984 114.252,129 	"/>
	
		<rect x="92.328" y="139.117" stroke="#000000" stroke-width="0.0244" stroke-linecap="round" stroke-linejoin="round" width="3.637" height="3.637"/>
	
		<circle fill-rule="evenodd" clip-rule="evenodd" stroke="#000000" stroke-width="0.1971" stroke-linejoin="round" cx="94.008" cy="69.081" r="0.682"/>
	<polygon fill-rule="evenodd" clip-rule="evenodd" stroke="#000000" stroke-width="0.0246" stroke-linejoin="round" points="
		78.934,122.038 78.562,120.894 79.535,120.187 80.507,120.894 80.136,122.038 	"/>
	<polygon fill-rule="evenodd" clip-rule="evenodd" stroke="#000000" stroke-width="0.0246" stroke-linejoin="round" points="
		76.011,122.712 75.639,121.569 76.612,120.862 77.584,121.569 77.213,122.712 	"/>
	<polygon fill-rule="evenodd" clip-rule="evenodd" stroke="#000000" stroke-width="0.0246" stroke-linejoin="round" points="
		73.247,124.151 72.875,123.007 73.847,122.3 74.82,123.007 74.449,124.151 	"/>
	<polygon fill-rule="evenodd" clip-rule="evenodd" stroke="#000000" stroke-width="0.0246" stroke-linejoin="round" points="
		109.066,121.875 109.438,120.732 108.465,120.025 107.492,120.732 107.863,121.875 	"/>
	<polygon fill-rule="evenodd" clip-rule="evenodd" stroke="#000000" stroke-width="0.0246" stroke-linejoin="round" points="
		111.988,122.55 112.361,121.407 111.389,120.7 110.416,121.407 110.787,122.55 	"/>
	<polygon fill-rule="evenodd" clip-rule="evenodd" stroke="#000000" stroke-width="0.0246" stroke-linejoin="round" points="
		114.754,123.988 115.125,122.844 114.152,122.137 113.18,122.844 113.551,123.988 	"/>
	
		<circle fill-rule="evenodd" clip-rule="evenodd" stroke="#000000" stroke-width="0.1971" stroke-linejoin="round" cx="90.324" cy="70.403" r="0.682"/>
	
		<circle fill-rule="evenodd" clip-rule="evenodd" stroke="#000000" stroke-width="0.1971" stroke-linejoin="round" cx="97.735" cy="70.38" r="0.683"/>
	
		<circle fill-rule="evenodd" clip-rule="evenodd" stroke="#000000" stroke-width="0.1971" stroke-linejoin="round" cx="63.002" cy="104.668" r="0.683"/>
	
		<circle fill-rule="evenodd" clip-rule="evenodd" stroke="#000000" stroke-width="0.1971" stroke-linejoin="round" cx="125.522" cy="104.576" r="0.683"/>
	
		<circle fill-rule="evenodd" clip-rule="evenodd" stroke="#000000" stroke-width="0.1971" stroke-linejoin="round" cx="81.485" cy="162.977" r="0.683"/>
	
		<circle fill-rule="evenodd" clip-rule="evenodd" stroke="#000000" stroke-width="0.1971" stroke-linejoin="round" cx="106.998" cy="162.988" r="0.682"/>
	<polygon fill-rule="evenodd" clip-rule="evenodd" stroke="#000000" stroke-width="0.0394" stroke-linejoin="round" points="
		88.517,159.266 89.935,156.811 91.352,159.266 	"/>
	<polygon fill-rule="evenodd" clip-rule="evenodd" stroke="#000000" stroke-width="0.0394" stroke-linejoin="round" points="
		96.869,159.244 98.285,156.789 99.703,159.244 	"/>
	<polygon fill-rule="evenodd" clip-rule="evenodd" stroke="#000000" stroke-width="0.0394" stroke-linejoin="round" points="
		88.66,84.96 90.077,87.416 91.494,84.96 	"/>
	<polygon fill-rule="evenodd" clip-rule="evenodd" stroke="#000000" stroke-width="0.0394" stroke-linejoin="round" points="
		96.389,85.081 97.807,87.536 99.225,85.081 	"/>
	<polygon stroke="#000000" stroke-width="0.0327" stroke-linecap="round" stroke-linejoin="round" points="106.254,104.985 
		104.473,105.491 106.506,109.257 	"/>
	<polygon stroke="#000000" stroke-width="0.0327" stroke-linecap="round" stroke-linejoin="round" points="108.215,110.031 
		108.484,111.863 112.484,110.338 	"/>
	<polygon stroke="#000000" stroke-width="0.0327" stroke-linecap="round" stroke-linejoin="round" points="81.811,104.985 
		83.592,105.491 81.559,109.257 	"/>
	<polygon stroke="#000000" stroke-width="0.0327" stroke-linecap="round" stroke-linejoin="round" points="79.659,110.031 
		79.389,111.863 75.39,110.338 	"/>
	<polygon stroke="#000000" stroke-width="0.0327" stroke-linecap="round" stroke-linejoin="round" points="83.027,94.918 
		83.296,96.75 87.296,95.226 	"/>
	<polygon stroke="#000000" stroke-width="0.0327" stroke-linecap="round" stroke-linejoin="round" points="76.527,135.873 
		76.796,137.703 80.796,136.18 	"/>
	<polygon stroke="#000000" stroke-width="0.0327" stroke-linecap="round" stroke-linejoin="round" points="74.402,130.988 
		72.622,131.494 74.655,135.262 	"/>
	<polygon stroke="#000000" stroke-width="0.0327" stroke-linecap="round" stroke-linejoin="round" points="113.824,130.338 
		115.605,130.844 113.572,134.611 	"/>
	<polygon stroke="#000000" stroke-width="0.0327" stroke-linecap="round" stroke-linejoin="round" points="112.322,136.035 
		112.053,137.867 108.053,136.342 	"/>
	<polygon stroke="#000000" stroke-width="0.0327" stroke-linecap="round" stroke-linejoin="round" points="104.848,94.918 
		104.578,96.75 100.578,95.226 	"/>
	<polygon stroke="#000000" stroke-width="0.0327" stroke-linecap="round" stroke-linejoin="round" points="90.427,117.89 
		91.995,116.903 88.983,113.861 	"/>
	<polygon stroke="#000000" stroke-width="0.0327" stroke-linecap="round" stroke-linejoin="round" points="98.025,118.031 
		96.459,117.043 99.471,114.001 	"/>
	
		<circle fill-rule="evenodd" clip-rule="evenodd" stroke="#000000" stroke-width="0.2628" stroke-linejoin="round" cx="85.717" cy="128.908" r="2.123"/>
	
		<circle fill-rule="evenodd" clip-rule="evenodd" stroke="#000000" stroke-width="0.2628" stroke-linejoin="round" cx="102.107" cy="129.053" r="2.123"/>
	
		<circle fill-rule="evenodd" clip-rule="evenodd" stroke="#000000" stroke-width="0.3458" stroke-linejoin="round" cx="77.956" cy="115.396" r="1.197"/>
	
		<circle fill-rule="evenodd" clip-rule="evenodd" stroke="#000000" stroke-width="0.3458" stroke-linejoin="round" cx="110.868" cy="115.396" r="1.196"/>
</g>
</svg>
