<?xml version="1.0" encoding="utf-8"?>
<!-- Generator: Adobe Illustrator 16.0.0, SVG Export Plug-In . SVG Version: 6.00 Build 0)  -->
<!DOCTYPE svg PUBLIC "-//W3C//DTD SVG 1.1//EN" "http://www.w3.org/Graphics/SVG/1.1/DTD/svg11.dtd">
<svg version="1.1" id="圖層_1" xmlns="http://www.w3.org/2000/svg" xmlns:xlink="http://www.w3.org/1999/xlink" x="0px" y="0px"
	 width="188.25px" height="250px" viewBox="0 0 188.25 250" enable-background="new 0 0 188.25 250" xml:space="preserve">
<g>
	<path display="none" fill="#F9FAF9" stroke="#000000" d="M183.417,235.547c0,7.827-6.346,14.173-14.174,14.173H19.007
		c-7.828,0-14.174-6.346-14.174-14.173V14.454c0-7.828,6.346-14.174,14.174-14.174h150.236c7.828,0,14.174,6.346,14.174,14.174
		V235.547z"/>
	<g>
		<g>
			<polygon points="10.503,38.512 10.503,14.453 12.684,14.453 12.684,38.512 10.503,38.512 			"/>
		</g>
		<path d="M17.243,37.23c-0.794-0.816-1.304-1.979-1.302-3.262l0,0V19.032c-0.002-1.282,0.508-2.445,1.302-3.262l0,0
			c0.793-0.82,1.88-1.317,3.065-1.317l0,0c1.185,0,2.271,0.497,3.066,1.317l0,0c0.793,0.816,1.303,1.979,1.301,3.262l0,0v14.937
			c0.002,1.282-0.508,2.445-1.301,3.262l0,0c-0.795,0.82-1.882,1.317-3.066,1.317l0,0C19.123,38.548,18.036,38.051,17.243,37.23
			L17.243,37.23z M18.74,17.507c-0.393,0.409-0.617,0.938-0.618,1.525l0,0v14.937c0.001,0.588,0.226,1.117,0.618,1.525l0,0
			c0.392,0.405,0.943,0.666,1.568,0.666l0,0c0.625,0,1.176-0.261,1.568-0.666l0,0c0.393-0.408,0.617-0.938,0.618-1.525l0,0V19.032
			c-0.001-0.588-0.226-1.116-0.618-1.525l0,0c-0.393-0.404-0.943-0.666-1.568-0.666l0,0C19.684,16.841,19.132,17.103,18.74,17.507
			L18.74,17.507z"/>
	</g>
	<g>
		<g>
			<polygon points="177.747,211.488 177.747,235.547 175.565,235.547 175.565,211.488 177.747,211.488 			"/>
		</g>
		<path d="M171.007,212.77c0.793,0.816,1.303,1.979,1.301,3.262l0,0v14.936c0.002,1.283-0.508,2.445-1.301,3.262l0,0
			c-0.793,0.82-1.881,1.318-3.066,1.318l0,0c-1.184,0-2.271-0.498-3.066-1.318l0,0c-0.793-0.816-1.303-1.979-1.301-3.262l0,0
			v-14.936c-0.002-1.282,0.508-2.445,1.301-3.262l0,0c0.795-0.82,1.883-1.318,3.066-1.318l0,0
			C169.126,211.451,170.214,211.949,171.007,212.77L171.007,212.77z M169.509,232.492c0.393-0.408,0.617-0.938,0.619-1.525l0,0
			v-14.936c-0.002-0.588-0.227-1.117-0.619-1.525l0,0c-0.391-0.406-0.943-0.666-1.568-0.666l0,0c-0.625,0-1.176,0.26-1.568,0.666
			l0,0c-0.393,0.408-0.617,0.938-0.617,1.525l0,0v14.936c0,0.588,0.225,1.117,0.617,1.525l0,0c0.393,0.405,0.943,0.666,1.568,0.666
			l0,0C168.565,233.158,169.118,232.897,169.509,232.492L169.509,232.492z"/>
	</g>
	<path fill-rule="evenodd" clip-rule="evenodd" stroke="#000000" stroke-linejoin="round" d="M17.58,42.801
		c-0.041,0.027-0.07,0.041-0.117,0.072c-3.038,1.939-6.583,5.725-6.946,10.441c-0.173,2.244,1.263,3.798,3.118,3.832
		c1.184,0.021,2.137-0.399,2.652-1.203c0.429-0.668,0.538-1.699,0.607-1.223c0.25,1.816-0.511,3.563-0.922,5.088
		c0.459-0.167,1.035-0.251,1.613-0.253h0.01c0.577,0.002,1.152,0.086,1.61,0.253c-0.411-1.525-1.17-3.271-0.921-5.088
		c0.069-0.477,0.179,0.555,0.606,1.223c0.516,0.804,1.469,1.225,2.652,1.203c1.855-0.034,3.291-1.588,3.118-3.832
		c-0.363-4.717-3.908-8.502-6.943-10.441c-0.033-0.024-0.063-0.04-0.11-0.072H17.58z"/>
	<path fill-rule="evenodd" clip-rule="evenodd" stroke="#000000" stroke-linejoin="round" d="M170.651,207.2
		c-0.041-0.027-0.07-0.042-0.117-0.072c-3.039-1.94-6.584-5.725-6.947-10.441c-0.172-2.244,1.264-3.798,3.119-3.832
		c1.184-0.021,2.137,0.399,2.652,1.203c0.428,0.668,0.537,1.699,0.607,1.223c0.25-1.816-0.512-3.563-0.922-5.088
		c0.459,0.167,1.035,0.251,1.613,0.253h0.01c0.576-0.002,1.152-0.086,1.609-0.253c-0.41,1.525-1.17,3.271-0.92,5.088
		c0.068,0.477,0.178-0.555,0.605-1.223c0.516-0.804,1.469-1.225,2.652-1.203c1.855,0.034,3.291,1.588,3.119,3.832
		c-0.363,4.717-3.908,8.501-6.943,10.441c-0.033,0.024-0.063,0.04-0.111,0.072H170.651z"/>
	<path fill-rule="evenodd" clip-rule="evenodd" stroke="#000000" stroke-linejoin="round" d="M50.872,25.792
		c-0.102,0.067-0.174,0.104-0.293,0.181c-7.595,4.85-16.456,14.311-17.364,26.104c-0.432,5.61,3.155,9.495,7.794,9.58
		c2.961,0.054,5.342-0.998,6.632-3.008c1.072-1.671,1.346-4.248,1.52-3.058c0.625,4.542-1.277,8.907-2.307,12.721
		c1.147-0.417,2.59-0.627,4.034-0.632h0.023c1.442,0.005,2.882,0.215,4.027,0.632c-1.027-3.813-2.926-8.179-2.303-12.721
		c0.174-1.19,0.446,1.387,1.517,3.058c1.289,2.01,3.671,3.062,6.631,3.008c4.639-0.085,8.227-3.97,7.794-9.58
		c-0.908-11.793-9.77-21.254-17.358-26.104c-0.082-0.062-0.155-0.1-0.274-0.181H50.872z"/>
	<path fill-rule="evenodd" clip-rule="evenodd" stroke="#000000" stroke-linejoin="round" d="M95.519,54.139
		c-0.102,0.067-0.174,0.104-0.293,0.181C87.63,59.169,78.769,68.63,77.86,80.423c-0.432,5.61,3.155,9.495,7.794,9.58
		c2.961,0.054,5.343-0.998,6.632-3.008c1.072-1.671,1.346-4.248,1.52-3.058c0.625,4.542-1.277,8.907-2.307,12.721
		c1.148-0.417,2.59-0.627,4.035-0.632h0.023c1.441,0.005,2.881,0.215,4.027,0.632c-1.027-3.813-2.926-8.179-2.303-12.721
		c0.174-1.19,0.445,1.387,1.516,3.058c1.289,2.01,3.672,3.062,6.631,3.008c4.639-0.085,8.227-3.97,7.795-9.58
		c-0.908-11.793-9.77-21.254-17.359-26.104c-0.082-0.062-0.154-0.1-0.273-0.181H95.519z"/>
	<path fill-rule="evenodd" clip-rule="evenodd" stroke="#000000" stroke-linejoin="round" d="M138.747,25.792
		c-0.102,0.067-0.174,0.104-0.293,0.181c-7.596,4.85-16.457,14.311-17.365,26.104c-0.432,5.61,3.156,9.495,7.795,9.58
		c2.961,0.054,5.342-0.998,6.631-3.008c1.072-1.671,1.346-4.248,1.52-3.058c0.625,4.542-1.277,8.907-2.307,12.721
		c1.148-0.417,2.59-0.627,4.035-0.632h0.023c1.441,0.005,2.881,0.215,4.027,0.632c-1.027-3.813-2.926-8.179-2.303-12.721
		c0.174-1.19,0.445,1.387,1.516,3.058c1.289,2.01,3.672,3.062,6.631,3.008c4.639-0.085,8.227-3.97,7.795-9.58
		c-0.908-11.793-9.77-21.254-17.359-26.104c-0.082-0.062-0.154-0.1-0.273-0.181H138.747z"/>
	<path fill-rule="evenodd" clip-rule="evenodd" stroke="#000000" stroke-linejoin="round" d="M50.872,77.761
		c-0.102,0.067-0.174,0.104-0.293,0.181c-7.595,4.85-16.456,14.311-17.364,26.102c-0.432,5.609,3.155,9.494,7.794,9.578
		c2.961,0.055,5.342-0.998,6.632-3.008c1.072-1.67,1.346-4.247,1.52-3.056c0.625,4.54-1.277,8.903-2.307,12.717
		c1.147-0.418,2.59-0.627,4.034-0.633h0.023c1.442,0.006,2.882,0.215,4.027,0.633c-1.027-3.813-2.926-8.177-2.303-12.717
		c0.174-1.191,0.446,1.386,1.517,3.056c1.289,2.01,3.671,3.063,6.631,3.008c4.639-0.084,8.227-3.969,7.794-9.578
		c-0.908-11.791-9.77-21.252-17.358-26.102c-0.082-0.063-0.155-0.1-0.274-0.181H50.872z"/>
	<path fill-rule="evenodd" clip-rule="evenodd" stroke="#000000" stroke-linejoin="round" d="M137.329,77.761
		c-0.102,0.067-0.174,0.104-0.293,0.181c-7.596,4.85-16.457,14.311-17.365,26.103c-0.432,5.608,3.156,9.493,7.795,9.577
		c2.961,0.055,5.342-0.998,6.631-3.008c1.072-1.67,1.346-4.247,1.52-3.056c0.625,4.54-1.277,8.903-2.307,12.717
		c1.148-0.418,2.59-0.627,4.035-0.633h0.023c1.441,0.006,2.881,0.215,4.027,0.633c-1.027-3.813-2.926-8.177-2.303-12.717
		c0.174-1.191,0.445,1.386,1.516,3.056c1.289,2.01,3.672,3.063,6.631,3.008c4.639-0.084,8.227-3.969,7.795-9.577
		c-0.908-11.792-9.77-21.253-17.359-26.103c-0.082-0.062-0.154-0.1-0.273-0.181H137.329z"/>
	<path fill-rule="evenodd" clip-rule="evenodd" stroke="#000000" stroke-linejoin="round" d="M50.872,224.208
		c-0.102-0.067-0.174-0.104-0.293-0.181c-7.595-4.85-16.456-14.311-17.364-26.104c-0.432-5.611,3.155-9.496,7.794-9.58
		c2.961-0.055,5.342,0.998,6.632,3.008c1.072,1.671,1.346,4.248,1.52,3.057c0.625-4.541-1.277-8.906-2.307-12.721
		c1.147,0.418,2.59,0.627,4.034,0.633h0.023c1.442-0.006,2.882-0.215,4.027-0.633c-1.027,3.814-2.926,8.18-2.303,12.721
		c0.174,1.191,0.446-1.386,1.517-3.057c1.289-2.01,3.671-3.063,6.631-3.008c4.639,0.084,8.227,3.969,7.794,9.58
		c-0.908,11.793-9.77,21.254-17.358,26.104c-0.082,0.062-0.155,0.1-0.274,0.181H50.872z"/>
	<path fill-rule="evenodd" clip-rule="evenodd" stroke="#000000" stroke-linejoin="round" d="M137.329,224.208
		c-0.102-0.067-0.174-0.104-0.293-0.181c-7.594-4.85-16.455-14.311-17.363-26.104c-0.432-5.611,3.154-9.496,7.793-9.58
		c2.961-0.055,5.342,0.998,6.633,3.008c1.072,1.671,1.346,4.248,1.52,3.057c0.625-4.541-1.277-8.906-2.307-12.721
		c1.146,0.418,2.59,0.627,4.033,0.633h0.023c1.443-0.006,2.883-0.215,4.027-0.633c-1.027,3.814-2.926,8.18-2.303,12.721
		c0.174,1.191,0.447-1.386,1.518-3.057c1.289-2.01,3.67-3.063,6.631-3.008c4.639,0.084,8.227,3.969,7.793,9.58
		c-0.908,11.793-9.77,21.254-17.357,26.104c-0.082,0.062-0.156,0.1-0.275,0.181H137.329z"/>
	<path fill-rule="evenodd" clip-rule="evenodd" stroke="#000000" stroke-linejoin="round" d="M50.872,172.239
		c-0.102-0.067-0.174-0.104-0.293-0.181c-7.595-4.85-16.456-14.311-17.364-26.104c-0.432-5.611,3.155-9.496,7.794-9.58
		c2.961-0.055,5.342,0.998,6.632,3.008c1.072,1.671,1.346,4.248,1.52,3.057c0.625-4.541-1.277-8.906-2.307-12.721
		c1.147,0.418,2.59,0.627,4.034,0.633h0.023c1.442-0.006,2.882-0.215,4.027-0.633c-1.027,3.814-2.926,8.18-2.303,12.721
		c0.174,1.191,0.446-1.386,1.517-3.057c1.289-2.01,3.671-3.063,6.631-3.008c4.639,0.084,8.227,3.969,7.794,9.58
		c-0.908,11.793-9.77,21.254-17.358,26.104c-0.082,0.062-0.155,0.1-0.274,0.181H50.872z"/>
	<path fill-rule="evenodd" clip-rule="evenodd" stroke="#000000" stroke-linejoin="round" d="M94.101,195.861
		c-0.102-0.068-0.174-0.104-0.293-0.182c-7.595-4.85-16.456-14.311-17.364-26.104c-0.432-5.61,3.155-9.495,7.794-9.58
		c2.961-0.054,5.342,0.998,6.633,3.008c1.072,1.672,1.346,4.248,1.52,3.058c0.625-4.542-1.277-8.907-2.307-12.721
		c1.146,0.417,2.59,0.627,4.033,0.632h0.023c1.443-0.005,2.883-0.215,4.027-0.632c-1.027,3.813-2.926,8.179-2.303,12.721
		c0.174,1.19,0.447-1.386,1.518-3.058c1.289-2.01,3.67-3.062,6.631-3.008c4.639,0.085,8.227,3.97,7.793,9.58
		c-0.908,11.793-9.77,21.254-17.357,26.104c-0.082,0.063-0.156,0.1-0.275,0.182H94.101z"/>
	<path fill-rule="evenodd" clip-rule="evenodd" stroke="#000000" stroke-linejoin="round" d="M137.329,172.239
		c-0.102-0.067-0.174-0.104-0.293-0.181c-7.594-4.85-16.455-14.311-17.363-26.104c-0.432-5.611,3.154-9.496,7.793-9.58
		c2.961-0.055,5.342,0.998,6.633,3.008c1.072,1.671,1.346,4.248,1.52,3.057c0.625-4.541-1.277-8.906-2.307-12.721
		c1.146,0.418,2.59,0.627,4.033,0.633h0.023c1.443-0.006,2.883-0.215,4.027-0.633c-1.027,3.814-2.926,8.18-2.303,12.721
		c0.174,1.191,0.447-1.386,1.518-3.057c1.289-2.01,3.67-3.063,6.631-3.008c4.639,0.084,8.227,3.969,7.793,9.58
		c-0.908,11.793-9.77,21.254-17.357,26.104c-0.082,0.062-0.156,0.1-0.275,0.181H137.329z"/>
</g>
</svg>
