<?xml version="1.0" encoding="utf-8"?>
<!-- Generator: Adobe Illustrator 16.0.0, SVG Export Plug-In . SVG Version: 6.00 Build 0)  -->
<!DOCTYPE svg PUBLIC "-//W3C//DTD SVG 1.1//EN" "http://www.w3.org/Graphics/SVG/1.1/DTD/svg11.dtd">
<svg version="1.1" id="圖層_1" xmlns="http://www.w3.org/2000/svg" xmlns:xlink="http://www.w3.org/1999/xlink" x="0px" y="0px"
	 width="188.25px" height="250px" viewBox="0 0 188.25 250" enable-background="new 0 0 188.25 250" xml:space="preserve">
<g>
	<path display="none" fill="#F9FAF9" stroke="#000000" d="M183.416,235.551c0,7.828-6.346,14.174-14.174,14.174H19.006
		c-7.827,0-14.173-6.346-14.173-14.174V14.448c0-7.827,6.346-14.173,14.173-14.173h150.236c7.828,0,14.174,6.346,14.174,14.173
		V235.551L183.416,235.551z"/>
	<g>
		<path fill="#E13837" d="M21.563,42.895c-1.246-0.388-3.186,0.294-3.898,3.122c-0.059,0.154-0.121,0.151-0.178-0.006
			c-1.027-2.865-2.721-3.491-3.912-3.116c-1.766,0.568-3.194,2.672-3.064,5.356c0.036,4.684,4.229,7.043,7.059,11.523
			c2.83-4.479,7.068-6.832,7.082-11.537C24.895,45.525,23.375,43.453,21.563,42.895z"/>
		<path fill="#E13837" d="M17.588,59.803c-0.007-0.01-0.014-0.019-0.02-0.029c-0.006,0.01-0.013,0.019-0.02,0.029H17.588z"/>
	</g>
	<g>
		<path fill="#E13837" d="M170.682,190.225c-2.83,4.479-7.07,6.832-7.082,11.537c-0.246,2.713,1.273,4.785,3.086,5.344
			c1.246,0.388,3.187-0.295,3.898-3.123c0.061-0.153,0.123-0.149,0.178,0.006c1.029,2.865,2.723,3.49,3.912,3.117
			c1.766-0.568,3.195-2.674,3.064-5.356C177.703,197.064,173.512,194.704,170.682,190.225z"/>
		<path fill="#E13837" d="M170.662,190.195c0.006,0.011,0.014,0.02,0.02,0.027c0.006-0.009,0.012-0.018,0.019-0.027H170.662z"/>
	</g>
	<g>
		<path fill="#E13837" d="M94.125,181.691c0.016,0.025,0.033,0.05,0.049,0.074c0.016-0.024,0.031-0.049,0.047-0.074H94.125z"/>
		<path fill="#E13837" d="M111.82,210.572c-0.088-11.711-10.564-17.607-17.646-28.807c-7.076,11.198-17.671,17.078-17.701,28.84
			c-0.612,6.781,3.183,11.963,7.715,13.357c3.117,0.969,7.963-0.736,9.744-7.806c0.148-0.388,0.305-0.38,0.445,0.014
			c2.572,7.162,6.811,8.728,9.789,7.792C108.574,222.541,112.146,217.282,111.82,210.572z"/>
	</g>
	<g>
		<path fill="#E13837" d="M94.116,68.307c-0.016-0.025-0.031-0.049-0.047-0.074c-0.016,0.025-0.033,0.049-0.049,0.074H94.116z"/>
		<path fill="#E13837" d="M104.061,26.036c-3.117-0.969-7.971,0.735-9.75,7.805c-0.148,0.387-0.305,0.378-0.445-0.015
			c-2.568-7.162-6.803-8.727-9.779-7.79c-4.41,1.422-7.982,6.681-7.656,13.391c0.088,11.71,10.566,17.607,17.641,28.806
			c7.082-11.199,17.677-17.079,17.707-28.84C112.389,32.613,108.594,27.432,104.061,26.036z"/>
	</g>
	<path fill="#E13837" d="M24.655,34.771l-2.275-0.01l-0.01,1.448h-9.56c0.05-0.333,0.194-0.756,0.462-1.238
		c0.489-0.891,1.352-1.938,2.387-2.973c1.037-1.039,2.242-2.078,3.416-3.023l0.006-0.003l0.009-0.008
		c1.419-1.183,2.632-2.056,3.616-3.099c0.49-0.521,0.92-1.094,1.242-1.758c0.324-0.664,0.531-1.411,0.607-2.236
		c0.017-0.173,0.025-0.358,0.025-0.561c-0.001-0.561-0.066-1.239-0.254-1.972c-0.281-1.092-0.848-2.322-1.929-3.291
		c-1.079-0.973-2.651-1.607-4.676-1.601c-1.626-0.003-2.96,0.42-3.978,1.107c-0.765,0.513-1.344,1.161-1.77,1.829
		c-0.639,1.007-0.951,2.055-1.115,2.896c-0.163,0.842-0.176,1.483-0.177,1.694c0,0.038,0.001,0.063,0.001,0.072l1.974-0.053
		l0.304-0.004c0-0.003,0-0.008,0-0.016c-0.006-0.178,0.041-1.621,0.664-2.858c0.311-0.622,0.742-1.188,1.367-1.609
		c0.629-0.42,1.473-0.722,2.729-0.726c1.058,0.001,1.831,0.208,2.419,0.506c0.873,0.45,1.385,1.12,1.721,1.881
		c0.332,0.753,0.443,1.588,0.441,2.144c0,0.132-0.006,0.247-0.015,0.337c-0.056,0.576-0.185,1.017-0.38,1.42
		c-0.291,0.603-0.766,1.155-1.484,1.802c-0.715,0.643-1.656,1.359-2.762,2.276c-1.621,1.306-3.32,2.793-4.668,4.326
		c-0.674,0.769-1.262,1.549-1.705,2.352c-0.414,0.758-0.707,1.546-0.765,2.385h-0.009l-0.008,0.145c0,0.001,0,0.001,0,0.002l0,0
		v0.007l-0.006,2.181h14.156v-1.001V34.771z"/>
	<path fill="#E13837" d="M163.594,215.227l2.275,0.01l0.01-1.446h9.561c-0.051,0.333-0.194,0.756-0.463,1.237
		c-0.488,0.892-1.352,1.938-2.387,2.974c-1.035,1.039-2.242,2.078-3.416,3.022l-0.006,0.002l-0.008,0.009
		c-1.42,1.184-2.633,2.057-3.617,3.1c-0.49,0.521-0.92,1.095-1.242,1.759c-0.324,0.664-0.531,1.409-0.607,2.235
		c-0.016,0.172-0.024,0.358-0.024,0.562c0.002,0.561,0.065,1.238,0.254,1.972c0.281,1.091,0.849,2.321,1.931,3.291
		c1.078,0.973,2.651,1.606,4.676,1.601c1.625,0.004,2.959-0.42,3.977-1.107c0.766-0.512,1.344-1.16,1.77-1.829
		c0.64-1.007,0.951-2.054,1.115-2.896s0.178-1.482,0.178-1.693c0-0.038-0.002-0.063-0.002-0.072l-1.973,0.053l-0.305,0.004
		c0,0.004,0.002,0.008,0.002,0.016c0.006,0.179-0.043,1.621-0.666,2.858c-0.311,0.622-0.742,1.188-1.367,1.609
		c-0.629,0.42-1.473,0.722-2.729,0.726c-1.059-0.001-1.832-0.207-2.42-0.507c-0.873-0.448-1.385-1.119-1.721-1.88
		c-0.332-0.753-0.443-1.588-0.441-2.145c0-0.131,0.008-0.246,0.016-0.338c0.055-0.574,0.184-1.016,0.379-1.42
		c0.291-0.602,0.766-1.154,1.484-1.801c0.715-0.643,1.656-1.359,2.762-2.275c1.621-1.307,3.32-2.795,4.668-4.326
		c0.674-0.77,1.262-1.549,1.705-2.353c0.416-0.758,0.707-1.546,0.766-2.386h0.008l0.009-0.145c0,0,0,0,0-0.002l0,0v-0.006
		l0.006-2.182H163.59v1.001L163.594,215.227z"/>
</g>
</svg>
