<?xml version="1.0" encoding="utf-8"?>
<!-- Generator: Adobe Illustrator 16.0.0, SVG Export Plug-In . SVG Version: 6.00 Build 0)  -->
<!DOCTYPE svg PUBLIC "-//W3C//DTD SVG 1.1//EN" "http://www.w3.org/Graphics/SVG/1.1/DTD/svg11.dtd">
<svg version="1.1" id="圖層_1" xmlns="http://www.w3.org/2000/svg" xmlns:xlink="http://www.w3.org/1999/xlink" x="0px" y="0px"
	 width="188.25px" height="250px" viewBox="0 0 188.25 250" enable-background="new 0 0 188.25 250" xml:space="preserve">
<g>
	<path display="none" fill="#F9FAF9" stroke="#000000" d="M183.416,235.551c0,7.828-6.346,14.174-14.174,14.174H19.006
		c-7.827,0-14.173-6.346-14.173-14.174V14.448c0-7.827,6.346-14.173,14.173-14.173h150.236c7.828,0,14.174,6.346,14.174,14.173
		V235.551z"/>
	<g>
		<path fill="#E13837" d="M21.563,42.895c-1.246-0.388-3.186,0.294-3.898,3.122c-0.059,0.154-0.121,0.151-0.178-0.006
			c-1.027-2.865-2.721-3.49-3.912-3.116c-1.766,0.568-3.194,2.672-3.064,5.356c0.036,4.684,4.229,7.043,7.059,11.522
			c2.83-4.479,7.068-6.832,7.082-11.536C24.895,45.525,23.376,43.453,21.563,42.895z"/>
		<path fill="#E13837" d="M17.588,59.803c-0.006-0.01-0.014-0.02-0.02-0.029c-0.006,0.01-0.014,0.019-0.02,0.029H17.588z"/>
	</g>
	<g>
		<path fill="#E13837" d="M170.682,190.227c-2.832,4.479-7.07,6.833-7.082,11.536c-0.246,2.712,1.273,4.784,3.086,5.343
			c1.248,0.387,3.188-0.295,3.9-3.123c0.059-0.154,0.121-0.15,0.176,0.006c1.029,2.865,2.723,3.491,3.914,3.117
			c1.764-0.568,3.193-2.673,3.063-5.356C177.703,197.065,173.512,194.705,170.682,190.227z"/>
		<path fill="#E13837" d="M170.662,190.197c0.006,0.011,0.014,0.02,0.02,0.029c0.006-0.01,0.014-0.019,0.02-0.029H170.662z"/>
	</g>
	<g>
		<path fill="#E13837" d="M60.831,26.036c-3.117-0.969-7.964,0.735-9.745,7.805c-0.147,0.387-0.304,0.379-0.445-0.014
			c-2.569-7.162-6.804-8.727-9.782-7.791c-4.41,1.423-7.984,6.682-7.656,13.391C33.29,51.138,43.77,57.035,50.844,68.234
			c7.076-11.199,17.674-17.079,17.703-28.842C69.161,32.613,65.366,27.432,60.831,26.036z"/>
		<path fill="#E13837" d="M50.891,68.307c-0.016-0.024-0.031-0.048-0.047-0.072c-0.016,0.024-0.031,0.048-0.047,0.072H50.891z"/>
	</g>
	<g>
		<path fill="#E13837" d="M68.592,210.573c-0.088-11.711-10.568-17.608-17.644-28.807c-7.076,11.198-17.675,17.078-17.704,28.84
			c-0.613,6.78,3.184,11.962,7.717,13.357c3.117,0.968,7.965-0.735,9.746-7.806c0.148-0.387,0.305-0.379,0.445,0.014
			c2.57,7.163,6.804,8.728,9.782,7.792C65.346,222.541,68.918,217.283,68.592,210.573z"/>
		<path fill="#E13837" d="M50.901,181.692c0.016,0.025,0.032,0.049,0.048,0.074c0.016-0.025,0.032-0.049,0.048-0.074H50.901z"/>
	</g>
	<g>
		<path fill="#E13837" d="M137.348,65.472c-0.016-0.025-0.031-0.049-0.047-0.074c-0.016,0.025-0.033,0.049-0.049,0.074H137.348z"/>
		<path fill="#E13837" d="M147.287,23.201c-3.117-0.968-7.965,0.735-9.746,7.805c-0.148,0.388-0.305,0.379-0.445-0.014
			c-2.57-7.162-6.805-8.727-9.783-7.791c-4.41,1.423-7.984,6.682-7.656,13.391c0.088,11.711,10.568,17.608,17.645,28.806
			c7.076-11.198,17.674-17.079,17.703-28.84C155.617,29.778,151.82,24.597,147.287,23.201z"/>
	</g>
	<g>
		<path fill="#E13837" d="M155.049,210.574c-0.088-11.712-10.568-17.609-17.643-28.808c-7.076,11.198-17.676,17.078-17.705,28.84
			c-0.613,6.78,3.184,11.962,7.717,13.357c3.117,0.968,7.965-0.735,9.746-7.806c0.148-0.387,0.305-0.379,0.445,0.014
			c2.57,7.163,6.805,8.729,9.783,7.792C151.803,222.541,155.375,217.283,155.049,210.574z"/>
		<path fill="#E13837" d="M137.357,181.692c0.016,0.025,0.033,0.049,0.049,0.074c0.016-0.025,0.031-0.049,0.047-0.074H137.357z"/>
	</g>
	<path fill="#E13837" d="M24.676,32.406v-2.392h-2.979l-0.006-15.566l-2.236,0.001l0,0h-0.076l-8.877,15.565v2.392h8.961l0.002,3.74
		l-1.496,0.005l0.007,2.392l5.236-0.019l-0.008-2.392L21.7,36.138l-0.001-3.731H24.676z M13.122,30.015l6.336-11.134l0.005,11.134
		H13.122z"/>
	<path fill="#E13837" d="M163.572,217.592v2.393h2.979l0.006,15.566l2.236-0.001v-0.001l0.076,0.001l8.877-15.565v-2.393h-8.961
		l-0.002-3.739l1.496-0.005l-0.006-2.392l-5.236,0.019l0.008,2.392l1.504-0.005l0.002,3.73H163.572z M175.127,219.984l-6.336,11.134
		l-0.004-11.134H175.127z"/>
</g>
</svg>
