<?xml version="1.0" encoding="utf-8"?>
<!-- Generator: Adobe Illustrator 16.0.0, SVG Export Plug-In . SVG Version: 6.00 Build 0)  -->
<!DOCTYPE svg PUBLIC "-//W3C//DTD SVG 1.1//EN" "http://www.w3.org/Graphics/SVG/1.1/DTD/svg11.dtd">
<svg version="1.1" id="圖層_1" xmlns="http://www.w3.org/2000/svg" xmlns:xlink="http://www.w3.org/1999/xlink" x="0px" y="0px"
	 width="188.25px" height="250px" viewBox="0 0 188.25 250" enable-background="new 0 0 188.25 250" xml:space="preserve">
<g>
	<path display="none" fill="#F9FAF9" stroke="#000000" d="M183.417,235.551c0,7.828-6.346,14.174-14.174,14.174H19.007
		c-7.828,0-14.174-6.346-14.174-14.174V14.448c0-7.827,6.346-14.173,14.174-14.173h150.236c7.828,0,14.174,6.346,14.174,14.173
		V235.551z"/>
	<g>
		<path fill="#E13837" d="M17.587,59.803c-0.006-0.01-0.013-0.019-0.019-0.028c-0.006,0.009-0.013,0.018-0.019,0.028H17.587z"/>
		<path fill="#E13837" d="M21.563,42.895c-1.247-0.387-3.186,0.294-3.898,3.122c-0.06,0.154-0.122,0.151-0.178-0.006
			c-1.028-2.865-2.722-3.491-3.913-3.116c-1.765,0.569-3.194,2.673-3.063,5.356c0.035,4.685,4.228,7.043,7.058,11.524
			c2.83-4.48,7.069-6.833,7.081-11.538C24.896,45.525,23.376,43.453,21.563,42.895z"/>
	</g>
	<g>
		<path fill="#E13837" d="M170.683,190.225c-2.832,4.479-7.07,6.833-7.082,11.537c-0.246,2.712,1.273,4.785,3.086,5.344
			c1.246,0.387,3.186-0.295,3.898-3.123c0.061-0.154,0.123-0.15,0.178,0.006c1.029,2.865,2.723,3.49,3.913,3.117
			c1.765-0.569,3.194-2.673,3.063-5.357C177.704,197.065,173.512,194.704,170.683,190.225z"/>
		<path fill="#E13837" d="M170.663,190.196c0.006,0.01,0.013,0.019,0.02,0.028c0.006-0.01,0.013-0.019,0.019-0.028H170.663z"/>
	</g>
	<g>
		<path fill="#E13837" d="M60.831,23.201c-3.117-0.969-7.965,0.735-9.746,7.805c-0.147,0.388-0.305,0.379-0.445-0.014
			c-2.569-7.162-6.804-8.727-9.782-7.791c-4.41,1.423-7.984,6.682-7.656,13.392C33.288,48.303,43.77,54.2,50.845,65.398
			C57.92,54.2,68.519,48.32,68.548,36.559C69.161,29.778,65.365,24.598,60.831,23.201z"/>
		<path fill="#E13837" d="M50.892,65.472c-0.016-0.025-0.032-0.048-0.047-0.073c-0.016,0.025-0.032,0.048-0.048,0.073H50.892z"/>
	</g>
	<g>
		<path fill="#E13837" d="M50.901,181.691c0.016,0.024,0.032,0.048,0.047,0.073c0.016-0.025,0.032-0.049,0.048-0.073H50.901z"/>
		<path fill="#E13837" d="M68.592,210.572c-0.088-11.71-10.568-17.608-17.644-28.808c-7.075,11.199-17.674,17.08-17.703,28.841
			c-0.613,6.781,3.183,11.963,7.717,13.357c3.117,0.969,7.965-0.734,9.746-7.805c0.147-0.387,0.305-0.379,0.445,0.014
			c2.569,7.162,6.804,8.728,9.782,7.791C65.346,222.541,68.919,217.282,68.592,210.572z"/>
	</g>
	<g>
		<path fill="#E13837" d="M147.288,23.201c-3.118-0.969-7.965,0.736-9.746,7.805c-0.148,0.388-0.305,0.379-0.445-0.014
			c-2.57-7.162-6.805-8.727-9.782-7.791c-4.411,1.423-7.985,6.682-7.657,13.392c0.088,11.71,10.568,17.606,17.644,28.805
			c7.076-11.199,17.674-17.079,17.704-28.839C155.617,29.778,151.821,24.598,147.288,23.201z"/>
		<path fill="#E13837" d="M137.349,65.472c-0.016-0.025-0.032-0.049-0.048-0.074c-0.016,0.025-0.032,0.049-0.048,0.074H137.349z"/>
	</g>
	<g>
		<path fill="#E13837" d="M155.049,207.738c-0.088-11.711-10.569-17.609-17.644-28.809c-7.076,11.199-17.674,17.081-17.703,28.842
			c-0.613,6.78,3.183,11.961,7.716,13.357c3.118,0.967,7.965-0.736,9.747-7.805c0.147-0.388,0.304-0.38,0.444,0.014
			c2.569,7.162,6.804,8.727,9.783,7.791C151.802,219.705,155.376,214.447,155.049,207.738z"/>
		<path fill="#E13837" d="M137.358,178.857c0.016,0.024,0.031,0.048,0.047,0.072c0.016-0.024,0.031-0.048,0.047-0.072H137.358z"/>
	</g>
	<g>
		<path fill="#E13837" d="M104.062,103.988c-3.117-0.968-7.971,0.736-9.752,7.805c-0.148,0.387-0.305,0.378-0.445-0.015
			c-2.568-7.161-6.803-8.725-9.78-7.79c-4.409,1.423-7.982,6.681-7.655,13.39c0.088,11.716,10.566,17.612,17.641,28.809
			c7.082-11.196,17.678-17.075,17.707-28.843C112.39,110.564,108.595,105.385,104.062,103.988z"/>
		<path fill="#E13837" d="M94.116,146.26c-0.016-0.025-0.031-0.049-0.047-0.073c-0.016,0.024-0.032,0.048-0.048,0.073H94.116z"/>
	</g>
	<path fill="#E13837" d="M22.567,23.409c-1.312-1.622-3.192-2.676-5.287-2.675c-1.309-0.001-2.535,0.416-3.592,1.122l-0.003-5.032
		h9.365v-2.376H11.445v0.831h-0.012l0.007,9.733l2.251-0.002c0.757-1.088,2.402-1.899,3.589-1.901
		c1.368,0.002,2.622,0.675,3.579,1.846c0.951,1.17,1.566,2.828,1.565,4.684c0.001,1.854-0.614,3.513-1.565,4.683
		c-0.957,1.172-2.211,1.844-3.579,1.846c-1.012-0.001-1.95-0.367-2.767-1.027c-0.813-0.661-1.49-1.624-1.909-2.78l-2.102,0.851
		c0.559,1.537,1.469,2.859,2.636,3.811c1.166,0.95,2.601,1.523,4.142,1.522c0.001,0,0.003,0,0.005,0
		c2.093,0,3.972-1.055,5.282-2.675c1.318-1.624,2.107-3.822,2.108-6.229C24.675,27.231,23.886,25.032,22.567,23.409z"/>
	<path fill="#E13837" d="M165.683,226.59c1.311,1.621,3.192,2.676,5.286,2.675c1.31,0.001,2.536-0.416,3.592-1.122l0.003,5.031
		h-9.365v2.377h11.605v-0.831h0.012l-0.006-9.733l-2.251,0.002c-0.757,1.088-2.402,1.899-3.59,1.9
		c-1.368-0.001-2.622-0.674-3.578-1.846c-0.952-1.169-1.567-2.828-1.565-4.683c-0.002-1.854,0.613-3.513,1.565-4.683
		c0.956-1.172,2.21-1.844,3.578-1.846c1.013,0.001,1.95,0.367,2.767,1.027c0.813,0.661,1.49,1.624,1.91,2.78l2.102-0.851
		c-0.559-1.537-1.469-2.859-2.637-3.811c-1.165-0.95-2.601-1.523-4.142-1.522c-0.001,0-0.003,0-0.004,0
		c-2.093,0-3.972,1.055-5.282,2.675c-1.318,1.623-2.107,3.822-2.109,6.229C163.575,222.768,164.364,224.967,165.683,226.59z"/>
</g>
</svg>
