<?xml version="1.0" encoding="utf-8"?>
<!-- Generator: Adobe Illustrator 16.0.0, SVG Export Plug-In . SVG Version: 6.00 Build 0)  -->
<!DOCTYPE svg PUBLIC "-//W3C//DTD SVG 1.1//EN" "http://www.w3.org/Graphics/SVG/1.1/DTD/svg11.dtd">
<svg version="1.1" id="圖層_1" xmlns="http://www.w3.org/2000/svg" xmlns:xlink="http://www.w3.org/1999/xlink" x="0px" y="0px"
	 width="188.25px" height="250px" viewBox="0 0 188.25 250" enable-background="new 0 0 188.25 250" xml:space="preserve">
<g>
	<path display="none" fill="#F9FAF9" stroke="#000000" d="M183.416,235.552c0,7.827-6.346,14.173-14.174,14.173H19.006
		c-7.827,0-14.173-6.346-14.173-14.173V14.449c0-7.828,6.346-14.174,14.173-14.174h150.236c7.828,0,14.174,6.346,14.174,14.174
		V235.552z"/>
	<g>
		<path fill="#E13837" d="M21.563,42.896c-1.247-0.388-3.186,0.294-3.898,3.122c-0.06,0.154-0.122,0.151-0.178-0.006
			c-1.028-2.865-2.722-3.491-3.913-3.116c-1.764,0.568-3.193,2.672-3.063,5.355c0.035,4.685,4.227,7.045,7.057,11.523
			c2.83-4.479,7.069-6.831,7.082-11.537C24.895,45.525,23.376,43.453,21.563,42.896z"/>
		<path fill="#E13837" d="M17.587,59.804c-0.006-0.01-0.013-0.02-0.02-0.029c-0.006,0.01-0.012,0.02-0.019,0.029H17.587z"/>
	</g>
	<g>
		<path fill="#E13837" d="M170.662,190.197c0.006,0.01,0.014,0.019,0.02,0.028c0.006-0.01,0.012-0.019,0.018-0.028H170.662z"/>
		<path fill="#E13837" d="M170.682,190.226c-2.83,4.48-7.07,6.832-7.082,11.537c-0.246,2.713,1.273,4.785,3.086,5.344
			c1.246,0.387,3.186-0.295,3.898-3.123c0.061-0.154,0.123-0.15,0.18,0.006c1.027,2.865,2.721,3.49,3.91,3.117
			c1.766-0.569,3.195-2.674,3.064-5.357C177.703,197.065,173.512,194.706,170.682,190.226z"/>
	</g>
	<g>
		<path fill="#E13837" d="M50.891,65.473c-0.016-0.024-0.032-0.048-0.048-0.073c-0.016,0.025-0.031,0.049-0.047,0.073H50.891z"/>
		<path fill="#E13837" d="M60.831,23.202c-3.117-0.969-7.964,0.735-9.746,7.805c-0.147,0.388-0.304,0.379-0.445-0.014
			c-2.569-7.162-6.804-8.727-9.782-7.791c-4.41,1.423-7.984,6.682-7.656,13.391c0.088,11.711,10.568,17.608,17.643,28.807
			c7.076-11.198,17.674-17.078,17.704-28.84C69.161,29.779,65.365,24.598,60.831,23.202z"/>
	</g>
	<g>
		<path fill="#E13837" d="M50.901,181.694c0.016,0.024,0.032,0.049,0.048,0.073c0.016-0.024,0.031-0.049,0.047-0.073H50.901z"/>
		<path fill="#E13837" d="M68.591,210.573c-0.088-11.711-10.567-17.607-17.643-28.806c-7.076,11.198-17.674,17.078-17.704,28.839
			c-0.613,6.781,3.183,11.962,7.717,13.357c3.117,0.969,7.965-0.734,9.746-7.805c0.147-0.387,0.305-0.379,0.445,0.014
			c2.569,7.162,6.804,8.728,9.782,7.791C65.345,222.542,68.919,217.283,68.591,210.573z"/>
	</g>
	<g>
		<path fill="#E13837" d="M137.348,144.843c-0.016-0.025-0.031-0.049-0.047-0.074c-0.016,0.025-0.033,0.049-0.049,0.074H137.348z"/>
		<path fill="#E13837" d="M147.287,102.572c-3.117-0.968-7.965,0.735-9.746,7.804c-0.148,0.387-0.305,0.378-0.445-0.015
			c-2.57-7.161-6.803-8.725-9.783-7.789c-4.41,1.423-7.984,6.68-7.656,13.388c0.088,11.716,10.568,17.613,17.645,28.809
			c7.076-11.195,17.674-17.077,17.703-28.842C155.617,109.147,151.82,103.968,147.287,102.572z"/>
	</g>
	<g>
		<path fill="#E13837" d="M147.287,23.202c-3.117-0.969-7.965,0.735-9.746,7.805c-0.148,0.387-0.305,0.379-0.445-0.014
			c-2.57-7.162-6.805-8.727-9.783-7.791c-4.41,1.423-7.984,6.682-7.656,13.391c0.088,11.711,10.568,17.607,17.645,28.807
			c7.076-11.198,17.672-17.079,17.703-28.841C155.617,29.779,151.82,24.598,147.287,23.202z"/>
		<path fill="#E13837" d="M137.348,65.473c-0.016-0.024-0.031-0.049-0.047-0.073c-0.016,0.024-0.033,0.049-0.049,0.073H137.348z"/>
	</g>
	<g>
		<path fill="#E13837" d="M137.357,181.694c0.016,0.024,0.031,0.048,0.047,0.072c0.016-0.024,0.031-0.048,0.047-0.072H137.357z"/>
		<path fill="#E13837" d="M155.049,210.573c-0.088-11.711-10.568-17.608-17.645-28.807c-7.074,11.198-17.674,17.078-17.703,28.84
			c-0.613,6.781,3.184,11.962,7.717,13.357c3.117,0.969,7.965-0.734,9.746-7.805c0.148-0.387,0.305-0.379,0.445,0.014
			c2.57,7.162,6.803,8.728,9.783,7.791C151.803,222.542,155.375,217.283,155.049,210.573z"/>
	</g>
	<g>
		<path fill="#E13837" d="M50.891,144.843c-0.016-0.024-0.032-0.049-0.048-0.073c-0.016,0.024-0.031,0.049-0.047,0.073H50.891z"/>
		<path fill="#E13837" d="M60.831,102.572c-3.117-0.968-7.965,0.735-9.746,7.804c-0.147,0.387-0.304,0.378-0.445-0.014
			c-2.569-7.162-6.804-8.726-9.782-7.79c-4.41,1.423-7.984,6.68-7.656,13.39c0.088,11.717,10.567,17.611,17.643,28.808
			c7.076-11.195,17.674-17.076,17.704-28.843C69.161,109.147,65.365,103.968,60.831,102.572z"/>
	</g>
	<path fill="#E13837" d="M22.852,23.769c-0.604-0.793-1.358-1.445-2.235-1.893c-0.875-0.448-1.871-0.689-2.94-0.689
		c-0.029,0.001-0.055,0.001-0.076,0.001c-1.074,0.011-2.074,0.283-2.949,0.768c-0.581,0.321-1.1,0.737-1.562,1.219
		c0.042-0.248,0.084-0.488,0.127-0.708c0.133-0.678,0.264-1.215,0.359-1.577c0.049-0.181,0.088-0.318,0.115-0.408
		c0.014-0.044,0.023-0.077,0.029-0.098c0.004-0.011,0.006-0.018,0.007-0.021c0-0.002,0.001-0.002,0.001-0.002v-0.002l0.011-0.029
		l0.007-0.026l0.002-0.006l0,0c0.022-0.083,0.296-0.937,0.912-1.736c0.319-0.416,0.727-0.819,1.237-1.128s1.129-0.53,1.924-0.575
		c0.111-0.006,0.218-0.009,0.323-0.009c1.412,0.004,2.34,0.502,2.951,0.986c0.305,0.243,0.523,0.484,0.66,0.656
		c0.068,0.086,0.115,0.153,0.145,0.194c0.013,0.021,0.021,0.034,0.024,0.039c0.002,0.003,0.002,0.003,0.002,0.003l0.544-0.387
		l1.304-0.895c-0.053-0.091-0.478-0.818-1.392-1.551c-0.908-0.731-2.332-1.45-4.238-1.446c-0.141,0-0.284,0.004-0.432,0.012
		c-1.155,0.062-2.146,0.416-2.946,0.917c-1.203,0.753-1.97,1.803-2.44,2.649c-0.428,0.773-0.618,1.393-0.664,1.55
		c-0.113,0.36-1.157,3.746-1.159,8.375c0,0.851,0.044,1.749,0.128,2.672c0.096,2.108,0.758,4.013,1.899,5.436
		c1.227,1.539,3.025,2.484,5.059,2.484c0.007,0,0.015,0,0.022,0c1.07,0,2.071-0.255,2.951-0.723
		c1.324-0.699,2.363-1.864,3.057-3.267c0.695-1.405,1.056-3.053,1.057-4.785C24.674,27.483,24.06,25.359,22.852,23.769z
		 M21.126,34.342c-0.426,0.565-0.933,1.01-1.514,1.318c-0.582,0.308-1.244,0.483-2.002,0.483c-1.443-0.006-2.59-0.621-3.441-1.67
		c-0.745-0.929-1.244-2.226-1.351-3.763l0.011-0.001c-0.01-0.094-0.012-0.182-0.021-0.274c-0.005-0.114-0.013-0.227-0.013-0.344
		c-0.002-1.828,0.502-3.485,1.343-4.64c0.421-0.578,0.921-1.035,1.496-1.354c0.576-0.317,1.229-0.502,1.985-0.511
		c0.021,0,0.041,0,0.056,0c0.776,0.001,1.441,0.17,2.019,0.464c0.862,0.443,1.544,1.174,2.032,2.152
		c0.485,0.978,0.763,2.204,0.763,3.566C22.491,31.592,21.976,33.215,21.126,34.342z"/>
	<path fill="#E13837" d="M165.396,226.231c0.604,0.793,1.359,1.445,2.234,1.893c0.877,0.449,1.871,0.689,2.941,0.689
		c0.029,0,0.055,0,0.076,0c1.074-0.012,2.074-0.284,2.949-0.769c0.58-0.321,1.1-0.737,1.561-1.218
		c-0.041,0.248-0.084,0.487-0.127,0.707c-0.131,0.678-0.262,1.215-0.357,1.577c-0.051,0.181-0.09,0.318-0.115,0.409
		c-0.014,0.043-0.023,0.076-0.029,0.098c-0.004,0.01-0.008,0.018-0.008,0.02s-0.002,0.002-0.002,0.002v0.002l-0.01,0.029
		l-0.006,0.027l-0.002,0.005v0.001c-0.023,0.082-0.297,0.936-0.912,1.735c-0.32,0.417-0.727,0.819-1.238,1.128
		s-1.129,0.531-1.924,0.576c-0.111,0.006-0.219,0.008-0.322,0.008c-1.412-0.004-2.34-0.502-2.953-0.986
		c-0.303-0.242-0.523-0.484-0.66-0.656c-0.066-0.086-0.115-0.153-0.143-0.193c-0.014-0.021-0.021-0.035-0.025-0.04
		c-0.002-0.003-0.002-0.003-0.002-0.003l-0.543,0.387l-1.305,0.895c0.053,0.091,0.479,0.818,1.391,1.551
		c0.91,0.732,2.334,1.451,4.24,1.447c0.139,0,0.283-0.004,0.432-0.013c1.154-0.062,2.146-0.415,2.945-0.917
		c1.203-0.752,1.971-1.803,2.439-2.648c0.428-0.774,0.619-1.393,0.664-1.551c0.113-0.359,1.158-3.746,1.16-8.375
		c0-0.85-0.043-1.748-0.127-2.672c-0.096-2.107-0.758-4.012-1.9-5.436c-1.227-1.539-3.025-2.484-5.059-2.484
		c-0.008,0-0.016,0-0.021,0c-1.072,0-2.072,0.256-2.953,0.723c-1.322,0.699-2.361,1.865-3.055,3.268
		c-0.695,1.404-1.057,3.053-1.059,4.785C163.574,222.517,164.188,224.642,165.396,226.231z M167.123,215.659
		c0.426-0.566,0.932-1.01,1.514-1.319c0.582-0.308,1.242-0.483,2.002-0.483c1.441,0.006,2.59,0.621,3.439,1.67
		c0.746,0.93,1.246,2.227,1.352,3.764h-0.012c0.01,0.094,0.014,0.182,0.021,0.275c0.004,0.113,0.014,0.227,0.014,0.344
		c0.002,1.828-0.504,3.484-1.344,4.639c-0.42,0.578-0.92,1.035-1.496,1.354c-0.576,0.317-1.23,0.502-1.984,0.511
		c-0.023,0-0.041,0-0.057,0c-0.775,0-1.441-0.17-2.018-0.464c-0.863-0.442-1.545-1.173-2.033-2.151
		c-0.486-0.979-0.762-2.205-0.762-3.566C165.758,218.409,166.273,216.786,167.123,215.659z"/>
</g>
</svg>
