<?xml version="1.0" encoding="utf-8"?>
<!-- Generator: Adobe Illustrator 16.0.0, SVG Export Plug-In . SVG Version: 6.00 Build 0)  -->
<!DOCTYPE svg PUBLIC "-//W3C//DTD SVG 1.1//EN" "http://www.w3.org/Graphics/SVG/1.1/DTD/svg11.dtd">
<svg version="1.1" id="圖層_1" xmlns="http://www.w3.org/2000/svg" xmlns:xlink="http://www.w3.org/1999/xlink" x="0px" y="0px"
	 width="188.25px" height="250px" viewBox="0 0 188.25 250" enable-background="new 0 0 188.25 250" xml:space="preserve">
<g>
	<path display="none" fill="#F9FAF9" stroke="#000000" d="M183.416,235.551c0,7.828-6.346,14.174-14.174,14.174H19.006
		c-7.826,0-14.172-6.346-14.172-14.174V14.448c0-7.827,6.346-14.173,14.172-14.173h150.236c7.828,0,14.174,6.346,14.174,14.173
		V235.551z"/>
	<path fill-rule="evenodd" clip-rule="evenodd" stroke="#000000" stroke-width="0.1625" stroke-linejoin="round" d="M94.102,25.787
		c-0.104,0.067-0.176,0.104-0.293,0.181c-7.596,4.85-16.457,14.311-17.365,26.104c-0.432,5.61,3.156,9.494,7.793,9.579
		c2.961,0.054,5.342-0.998,6.633-3.007c1.072-1.672,1.346-4.248,1.52-3.058c0.625,4.541-1.277,8.906-2.307,12.72
		c1.148-0.417,2.59-0.627,4.033-0.632h0.025c1.441,0.005,2.88,0.215,4.027,0.632c-1.029-3.813-2.928-8.179-2.303-12.72
		c0.172-1.19,0.445,1.386,1.516,3.058c1.289,2.009,3.67,3.061,6.631,3.007c4.639-0.085,8.227-3.969,7.795-9.579
		c-0.91-11.794-9.77-21.255-17.359-26.104c-0.082-0.062-0.154-0.099-0.273-0.181H94.102z"/>
	<path fill-rule="evenodd" clip-rule="evenodd" stroke="#000000" stroke-width="0.1625" stroke-linejoin="round" d="M94.102,224.213
		c-0.104-0.067-0.176-0.104-0.293-0.181c-7.596-4.85-16.457-14.311-17.365-26.104c-0.432-5.61,3.156-9.495,7.793-9.58
		c2.961-0.054,5.342,0.998,6.633,3.008c1.072,1.671,1.346,4.248,1.52,3.058c0.625-4.542-1.277-8.907-2.307-12.721
		c1.148,0.417,2.59,0.627,4.033,0.632h0.025c1.441-0.005,2.88-0.215,4.027-0.632c-1.029,3.813-2.928,8.179-2.303,12.721
		c0.172,1.19,0.445-1.387,1.516-3.058c1.289-2.01,3.67-3.062,6.631-3.008c4.639,0.085,8.227,3.97,7.795,9.58
		c-0.91,11.793-9.77,21.254-17.359,26.104c-0.082,0.063-0.154,0.1-0.273,0.181H94.102z"/>
	<path fill-rule="evenodd" clip-rule="evenodd" stroke="#000000" stroke-width="0.065" stroke-linejoin="round" d="M17.581,42.795
		c-0.041,0.027-0.07,0.042-0.117,0.072c-3.037,1.94-6.582,5.725-6.945,10.441c-0.174,2.244,1.262,3.798,3.117,3.832
		c1.184,0.021,2.137-0.399,2.652-1.203c0.43-0.668,0.539-1.699,0.607-1.223c0.25,1.816-0.51,3.563-0.922,5.088
		c0.459-0.167,1.035-0.251,1.613-0.253h0.01c0.576,0.002,1.152,0.086,1.611,0.253c-0.412-1.525-1.17-3.271-0.922-5.088
		c0.07-0.477,0.18,0.555,0.607,1.223c0.516,0.804,1.469,1.225,2.652,1.203c1.855-0.034,3.291-1.588,3.117-3.832
		c-0.363-4.717-3.908-8.501-6.943-10.441c-0.033-0.024-0.063-0.039-0.109-0.072H17.581z"/>
	<path fill-rule="evenodd" clip-rule="evenodd" stroke="#000000" stroke-width="0.065" stroke-linejoin="round" d="M170.65,207.205
		c-0.041-0.026-0.07-0.041-0.117-0.072c-3.037-1.939-6.582-5.724-6.945-10.441c-0.174-2.244,1.262-3.798,3.117-3.832
		c1.184-0.021,2.137,0.399,2.652,1.203c0.43,0.669,0.539,1.699,0.607,1.223c0.25-1.816-0.51-3.563-0.922-5.088
		c0.459,0.167,1.035,0.251,1.613,0.253h0.01c0.576-0.002,1.152-0.086,1.611-0.253c-0.412,1.525-1.17,3.271-0.922,5.088
		c0.07,0.477,0.18-0.554,0.607-1.223c0.516-0.804,1.469-1.225,2.652-1.203c1.855,0.034,3.291,1.588,3.117,3.832
		c-0.363,4.718-3.908,8.502-6.943,10.441c-0.033,0.025-0.063,0.04-0.109,0.072H170.65z"/>
	<path d="M24.672,34.772l-2.277-0.01l-0.01,1.448l-9.572-0.001c0.051-0.333,0.195-0.755,0.463-1.237
		c0.49-0.892,1.354-1.938,2.391-2.974c1.037-1.038,2.244-2.077,3.42-3.022l0.006-0.003l0.008-0.008
		c1.422-1.183,2.635-2.057,3.621-3.099c0.49-0.521,0.922-1.094,1.244-1.759c0.324-0.664,0.531-1.41,0.607-2.235
		c0.018-0.173,0.025-0.358,0.025-0.561c0-0.562-0.066-1.24-0.254-1.972c-0.281-1.092-0.848-2.322-1.932-3.292
		c-1.08-0.973-2.654-1.607-4.682-1.6c-1.627-0.003-2.963,0.419-3.982,1.107c-0.766,0.513-1.344,1.16-1.771,1.829
		c-0.639,1.006-0.951,2.054-1.117,2.895c-0.162,0.842-0.176,1.483-0.176,1.694c0,0.039,0,0.063,0,0.072l1.977-0.053l0.305-0.004
		c0-0.002-0.002-0.007-0.002-0.016c-0.006-0.178,0.043-1.62,0.668-2.858c0.309-0.622,0.742-1.188,1.367-1.609
		c0.629-0.419,1.475-0.722,2.732-0.726c1.061,0.002,1.834,0.208,2.422,0.507c0.875,0.449,1.389,1.12,1.725,1.88
		c0.332,0.753,0.443,1.588,0.441,2.145c0,0.132-0.008,0.246-0.016,0.337c-0.055,0.576-0.184,1.016-0.379,1.42
		c-0.291,0.602-0.768,1.155-1.488,1.802c-0.715,0.643-1.656,1.359-2.764,2.275c-1.623,1.306-3.324,2.794-4.674,4.326
		c-0.674,0.77-1.264,1.549-1.707,2.353c-0.416,0.757-0.707,1.546-0.766,2.385h-0.008l-0.008,0.145c0,0,0,0.001,0,0.002l0,0
		l-0.002,0.006l-0.006,2.182h14.174v-1.001L24.672,34.772z"/>
	<path d="M163.576,215.228l2.279,0.01l0.01-1.447h9.572c-0.051,0.332-0.195,0.755-0.465,1.238c-0.488,0.891-1.352,1.937-2.389,2.973
		c-1.037,1.039-2.244,2.077-3.42,3.022l-0.006,0.003l-0.008,0.008c-1.422,1.183-2.637,2.057-3.623,3.099
		c-0.488,0.521-0.92,1.094-1.242,1.759c-0.324,0.664-0.531,1.41-0.609,2.235c-0.016,0.173-0.023,0.358-0.023,0.562
		c0,0.561,0.066,1.238,0.254,1.971c0.279,1.092,0.848,2.322,1.932,3.291c1.078,0.973,2.654,1.607,4.682,1.602
		c1.627,0.002,2.963-0.42,3.982-1.107c0.766-0.514,1.344-1.162,1.771-1.83c0.639-1.006,0.951-2.055,1.115-2.895
		c0.164-0.842,0.178-1.484,0.178-1.695c0-0.037,0-0.063,0-0.072l-1.977,0.053l-0.305,0.004c0,0.003,0,0.008,0,0.016
		c0.006,0.178-0.041,1.621-0.666,2.859c-0.311,0.621-0.742,1.188-1.369,1.609c-0.629,0.419-1.475,0.721-2.73,0.725
		c-1.061-0.001-1.836-0.207-2.424-0.506c-0.873-0.449-1.387-1.12-1.723-1.881c-0.332-0.752-0.443-1.588-0.441-2.143
		c0-0.133,0.006-0.248,0.016-0.338c0.055-0.576,0.184-1.016,0.379-1.42c0.291-0.602,0.766-1.154,1.486-1.802
		c0.717-0.643,1.658-1.359,2.766-2.276c1.623-1.305,3.324-2.793,4.674-4.326c0.674-0.768,1.262-1.549,1.707-2.352
		c0.416-0.758,0.707-1.545,0.766-2.385h0.008l0.008-0.145c0,0,0-0.001,0-0.002l0,0v-0.006l0.006-2.182h-14.172v1.001
		L163.576,215.228z"/>
</g>
</svg>
