<?xml version="1.0" encoding="utf-8"?>
<!-- Generator: Adobe Illustrator 16.0.0, SVG Export Plug-In . SVG Version: 6.00 Build 0)  -->
<!DOCTYPE svg PUBLIC "-//W3C//DTD SVG 1.1//EN" "http://www.w3.org/Graphics/SVG/1.1/DTD/svg11.dtd">
<svg version="1.1" id="圖層_1" xmlns="http://www.w3.org/2000/svg" xmlns:xlink="http://www.w3.org/1999/xlink" x="0px" y="0px"
	 width="188.25px" height="250px" viewBox="0 0 188.25 250" enable-background="new 0 0 188.25 250" xml:space="preserve">
<g>
	<path display="none" fill="#F9FAF9" stroke="#000000" d="M183.416,235.551c0,7.828-6.346,14.174-14.174,14.174H19.006
		c-7.827,0-14.173-6.346-14.173-14.174V14.449c0-7.828,6.346-14.174,14.173-14.174h150.236c7.828,0,14.174,6.346,14.174,14.174
		V235.551z"/>
	<g>
		<path fill="#E13837" d="M17.587,59.803c-0.006-0.01-0.013-0.019-0.019-0.028c-0.006,0.01-0.013,0.019-0.02,0.028H17.587z"/>
		<path fill="#E13837" d="M21.563,42.895c-1.246-0.387-3.186,0.295-3.898,3.122c-0.059,0.155-0.121,0.151-0.178-0.006
			c-1.028-2.864-2.721-3.49-3.912-3.116c-1.766,0.569-3.195,2.673-3.064,5.356c0.035,4.685,4.229,7.044,7.059,11.523
			c2.83-4.479,7.068-6.832,7.08-11.537C24.895,45.525,23.375,43.453,21.563,42.895z"/>
	</g>
	<g>
		<path fill="#E13837" d="M170.66,190.196c0.008,0.01,0.014,0.02,0.02,0.029c0.008-0.01,0.014-0.02,0.02-0.029H170.66z"/>
		<path fill="#E13837" d="M170.68,190.226c-2.83,4.479-7.068,6.832-7.082,11.536c-0.244,2.713,1.273,4.785,3.086,5.344
			c1.248,0.387,3.188-0.295,3.9-3.123c0.059-0.154,0.121-0.15,0.178,0.006c1.027,2.865,2.721,3.49,3.912,3.117
			c1.766-0.569,3.193-2.674,3.063-5.357C177.701,197.065,173.51,194.705,170.68,190.226z"/>
	</g>
	<g>
		<path fill="#E13837" d="M60.831,23.202c-3.117-0.97-7.965,0.735-9.746,7.805c-0.148,0.387-0.305,0.378-0.445-0.015
			c-2.57-7.162-6.804-8.727-9.782-7.79c-4.41,1.422-7.983,6.681-7.657,13.391c0.088,11.711,10.568,17.608,17.644,28.807
			c7.076-11.198,17.674-17.078,17.704-28.841C69.161,29.779,65.364,24.598,60.831,23.202z"/>
		<path fill="#E13837" d="M50.891,65.473c-0.016-0.025-0.032-0.049-0.048-0.073c-0.016,0.024-0.032,0.048-0.048,0.073H50.891z"/>
	</g>
	<g>
		<path fill="#E13837" d="M68.591,210.572c-0.088-11.711-10.567-17.607-17.644-28.807c-7.075,11.198-17.674,17.079-17.703,28.84
			c-0.613,6.781,3.184,11.962,7.717,13.357c3.117,0.969,7.965-0.734,9.746-7.805c0.148-0.387,0.305-0.379,0.445,0.014
			c2.569,7.162,6.803,8.728,9.783,7.791C65.344,222.541,68.918,217.282,68.591,210.572z"/>
		<path fill="#E13837" d="M50.901,181.692c0.016,0.024,0.031,0.049,0.047,0.073c0.016-0.024,0.031-0.049,0.047-0.073H50.901z"/>
	</g>
	<g>
		<path fill="#E13837" d="M137.348,146.26c-0.016-0.025-0.031-0.049-0.047-0.074c-0.016,0.025-0.033,0.049-0.049,0.074H137.348z"/>
		<path fill="#E13837" d="M147.287,103.989c-3.117-0.969-7.965,0.735-9.746,7.804c-0.148,0.387-0.305,0.379-0.445-0.014
			c-2.57-7.162-6.803-8.726-9.783-7.79c-4.41,1.423-7.982,6.681-7.656,13.39c0.088,11.714,10.568,17.609,17.645,28.807
			c7.076-11.197,17.674-17.077,17.703-28.842C155.617,110.564,151.82,105.385,147.287,103.989z"/>
	</g>
	<g>
		<path fill="#E13837" d="M137.348,65.473c-0.016-0.024-0.031-0.049-0.047-0.073c-0.016,0.024-0.033,0.049-0.049,0.073H137.348z"/>
		<path fill="#E13837" d="M147.287,23.202c-3.117-0.969-7.965,0.735-9.746,7.805c-0.148,0.387-0.305,0.379-0.445-0.014
			c-2.57-7.162-6.805-8.727-9.781-7.791c-4.41,1.423-7.984,6.682-7.658,13.391c0.088,11.711,10.568,17.607,17.645,28.807
			c7.076-11.198,17.674-17.079,17.703-28.841C155.617,29.779,151.822,24.598,147.287,23.202z"/>
	</g>
	<g>
		<path fill="#E13837" d="M155.049,210.572c-0.088-11.711-10.568-17.607-17.643-28.807c-7.076,11.198-17.676,17.079-17.705,28.84
			c-0.613,6.781,3.184,11.962,7.717,13.357c3.117,0.969,7.965-0.734,9.746-7.805c0.148-0.387,0.305-0.379,0.445,0.014
			c2.57,7.162,6.803,8.728,9.783,7.791C151.803,222.541,155.375,217.282,155.049,210.572z"/>
		<path fill="#E13837" d="M137.357,181.692c0.016,0.024,0.033,0.049,0.049,0.073c0.016-0.024,0.031-0.049,0.047-0.073H137.357z"/>
	</g>
	<g>
		<path fill="#E13837" d="M60.831,103.989c-3.117-0.969-7.965,0.735-9.746,7.804c-0.148,0.387-0.305,0.379-0.445-0.014
			c-2.57-7.162-6.805-8.726-9.783-7.79c-4.41,1.423-7.982,6.681-7.656,13.39c0.088,11.714,10.568,17.609,17.644,28.808
			c7.076-11.198,17.674-17.078,17.704-28.842C69.161,110.564,65.364,105.385,60.831,103.989z"/>
		<path fill="#E13837" d="M50.891,146.26c-0.016-0.024-0.031-0.049-0.048-0.073c-0.016,0.024-0.032,0.049-0.048,0.073H50.891z"/>
	</g>
	<g>
		<path fill="#E13837" d="M104.061,57.217c-3.117-0.969-7.971,0.736-9.751,7.806c-0.148,0.387-0.305,0.378-0.445-0.015
			c-2.568-7.162-6.803-8.727-9.779-7.791c-4.41,1.423-7.982,6.682-7.655,13.392c0.087,11.711,10.565,17.607,17.64,28.806
			c7.082-11.198,17.677-17.079,17.707-28.84C112.389,63.794,108.594,58.613,104.061,57.217z"/>
		<path fill="#E13837" d="M94.116,99.487c-0.016-0.024-0.031-0.049-0.047-0.073c-0.016,0.024-0.033,0.049-0.049,0.073H94.116z"/>
	</g>
	<path fill="#E13837" d="M10.504,14.448v1.442h-0.002v2.452l2.227-0.002l-0.002-1.486h9.346c-1.449,2.657-5.354,10.628-6.766,21.688
		l2.238-0.001c0.83-6.522,2.254-11.627,3.879-15.41c0.813-1.892,1.572-3.373,2.125-4.375c0.277-0.501,0.502-0.883,0.656-1.136
		c0.16-0.266,0.432-0.705,0.471-0.767v-2.406H10.504z"/>
	<path fill="#E13837" d="M177.744,235.551v-1.442h0.002v-2.452l-2.227,0.002l0.002,1.486h-9.346
		c1.449-2.656,5.354-10.628,6.766-21.688l-2.238,0.001c-0.83,6.523-2.252,11.627-3.879,15.41c-0.813,1.892-1.572,3.373-2.125,4.375
		c-0.277,0.501-0.502,0.883-0.654,1.136c-0.162,0.266-0.434,0.705-0.473,0.767v2.406H177.744z"/>
</g>
</svg>
