<?xml version="1.0" encoding="utf-8"?>
<!-- Generator: Adobe Illustrator 16.0.0, SVG Export Plug-In . SVG Version: 6.00 Build 0)  -->
<!DOCTYPE svg PUBLIC "-//W3C//DTD SVG 1.1//EN" "http://www.w3.org/Graphics/SVG/1.1/DTD/svg11.dtd">
<svg version="1.1" id="圖層_1" xmlns="http://www.w3.org/2000/svg" xmlns:xlink="http://www.w3.org/1999/xlink" x="0px" y="0px"
	 width="188.25px" height="250px" viewBox="0 0 188.25 250" enable-background="new 0 0 188.25 250" xml:space="preserve">
<g>
	<path display="none" fill="#F9FAF9" stroke="#000000" d="M183.416,235.549c0,7.828-6.346,14.174-14.174,14.174H19.007
		c-7.827,0-14.173-6.346-14.173-14.174V14.451c0-7.828,6.346-14.174,14.173-14.174h150.235c7.828,0,14.174,6.346,14.174,14.174
		V235.549z"/>
	<g>
		<path fill="#E13837" d="M170.68,190.225c-2.83,4.479-7.069,6.831-7.08,11.535c-0.245,2.713,1.275,4.785,3.085,5.344
			c1.246,0.387,3.187-0.295,3.899-3.123c0.059-0.154,0.121-0.151,0.178,0.006c1.025,2.865,2.722,3.49,3.912,3.117
			c1.766-0.569,3.194-2.673,3.064-5.357C177.7,197.063,173.51,194.703,170.68,190.225z"/>
		<path fill="#E13837" d="M170.66,190.195c0.007,0.01,0.013,0.02,0.02,0.029c0.007-0.01,0.013-0.02,0.02-0.029H170.66z"/>
	</g>
	<g>
		<path fill="#E13837" d="M17.587,59.805c-0.006-0.01-0.012-0.019-0.018-0.027c-0.006,0.009-0.013,0.018-0.019,0.027H17.587z"/>
		<path fill="#E13837" d="M21.563,42.896c-1.246-0.388-3.184,0.295-3.896,3.122c-0.061,0.155-0.123,0.151-0.178-0.005
			c-1.029-2.865-2.723-3.492-3.913-3.117c-1.767,0.569-3.194,2.673-3.065,5.356c0.037,4.684,4.23,7.043,7.059,11.524
			c2.828-4.481,7.069-6.833,7.08-11.538C24.897,45.527,23.376,43.455,21.563,42.896z"/>
	</g>
	<g>
		<path fill="#E13837" d="M155.048,210.57c-0.091-11.71-10.568-17.607-17.645-28.806c-7.076,11.198-17.671,17.078-17.703,28.839
			c-0.609,6.781,3.183,11.963,7.717,13.358c3.118,0.968,7.964-0.735,9.747-7.806c0.145-0.387,0.303-0.379,0.446,0.014
			c2.566,7.162,6.804,8.727,9.778,7.792C151.803,222.539,155.377,217.28,155.048,210.57z"/>
		<path fill="#E13837" d="M137.355,181.69c0.016,0.025,0.032,0.05,0.048,0.074c0.017-0.024,0.033-0.049,0.049-0.074H137.355z"/>
	</g>
	<g>
		<path fill="#E13837" d="M137.348,65.474c-0.016-0.025-0.032-0.05-0.048-0.075c-0.017,0.025-0.033,0.05-0.049,0.075H137.348z"/>
		<path fill="#E13837" d="M147.285,23.203c-3.117-0.969-7.964,0.735-9.746,7.805c-0.145,0.388-0.303,0.379-0.441-0.014
			c-2.572-7.163-6.804-8.727-9.785-7.791c-4.406,1.423-7.98,6.682-7.656,13.391c0.09,11.711,10.565,17.607,17.644,28.805
			c7.077-11.197,17.677-17.077,17.703-28.838C155.618,29.78,151.821,24.599,147.285,23.203z"/>
	</g>
	<g>
		<path fill="#E13837" d="M147.285,103.99c-3.117-0.968-7.964,0.735-9.746,7.804c-0.145,0.388-0.303,0.379-0.441-0.014
			c-2.572-7.161-6.804-8.727-9.785-7.79c-4.406,1.423-7.98,6.681-7.656,13.389c0.09,11.71,10.565,17.607,17.644,28.805
			c7.077-11.197,17.677-17.077,17.703-28.839C155.618,110.566,151.821,105.387,147.285,103.99z"/>
		<path fill="#E13837" d="M137.348,146.258c-0.016-0.025-0.032-0.05-0.048-0.074c-0.017,0.024-0.033,0.049-0.049,0.074H137.348z"/>
	</g>
	<g>
		<path fill="#E13837" d="M65.759,207.736c-0.091-11.713-10.571-17.609-17.646-28.808c-7.075,11.197-17.673,17.078-17.702,28.841
			c-0.613,6.779,3.182,11.961,7.717,13.357c3.117,0.967,7.965-0.736,9.744-7.806c0.15-0.386,0.305-0.379,0.447,0.014
			c2.568,7.163,6.803,8.728,9.781,7.792C62.511,219.703,66.085,214.445,65.759,207.736z"/>
		<path fill="#E13837" d="M48.065,178.855c0.016,0.024,0.032,0.049,0.048,0.073c0.016-0.024,0.032-0.049,0.048-0.073H48.065z"/>
	</g>
	<g>
		<path fill="#E13837" d="M57.995,23.203c-3.115-0.969-7.963,0.735-9.742,7.805c-0.15,0.388-0.306,0.379-0.447-0.014
			c-2.568-7.162-6.803-8.727-9.781-7.791c-4.41,1.423-7.984,6.682-7.658,13.391C30.454,48.306,40.935,54.202,48.012,65.4
			c7.075-11.198,17.673-17.078,17.702-28.841C66.326,29.78,62.532,24.6,57.995,23.203z"/>
		<path fill="#E13837" d="M48.06,65.474c-0.016-0.024-0.032-0.048-0.048-0.073c-0.016,0.025-0.032,0.049-0.048,0.073H48.06z"/>
	</g>
	<g>
		<path fill="#E13837" d="M57.995,103.991c-3.115-0.97-7.963,0.734-9.742,7.803c-0.15,0.387-0.306,0.379-0.447-0.014
			c-2.568-7.162-6.803-8.726-9.781-7.789c-4.41,1.422-7.984,6.68-7.658,13.389c0.088,11.71,10.568,17.607,17.646,28.805
			c7.075-11.197,17.673-17.078,17.702-28.839C66.326,110.566,62.532,105.387,57.995,103.991z"/>
		<path fill="#E13837" d="M48.06,146.258c-0.016-0.024-0.032-0.049-0.048-0.073c-0.016,0.024-0.032,0.049-0.048,0.073H48.06z"/>
	</g>
	<g>
		<path fill="#E13837" d="M111.819,169.469c-0.085-11.711-10.565-17.608-17.64-28.807c-7.08,11.198-17.677,17.078-17.706,28.84
			c-0.611,6.78,3.182,11.962,7.715,13.357c3.121,0.967,7.969-0.735,9.75-7.806c0.148-0.386,0.305-0.378,0.445,0.014
			c2.569,7.163,6.804,8.728,9.783,7.792C108.575,181.438,112.148,176.178,111.819,169.469z"/>
		<path fill="#E13837" d="M94.132,140.588c0.016,0.025,0.031,0.05,0.048,0.074c0.017-0.024,0.032-0.049,0.048-0.074H94.132z"/>
	</g>
	<g>
		<path fill="#E13837" d="M104.059,64.306c-3.118-0.969-7.965,0.735-9.743,7.805c-0.15,0.388-0.307,0.379-0.447-0.014
			c-2.57-7.163-6.807-8.728-9.783-7.791c-4.41,1.423-7.982,6.681-7.656,13.392c0.088,11.711,10.566,17.607,17.645,28.807
			c7.071-11.199,17.669-17.08,17.702-28.841C112.385,70.883,108.588,65.701,104.059,64.306z"/>
		<path fill="#E13837" d="M94.12,106.576c-0.016-0.024-0.031-0.048-0.047-0.072c-0.016,0.024-0.032,0.048-0.047,0.072H94.12z"/>
	</g>
	<path fill="#E13837" d="M22.556,26.387c-0.369-0.363-0.779-0.679-1.219-0.953c0.188-0.146,0.367-0.298,0.537-0.465
		c1.115-1.09,1.838-2.651,1.836-4.383c0.002-1.73-0.721-3.292-1.836-4.383c-1.113-1.095-2.629-1.752-4.283-1.753
		c-1.656,0.001-3.17,0.658-4.285,1.753c-1.115,1.091-1.836,2.652-1.834,4.383c-0.002,1.731,0.719,3.293,1.834,4.383
		c0.17,0.167,0.352,0.319,0.537,0.465c-0.438,0.274-0.85,0.59-1.219,0.953c-1.289,1.263-2.121,3.065-2.121,5.063
		c0,1.997,0.832,3.8,2.121,5.063c1.289,1.268,3.047,2.03,4.967,2.031c1.918-0.001,3.676-0.764,4.965-2.031
		c1.291-1.264,2.123-3.066,2.121-5.063C24.679,29.452,23.847,27.649,22.556,26.387z M14.765,17.98
		c0.705-0.692,1.703-1.141,2.824-1.141h0.002c1.123-0.001,2.119,0.447,2.826,1.141c0.705,0.698,1.107,1.607,1.109,2.605
		c-0.002,0.999-0.404,1.908-1.109,2.606c-0.707,0.693-1.703,1.142-2.826,1.141c-1.123,0.001-2.121-0.447-2.826-1.141
		c-0.705-0.698-1.109-1.607-1.109-2.606C13.655,19.588,14.06,18.679,14.765,17.98z M21.007,34.627
		c-0.854,0.841-2.063,1.383-3.416,1.382c-1.354,0.001-2.563-0.541-3.418-1.382c-0.855-0.846-1.35-1.956-1.352-3.177
		c0.002-1.221,0.496-2.331,1.352-3.178c0.855-0.84,2.061-1.382,3.416-1.382h0.002c1.354,0,2.563,0.541,3.416,1.382
		c0.857,0.847,1.352,1.957,1.354,3.178C22.358,32.671,21.864,33.781,21.007,34.627z"/>
	<path fill="#E13837" d="M165.693,223.612c0.369,0.362,0.78,0.679,1.219,0.953c-0.187,0.146-0.367,0.298-0.537,0.464
		c-1.115,1.091-1.838,2.652-1.836,4.383c-0.002,1.731,0.721,3.293,1.836,4.383c1.114,1.096,2.63,1.753,4.284,1.754
		c1.655-0.001,3.169-0.658,4.284-1.754c1.115-1.09,1.836-2.651,1.835-4.383c0.001-1.73-0.72-3.292-1.835-4.383
		c-0.169-0.166-0.351-0.318-0.537-0.464c0.438-0.274,0.85-0.591,1.219-0.953c1.29-1.263,2.121-3.065,2.121-5.063
		s-0.831-3.801-2.121-5.063c-1.289-1.268-3.047-2.03-4.966-2.031c-1.919,0.001-3.676,0.764-4.966,2.031
		c-1.29,1.263-2.123,3.065-2.121,5.063C163.57,220.547,164.403,222.35,165.693,223.612z M173.484,232.018
		c-0.705,0.693-1.702,1.142-2.824,1.142h-0.001c-1.123,0.001-2.12-0.448-2.826-1.142c-0.705-0.697-1.108-1.607-1.109-2.605
		c0.001-0.998,0.404-1.907,1.109-2.605c0.706-0.693,1.703-1.142,2.826-1.141c1.122-0.001,2.12,0.447,2.825,1.141
		c0.705,0.698,1.109,1.607,1.11,2.605C174.594,230.41,174.189,231.32,173.484,232.018z M167.242,215.372
		c0.854-0.841,2.063-1.383,3.417-1.382c1.354-0.001,2.562,0.541,3.417,1.382c0.856,0.846,1.351,1.956,1.353,3.177
		c-0.002,1.221-0.496,2.331-1.353,3.178c-0.854,0.84-2.061,1.382-3.416,1.382h-0.001c-1.354,0-2.563-0.542-3.417-1.382
		c-0.856-0.847-1.352-1.957-1.354-3.178C165.891,217.328,166.386,216.218,167.242,215.372z"/>
</g>
</svg>
