<?xml version="1.0" encoding="utf-8"?>
<!-- Generator: Adobe Illustrator 16.0.0, SVG Export Plug-In . SVG Version: 6.00 Build 0)  -->
<!DOCTYPE svg PUBLIC "-//W3C//DTD SVG 1.1//EN" "http://www.w3.org/Graphics/SVG/1.1/DTD/svg11.dtd">
<svg version="1.1" id="圖層_1" xmlns="http://www.w3.org/2000/svg" xmlns:xlink="http://www.w3.org/1999/xlink" x="0px" y="0px"
	 width="188.25px" height="250px" viewBox="0 0 188.25 250" enable-background="new 0 0 188.25 250" xml:space="preserve">
<g>
	<path display="none" fill="#F9FAF9" stroke="#000000" d="M183.416,235.551c0,7.828-6.346,14.174-14.174,14.174H19.006
		c-7.827,0-14.173-6.346-14.173-14.174V14.449c0-7.828,6.346-14.174,14.173-14.174h150.236c7.828,0,14.174,6.346,14.174,14.174
		V235.551z"/>
	<g>
		<path fill="#E13837" d="M21.564,42.895c-1.247-0.387-3.187,0.294-3.899,3.122c-0.06,0.155-0.121,0.151-0.178-0.005
			c-1.029-2.865-2.723-3.491-3.914-3.117c-1.762,0.569-3.193,2.673-3.061,5.356c0.033,4.685,4.225,7.044,7.057,11.522
			c2.831-4.479,7.068-6.831,7.082-11.535C24.895,45.525,23.376,43.453,21.564,42.895z"/>
		<path fill="#E13837" d="M17.588,59.803c-0.006-0.01-0.014-0.019-0.02-0.029c-0.006,0.011-0.014,0.02-0.02,0.029H17.588z"/>
	</g>
	<g>
		<path fill="#E13837" d="M170.684,190.228c-2.832,4.477-7.072,6.83-7.084,11.534c-0.244,2.712,1.271,4.783,3.086,5.344
			c1.248,0.387,3.189-0.296,3.902-3.123c0.059-0.155,0.121-0.151,0.178,0.005c1.025,2.866,2.723,3.491,3.912,3.118
			c1.768-0.57,3.195-2.674,3.061-5.357C177.707,197.063,173.516,194.704,170.684,190.228z"/>
		<path fill="#E13837" d="M170.662,190.196c0.008,0.011,0.014,0.021,0.021,0.031c0.006-0.011,0.014-0.021,0.02-0.031H170.662z"/>
	</g>
	<g>
		<path fill="#E13837" d="M60.831,23.202c-3.117-0.969-7.965,0.735-9.746,7.805c-0.148,0.387-0.303,0.378-0.443-0.014
			c-2.57-7.162-6.805-8.728-9.783-7.791c-4.41,1.422-7.984,6.681-7.657,13.391C33.289,48.304,43.766,54.2,50.844,65.397
			C57.922,54.2,68.518,48.319,68.547,36.56C69.161,29.779,65.366,24.599,60.831,23.202z"/>
		<path fill="#E13837" d="M50.893,65.473c-0.016-0.025-0.033-0.05-0.049-0.075c-0.016,0.025-0.033,0.05-0.049,0.075H50.893z"/>
	</g>
	<g>
		<path fill="#E13837" d="M50.893,118.385c-0.016-0.025-0.033-0.05-0.049-0.075c-0.016,0.025-0.033,0.05-0.049,0.075H50.893z"/>
		<path fill="#E13837" d="M60.831,76.114c-3.117-0.968-7.965,0.736-9.746,7.807c-0.148,0.386-0.303,0.377-0.444-0.015
			c-2.569-7.162-6.804-8.728-9.782-7.792c-4.41,1.423-7.984,6.682-7.657,13.392c0.087,11.711,10.565,17.607,17.644,28.804
			c7.078-11.196,17.674-17.077,17.703-28.837C69.161,82.691,65.366,77.512,60.831,76.114z"/>
	</g>
	<g>
		<path fill="#E13837" d="M50.901,181.691c0.016,0.024,0.031,0.048,0.047,0.072c0.016-0.024,0.031-0.048,0.047-0.072H50.901z"/>
		<path fill="#E13837" d="M68.592,210.572c-0.088-11.713-10.568-17.609-17.645-28.809c-7.074,11.199-17.674,17.08-17.703,28.842
			c-0.612,6.78,3.183,11.961,7.717,13.357c3.119,0.968,7.967-0.736,9.746-7.805c0.147-0.389,0.305-0.379,0.447,0.014
			c2.568,7.162,6.804,8.727,9.781,7.791C65.346,222.541,68.92,217.281,68.592,210.572z"/>
	</g>
	<g>
		<path fill="#E13837" d="M50.901,128.779c0.016,0.024,0.031,0.048,0.047,0.072c0.016-0.024,0.031-0.048,0.047-0.072H50.901z"/>
		<path fill="#E13837" d="M68.592,157.659c-0.088-11.713-10.568-17.609-17.645-28.808c-7.074,11.198-17.674,17.078-17.703,28.841
			c-0.612,6.781,3.183,11.96,7.717,13.357c3.119,0.968,7.967-0.736,9.746-7.806c0.146-0.387,0.305-0.378,0.447,0.014
			c2.568,7.164,6.804,8.729,9.781,7.792C65.346,169.627,68.92,164.369,68.592,157.659z"/>
	</g>
	<g>
		<path fill="#E13837" d="M137.35,65.473c-0.016-0.025-0.033-0.05-0.049-0.075c-0.016,0.025-0.033,0.05-0.049,0.075H137.35z"/>
		<path fill="#E13837" d="M147.287,23.201c-3.117-0.968-7.965,0.736-9.746,7.807c-0.145,0.386-0.303,0.377-0.447-0.015
			c-2.566-7.162-6.805-8.728-9.779-7.792c-4.412,1.423-7.986,6.682-7.658,13.392c0.092,11.711,10.566,17.607,17.645,28.805
			c7.078-11.197,17.67-17.077,17.703-28.838C155.615,29.779,151.822,24.599,147.287,23.201z"/>
	</g>
	<g>
		<path fill="#E13837" d="M137.35,118.386c-0.016-0.025-0.033-0.05-0.049-0.075c-0.016,0.025-0.033,0.05-0.049,0.075H137.35z"/>
		<path fill="#E13837" d="M147.287,76.114c-3.117-0.968-7.965,0.736-9.746,7.807c-0.145,0.387-0.303,0.377-0.447-0.015
			c-2.566-7.162-6.805-8.727-9.779-7.792c-4.412,1.423-7.986,6.682-7.658,13.392c0.092,11.711,10.566,17.608,17.645,28.805
			c7.078-11.196,17.67-17.077,17.703-28.838C155.615,82.692,151.822,77.512,147.287,76.114z"/>
	</g>
	<g>
		<path fill="#E13837" d="M137.355,181.691c0.016,0.025,0.033,0.05,0.049,0.075c0.016-0.025,0.033-0.05,0.049-0.075H137.355z"/>
		<path fill="#E13837" d="M155.049,210.572c-0.092-11.711-10.566-17.607-17.645-28.806c-7.076,11.198-17.676,17.078-17.703,28.839
			c-0.615,6.781,3.182,11.96,7.719,13.357c3.115,0.969,7.963-0.736,9.746-7.805c0.145-0.389,0.301-0.379,0.439,0.014
			c2.572,7.162,6.805,8.728,9.785,7.791C151.799,222.541,155.371,217.281,155.049,210.572z"/>
	</g>
	<g>
		<path fill="#E13837" d="M155.049,157.659c-0.092-11.711-10.566-17.607-17.645-28.805c-7.076,11.197-17.676,17.077-17.703,28.838
			c-0.615,6.781,3.182,11.96,7.719,13.357c3.115,0.968,7.963-0.736,9.746-7.805c0.145-0.388,0.301-0.379,0.439,0.013
			c2.572,7.164,6.805,8.729,9.785,7.792C151.799,169.627,155.371,164.369,155.049,157.659z"/>
		<path fill="#E13837" d="M137.355,128.779c0.016,0.025,0.033,0.05,0.049,0.075c0.016-0.025,0.033-0.05,0.049-0.075H137.355z"/>
	</g>
	<g>
		<path fill="#E13837" d="M94.116,146.26c-0.016-0.024-0.031-0.048-0.047-0.072c-0.016,0.024-0.031,0.048-0.047,0.072H94.116z"/>
		<path fill="#E13837" d="M104.059,103.988c-3.117-0.968-7.969,0.736-9.748,7.806c-0.15,0.386-0.305,0.378-0.447-0.015
			c-2.568-7.162-6.803-8.727-9.779-7.791c-4.41,1.423-7.984,6.681-7.654,13.391c0.088,11.713,10.567,17.61,17.639,28.809
			c7.08-11.198,17.675-17.078,17.707-28.842C112.385,110.564,108.59,105.385,104.059,103.988z"/>
	</g>
	<path fill="#E13837" d="M24.481,21.823c-0.127-1.936-0.775-3.681-1.857-4.997c-1.205-1.473-2.973-2.378-4.971-2.378
		c-0.006,0-0.014,0-0.02,0c-1.053,0-2.035,0.244-2.9,0.691c-1.299,0.671-2.318,1.785-3,3.129c-0.682,1.345-1.037,2.921-1.039,4.579
		c0.002,2.189,0.605,4.223,1.791,5.744c0.594,0.76,1.334,1.385,2.195,1.813s1.838,0.659,2.889,0.658c0.027,0,0.055,0,0.074,0
		c1.055-0.01,2.037-0.271,2.896-0.735c0.73-0.394,1.363-0.933,1.9-1.568c-0.068,1.604-0.326,3.524-1.059,4.932
		c-0.383,0.739-0.873,1.338-1.539,1.771c-0.666,0.431-1.535,0.716-2.752,0.718c-0.887-0.001-1.58-0.208-2.156-0.512
		c-0.859-0.453-1.463-1.153-1.85-1.751c-0.193-0.298-0.328-0.566-0.414-0.753c-0.041-0.093-0.07-0.165-0.088-0.211
		c-0.01-0.021-0.016-0.037-0.018-0.045L12.54,32.92l-2.037,0.793c0.033,0.089,0.416,1.232,1.428,2.423
		c0.506,0.594,1.176,1.197,2.037,1.653c0.859,0.456,1.91,0.755,3.123,0.754c0.004,0,0.01,0,0.014,0c1.533,0,2.832-0.382,3.869-1.057
		c0.781-0.505,1.404-1.167,1.887-1.897c0.723-1.098,1.141-2.34,1.396-3.549c0.254-1.211,0.348-2.397,0.385-3.409
		c0.025-0.706,0.035-1.394,0.035-2.042C24.676,24.206,24.51,22.158,24.481,21.823z M21.042,26.981
		c-0.412,0.554-0.902,0.99-1.469,1.296c-0.564,0.304-1.207,0.48-1.949,0.489c-0.023,0-0.041,0-0.055,0
		c-0.762,0-1.416-0.162-1.982-0.444c-0.848-0.423-1.518-1.122-1.996-2.06c-0.477-0.936-0.75-2.109-0.748-3.415
		c-0.002-1.743,0.504-3.298,1.338-4.377c0.418-0.541,0.914-0.967,1.486-1.262s1.221-0.462,1.967-0.463
		c1.416,0.006,2.543,0.595,3.379,1.6c0.83,1.006,1.348,2.462,1.35,4.194C22.362,24.29,21.868,25.877,21.042,26.981z"/>
	<path fill="#E13837" d="M163.768,228.176c0.127,1.936,0.773,3.681,1.857,4.997c1.205,1.473,2.971,2.378,4.969,2.378
		c0.006,0,0.014,0,0.021,0c1.051,0,2.035-0.244,2.9-0.691c1.299-0.671,2.318-1.785,3-3.129s1.037-2.921,1.039-4.579
		c-0.002-2.188-0.605-4.223-1.791-5.744c-0.594-0.76-1.334-1.385-2.195-1.813s-1.838-0.659-2.889-0.658c-0.029,0-0.055,0-0.076,0
		c-1.055,0.01-2.035,0.271-2.895,0.735c-0.73,0.394-1.363,0.933-1.9,1.568c0.068-1.604,0.324-3.524,1.059-4.932
		c0.383-0.739,0.873-1.338,1.537-1.771c0.668-0.431,1.537-0.716,2.754-0.718c0.885,0.001,1.58,0.209,2.156,0.512
		c0.859,0.453,1.463,1.153,1.85,1.751c0.191,0.298,0.328,0.567,0.412,0.753c0.043,0.093,0.072,0.165,0.09,0.211
		c0.01,0.021,0.016,0.037,0.018,0.045l0.025-0.011l2.037-0.792c-0.033-0.09-0.416-1.233-1.428-2.424
		c-0.506-0.594-1.178-1.197-2.037-1.653s-1.91-0.755-3.123-0.754c-0.006,0-0.01,0-0.014,0c-1.535,0-2.832,0.382-3.869,1.057
		c-0.781,0.505-1.404,1.167-1.887,1.897c-0.723,1.098-1.141,2.34-1.396,3.549c-0.254,1.211-0.348,2.397-0.385,3.409
		c-0.025,0.706-0.035,1.394-0.035,2.042C163.572,225.793,163.738,227.841,163.768,228.176z M167.205,223.018
		c0.414-0.553,0.904-0.99,1.471-1.296c0.564-0.304,1.207-0.48,1.949-0.489c0.021,0,0.039,0,0.055,0c0.762,0,1.416,0.162,1.98,0.444
		c0.85,0.423,1.518,1.122,1.998,2.06c0.477,0.936,0.75,2.109,0.748,3.415c0.002,1.743-0.504,3.298-1.338,4.377
		c-0.418,0.541-0.916,0.967-1.488,1.262s-1.219,0.462-1.965,0.464c-1.418-0.007-2.543-0.596-3.379-1.6
		c-0.83-1.007-1.348-2.463-1.35-4.195C165.885,225.709,166.381,224.122,167.205,223.018z"/>
</g>
</svg>
