<?xml version="1.0" encoding="utf-8"?>
<!-- Generator: Adobe Illustrator 16.0.0, SVG Export Plug-In . SVG Version: 6.00 Build 0)  -->
<!DOCTYPE svg PUBLIC "-//W3C//DTD SVG 1.1//EN" "http://www.w3.org/Graphics/SVG/1.1/DTD/svg11.dtd">
<svg version="1.1" id="圖層_1" xmlns="http://www.w3.org/2000/svg" xmlns:xlink="http://www.w3.org/1999/xlink" x="0px" y="0px"
	 width="188.25px" height="250px" viewBox="0 0 188.25 250" enable-background="new 0 0 188.25 250" xml:space="preserve">
<g>
	<path display="none" fill="#F9FAF9" stroke="#000000" d="M183.416,235.551c0,7.828-6.346,14.174-14.174,14.174H19.006
		c-7.827,0-14.173-6.346-14.173-14.174V14.448c0-7.827,6.346-14.173,14.173-14.173h150.236c7.828,0,14.174,6.346,14.174,14.173
		V235.551z"/>
	<path fill="#E13837" d="M17.6,42.795c1.786,3.471,4.145,6.309,7.075,8.513c-2.931,2.206-5.289,5.038-7.075,8.495
		c-1.802-3.457-4.168-6.289-7.098-8.495C13.432,49.104,15.798,46.266,17.6,42.795L17.6,42.795z"/>
	<path fill="#E13837" d="M170.67,190.196c1.787,3.47,4.146,6.308,7.076,8.513c-2.93,2.206-5.289,5.038-7.076,8.495
		c-1.801-3.457-4.168-6.289-7.098-8.495C166.502,196.504,168.869,193.666,170.67,190.196L170.67,190.196z"/>
	<path fill="#E13837" d="M93.36,106.064c4.468,8.395,10.363,15.254,17.691,20.561c-7.328,5.33-13.223,12.182-17.691,20.541
		c-4.503-8.359-10.417-15.211-17.741-20.541C82.943,121.318,88.857,114.459,93.36,106.064L93.36,106.064z"/>
	<path fill="#E13837" d="M23.064,36.24l-4.067-21.767l-2.188-0.025l0.003,0.016l-0.545-0.005l-4.057,21.782h-1.704l-0.003,2.302
		h5.449l0.003-2.302h-1.572l0.625-3.334l5.261-0.008l0.624,3.34h-1.667l-0.004,2.302l5.45,0.002l0.004-2.302L23.064,36.24z
		 M15.476,30.406l2.166-11.56L19.801,30.4L15.476,30.406z"/>
	<path fill="#E13837" d="M165.184,213.759l4.068,21.767l2.188,0.025l-0.002-0.016l0.545,0.005l4.057-21.782h1.703l0.004-2.302
		h-5.449l-0.004,2.302h1.572l-0.625,3.334l-5.26,0.008l-0.625-3.34h1.668l0.004-2.302l-5.451-0.002l-0.004,2.302L165.184,213.759z
		 M172.771,219.593l-2.166,11.56l-2.158-11.554L172.771,219.593z"/>
</g>
</svg>
