<?xml version="1.0" encoding="utf-8"?>
<!-- Generator: Adobe Illustrator 16.0.0, SVG Export Plug-In . SVG Version: 6.00 Build 0)  -->
<!DOCTYPE svg PUBLIC "-//W3C//DTD SVG 1.1//EN" "http://www.w3.org/Graphics/SVG/1.1/DTD/svg11.dtd">
<svg version="1.1" id="圖層_1" xmlns="http://www.w3.org/2000/svg" xmlns:xlink="http://www.w3.org/1999/xlink" x="0px" y="0px"
	 width="188.25px" height="250px" viewBox="0 0 188.25 250" enable-background="new 0 0 188.25 250" xml:space="preserve">
<g>
	<path display="none" fill="#F9FAF9" stroke="#000000" d="M183.416,235.551c0,7.828-6.346,14.174-14.174,14.174H19.006
		c-7.827,0-14.173-6.346-14.173-14.174V14.449c0-7.828,6.346-14.174,14.173-14.174h150.236c7.828,0,14.174,6.346,14.174,14.174
		V235.551z"/>
	<path fill="#E13837" d="M17.6,42.795c1.787,3.471,4.146,6.309,7.076,8.512c-2.931,2.207-5.289,5.039-7.076,8.496
		c-1.801-3.457-4.168-6.289-7.098-8.496C13.432,49.104,15.799,46.266,17.6,42.795L17.6,42.795z"/>
	<path fill="#E13837" d="M170.67,190.196c1.787,3.47,4.146,6.308,7.076,8.513c-2.93,2.206-5.289,5.038-7.076,8.495
		c-1.803-3.457-4.168-6.289-7.098-8.495C166.502,196.504,168.867,193.666,170.67,190.196L170.67,190.196z"/>
	<path fill="#E13837" d="M94.148,25.787c4.469,8.675,10.365,15.77,17.691,21.283c-7.326,5.517-13.223,12.595-17.691,21.237
		c-4.502-8.643-10.416-15.721-17.74-21.237C83.732,41.557,89.646,34.462,94.148,25.787L94.148,25.787z"/>
	<path fill="#E13837" d="M94.148,181.692c4.469,8.675,10.365,15.77,17.691,21.282c-7.326,5.517-13.223,12.596-17.691,21.237
		c-4.502-8.642-10.416-15.721-17.74-21.237C83.732,197.462,89.646,190.367,94.148,181.692L94.148,181.692z"/>
	<path fill="#E13837" d="M24.654,34.771l-2.275-0.01l-0.01,1.448h-9.56c0.05-0.333,0.194-0.756,0.462-1.238
		c0.489-0.891,1.352-1.938,2.387-2.973c1.037-1.039,2.242-2.078,3.416-3.023l0.006-0.003l0.009-0.008
		c1.419-1.183,2.632-2.056,3.616-3.099c0.49-0.521,0.92-1.094,1.242-1.758c0.324-0.664,0.531-1.411,0.607-2.236
		c0.017-0.173,0.025-0.358,0.025-0.561c-0.001-0.561-0.066-1.239-0.254-1.972c-0.281-1.092-0.848-2.322-1.929-3.291
		c-1.079-0.973-2.651-1.607-4.676-1.601c-1.626-0.003-2.96,0.42-3.978,1.107c-0.765,0.513-1.344,1.161-1.77,1.829
		c-0.639,1.007-0.951,2.055-1.115,2.896c-0.163,0.842-0.176,1.483-0.177,1.694c0,0.038,0.001,0.063,0.001,0.072l1.974-0.053
		l0.304-0.004c0-0.003,0-0.008,0-0.016c-0.006-0.178,0.041-1.621,0.664-2.858c0.311-0.622,0.742-1.188,1.367-1.609
		c0.629-0.42,1.473-0.722,2.729-0.726c1.058,0.001,1.831,0.208,2.419,0.506c0.873,0.45,1.385,1.12,1.721,1.881
		c0.332,0.753,0.443,1.588,0.441,2.144c0,0.132-0.006,0.247-0.015,0.337c-0.056,0.576-0.185,1.017-0.38,1.42
		c-0.291,0.603-0.766,1.155-1.484,1.802c-0.715,0.643-1.656,1.359-2.762,2.276c-1.621,1.306-3.32,2.793-4.668,4.326
		c-0.674,0.769-1.262,1.549-1.705,2.352c-0.414,0.758-0.707,1.546-0.765,2.385h-0.009l-0.008,0.145c0,0.001,0,0.001,0,0.002l0,0
		v0.007l-0.006,2.181h14.156v-1.001L24.654,34.771z"/>
	<path fill="#E13837" d="M163.576,215.227l2.275,0.01l0.01-1.447h9.561c-0.051,0.333-0.195,0.756-0.463,1.238
		c-0.488,0.891-1.352,1.938-2.387,2.973c-1.037,1.039-2.242,2.078-3.416,3.023l-0.006,0.002l-0.008,0.008
		c-1.42,1.184-2.633,2.057-3.617,3.1c-0.49,0.521-0.92,1.094-1.242,1.758c-0.324,0.664-0.531,1.41-0.607,2.236
		c-0.016,0.172-0.025,0.358-0.025,0.561c0.002,0.561,0.066,1.239,0.254,1.972c0.281,1.091,0.848,2.322,1.93,3.291
		c1.078,0.973,2.65,1.607,4.676,1.601c1.625,0.003,2.959-0.42,3.977-1.107c0.766-0.513,1.344-1.161,1.77-1.83
		c0.639-1.006,0.951-2.054,1.115-2.895c0.164-0.842,0.176-1.483,0.178-1.694c0-0.038-0.002-0.063-0.002-0.072l-1.973,0.053
		l-0.305,0.004c0,0.003,0,0.008,0,0.016c0.006,0.178-0.041,1.621-0.664,2.858c-0.311,0.622-0.742,1.188-1.367,1.609
		c-0.629,0.42-1.473,0.722-2.729,0.726c-1.059-0.001-1.832-0.208-2.42-0.507c-0.873-0.449-1.385-1.119-1.721-1.88
		c-0.332-0.753-0.443-1.588-0.441-2.144c0-0.132,0.006-0.247,0.016-0.338c0.055-0.575,0.184-1.016,0.379-1.42
		c0.291-0.602,0.766-1.154,1.484-1.801c0.715-0.643,1.656-1.359,2.762-2.276c1.621-1.306,3.32-2.794,4.668-4.326
		c0.674-0.769,1.262-1.549,1.705-2.352c0.414-0.758,0.707-1.546,0.766-2.386h0.008l0.008-0.144c0-0.001,0-0.001,0-0.002l0,0v-0.007
		l0.006-2.181h-14.156v1.001L163.576,215.227z"/>
</g>
</svg>
