<?xml version="1.0" encoding="utf-8"?>
<!-- Generator: Adobe Illustrator 16.0.0, SVG Export Plug-In . SVG Version: 6.00 Build 0)  -->
<!DOCTYPE svg PUBLIC "-//W3C//DTD SVG 1.1//EN" "http://www.w3.org/Graphics/SVG/1.1/DTD/svg11.dtd">
<svg version="1.1" id="圖層_1" xmlns="http://www.w3.org/2000/svg" xmlns:xlink="http://www.w3.org/1999/xlink" x="0px" y="0px"
	 width="188.25px" height="250px" viewBox="0 0 188.25 250" enable-background="new 0 0 188.25 250" xml:space="preserve">
<g>
	<path display="none" fill="#F9FAF9" stroke="#000000" d="M183.416,235.551c0,7.828-6.346,14.174-14.174,14.174H19.007
		c-7.827,0-14.173-6.346-14.173-14.174V14.448c0-7.827,6.346-14.173,14.173-14.173h150.235c7.828,0,14.174,6.346,14.174,14.173
		V235.551z"/>
	<path fill="#E13837" d="M17.602,42.795c1.786,3.471,4.146,6.309,7.075,8.513c-2.93,2.207-5.289,5.038-7.075,8.495
		c-1.802-3.457-4.167-6.288-7.098-8.495C13.435,49.104,15.8,46.266,17.602,42.795L17.602,42.795z"/>
	<path fill="#E13837" d="M170.67,190.196c1.787,3.47,4.146,6.308,7.076,8.513c-2.93,2.206-5.289,5.038-7.076,8.495
		c-1.801-3.457-4.168-6.289-7.098-8.495C166.502,196.504,168.869,193.666,170.67,190.196L170.67,190.196z"/>
	<path fill="#E13837" d="M94.15,25.787c4.467,8.675,10.364,15.77,17.69,21.283c-7.326,5.517-13.223,12.595-17.69,21.236
		c-4.502-8.642-10.416-15.72-17.74-21.236C83.734,41.557,89.648,34.462,94.15,25.787L94.15,25.787z"/>
	<path fill="#E13837" d="M94.15,103.739c4.467,8.681,10.364,15.777,17.69,21.274c-7.326,5.515-13.223,12.601-17.69,21.245
		c-4.502-8.645-10.416-15.73-17.74-21.245C83.734,119.517,89.648,112.42,94.15,103.739L94.15,103.739z"/>
	<path fill="#E13837" d="M94.15,181.692c4.467,8.675,10.364,15.77,17.69,21.282c-7.326,5.517-13.223,12.596-17.69,21.237
		c-4.502-8.642-10.416-15.721-17.74-21.237C83.734,197.462,89.648,190.367,94.15,181.692L94.15,181.692z"/>
	<g>
		<path fill="#E13837" d="M18.648,22.237l5.877-5.249h0.02v-0.018l0.006-0.005l-0.006-0.008v-2.51l-13.531,0.001l0.008,1.813v2.256
			h2.078v-1.542l7.914,0.009l-7.77,7.195l1.119,1.659c0.848-0.781,1.912-1.244,3.08-1.245c1.369,0.001,2.742,0.64,3.641,1.679
			c0.897,1.042,1.449,2.467,1.449,4.055c0,1.587-0.552,3.012-1.449,4.053c-0.898,1.04-2.271,1.679-3.641,1.68
			c-1.371-0.001-2.602-0.64-3.5-1.68c-0.648-0.753-1.117-1.708-1.327-2.778l-2.112,0.436c0.68,3.717,3.527,6.505,6.939,6.506
			c3.916-0.001,7.234-3.679,7.234-8.216C24.677,26.264,22.015,22.899,18.648,22.237z"/>
		<polygon fill="#E13837" points="14.363,25.839 14.363,25.839 14.363,25.839 		"/>
	</g>
	<g>
		<path fill="#E13837" d="M169.602,227.762l-5.877,5.248h-0.02v0.018l-0.006,0.006l0.006,0.008v2.51l13.531-0.001l-0.008-1.813
			v-2.257h-2.078v1.543l-7.914-0.01l7.77-7.195l-1.119-1.658c-0.848,0.781-1.912,1.244-3.08,1.244c-1.369,0-2.742-0.639-3.641-1.678
			c-0.898-1.042-1.449-2.467-1.449-4.055c0-1.587,0.551-3.012,1.449-4.053c0.898-1.04,2.271-1.679,3.641-1.68
			c1.371,0.001,2.602,0.64,3.5,1.68c0.648,0.753,1.117,1.707,1.326,2.778l2.113-0.436c-0.68-3.717-3.527-6.505-6.939-6.506
			c-3.916,0.001-7.234,3.679-7.234,8.216C163.572,223.735,166.234,227.1,169.602,227.762z"/>
		<polygon fill="#E13837" points="173.887,224.16 173.887,224.16 173.887,224.16 		"/>
	</g>
</g>
</svg>
