<?xml version="1.0" encoding="utf-8"?>
<!-- Generator: Adobe Illustrator 16.0.0, SVG Export Plug-In . SVG Version: 6.00 Build 0)  -->
<!DOCTYPE svg PUBLIC "-//W3C//DTD SVG 1.1//EN" "http://www.w3.org/Graphics/SVG/1.1/DTD/svg11.dtd">
<svg version="1.1" id="圖層_1" xmlns="http://www.w3.org/2000/svg" xmlns:xlink="http://www.w3.org/1999/xlink" x="0px" y="0px"
	 width="188.25px" height="250px" viewBox="0 0 188.25 250" enable-background="new 0 0 188.25 250" xml:space="preserve">
<g>
	<path display="none" fill="#F9FAF9" stroke="#000000" d="M183.416,235.551c0,7.828-6.346,14.174-14.174,14.174H19.006
		c-7.827,0-14.173-6.346-14.173-14.174V14.448c0-7.827,6.346-14.173,14.173-14.173h150.236c7.828,0,14.174,6.346,14.174,14.173
		V235.551z"/>
	<path fill="#E13837" d="M17.601,42.795c1.786,3.471,4.146,6.309,7.075,8.513c-2.93,2.207-5.289,5.038-7.075,8.495
		c-1.802-3.457-4.167-6.288-7.098-8.495C13.434,49.104,15.799,46.266,17.601,42.795L17.601,42.795z"/>
	<path fill="#E13837" d="M170.67,190.196c1.787,3.47,4.146,6.308,7.076,8.513c-2.93,2.206-5.289,5.038-7.076,8.495
		c-1.803-3.457-4.168-6.289-7.098-8.495C166.502,196.504,168.867,193.666,170.67,190.196L170.67,190.196z"/>
	<path fill="#E13837" d="M50.922,25.787c4.469,8.675,10.365,15.77,17.691,21.283c-7.326,5.517-13.223,12.595-17.691,21.236
		c-4.504-8.642-10.418-15.72-17.742-21.236C40.504,41.557,46.418,34.462,50.922,25.787L50.922,25.787z"/>
	<path fill="#E13837" d="M50.922,181.692c4.469,8.675,10.364,15.769,17.691,21.282c-7.327,5.518-13.223,12.596-17.691,21.237
		c-4.504-8.642-10.418-15.72-17.742-21.237C40.504,197.461,46.418,190.367,50.922,181.692L50.922,181.692z"/>
	<path fill="#E13837" d="M137.377,25.785c4.469,8.675,10.365,15.771,17.691,21.284c-7.326,5.517-13.223,12.596-17.691,21.237
		c-4.502-8.642-10.416-15.721-17.74-21.237C126.961,41.556,132.875,34.46,137.377,25.785L137.377,25.785z"/>
	<path fill="#E13837" d="M137.377,181.692c4.469,8.675,10.363,15.77,17.691,21.282c-7.328,5.517-13.223,12.596-17.691,21.237
		c-4.502-8.642-10.416-15.721-17.742-21.237C126.961,197.462,132.875,190.367,137.377,181.692L137.377,181.692z"/>
	<path fill="#E13837" d="M24.676,32.406v-2.392h-2.979l-0.006-15.566l-2.236,0.001l0,0h-0.076l-8.877,15.565v2.392h8.961l0.002,3.74
		l-1.496,0.005l0.007,2.392l5.236-0.019l-0.008-2.392L21.7,36.138l-0.001-3.731H24.676z M13.122,30.015l6.336-11.134l0.005,11.134
		H13.122z"/>
	<path fill="#E13837" d="M163.572,217.592v2.393h2.979l0.006,15.566l2.236-0.001v-0.001l0.076,0.001l8.877-15.565v-2.393h-8.961
		l-0.002-3.739l1.496-0.005l-0.006-2.392l-5.236,0.019l0.008,2.392l1.504-0.005l0.002,3.73H163.572z M175.127,219.984l-6.336,11.134
		l-0.004-11.134H175.127z"/>
</g>
</svg>
