<?xml version="1.0" encoding="utf-8"?>
<!-- Generator: Adobe Illustrator 16.0.0, SVG Export Plug-In . SVG Version: 6.00 Build 0)  -->
<!DOCTYPE svg PUBLIC "-//W3C//DTD SVG 1.1//EN" "http://www.w3.org/Graphics/SVG/1.1/DTD/svg11.dtd">
<svg version="1.1" id="圖層_1" xmlns="http://www.w3.org/2000/svg" xmlns:xlink="http://www.w3.org/1999/xlink" x="0px" y="0px"
	 width="188.25px" height="250px" viewBox="0 0 188.25 250" enable-background="new 0 0 188.25 250" xml:space="preserve">
<g>
	<path display="none" fill="#F9FAF9" stroke="#000000" d="M183.417,235.551c0,7.828-6.346,14.174-14.174,14.174H19.007
		c-7.828,0-14.174-6.346-14.174-14.174V14.448c0-7.827,6.346-14.173,14.174-14.173h150.236c7.828,0,14.174,6.346,14.174,14.173
		V235.551z"/>
	<path fill="#E13837" d="M17.601,42.795c1.785,3.471,4.144,6.309,7.075,8.512c-2.932,2.207-5.29,5.039-7.075,8.496
		c-1.803-3.457-4.167-6.289-7.099-8.496C13.434,49.104,15.798,46.266,17.601,42.795L17.601,42.795z"/>
	<path fill="#E13837" d="M170.671,190.196c1.791,3.47,4.146,6.308,7.076,8.513c-2.93,2.206-5.285,5.038-7.076,8.495
		c-1.799-3.457-4.166-6.289-7.097-8.495C166.505,196.504,168.872,193.666,170.671,190.196L170.671,190.196z"/>
	<path fill="#E13837" d="M50.921,25.787c4.47,8.675,10.365,15.77,17.692,21.283c-7.327,5.517-13.223,12.595-17.692,21.237
		C46.42,59.665,40.505,52.587,33.18,47.07C40.505,41.557,46.42,34.462,50.921,25.787L50.921,25.787z"/>
	<path fill="#E13837" d="M94.147,103.739c4.469,8.686,10.369,15.778,17.693,21.269c-7.324,5.514-13.225,12.604-17.693,21.252
		c-4.501-8.648-10.414-15.738-17.739-21.252C83.733,119.518,89.646,112.425,94.147,103.739L94.147,103.739z"/>
	<path fill="#E13837" d="M50.92,181.692c4.47,8.675,10.365,15.77,17.692,21.283c-7.327,5.517-13.223,12.596-17.692,21.236
		c-4.5-8.641-10.415-15.72-17.74-21.236C40.505,197.462,46.42,190.367,50.92,181.692L50.92,181.692z"/>
	<path fill="#E13837" d="M137.382,25.787c4.464,8.675,10.364,15.771,17.688,21.284c-7.324,5.516-13.225,12.594-17.688,21.236
		c-4.506-8.643-10.417-15.721-17.744-21.236C126.965,41.558,132.876,34.462,137.382,25.787L137.382,25.787z"/>
	<path fill="#E13837" d="M137.382,181.692c4.463,8.676,10.363,15.77,17.688,21.283c-7.324,5.517-13.225,12.596-17.688,21.236
		c-4.506-8.641-10.417-15.72-17.745-21.236C126.965,197.462,132.876,190.368,137.382,181.692L137.382,181.692z"/>
	<path fill="#E13837" d="M22.567,23.409c-1.312-1.622-3.192-2.676-5.287-2.675c-1.309-0.001-2.535,0.416-3.592,1.122l-0.003-5.032
		h9.365v-2.376H11.445v0.831h-0.012l0.007,9.733l2.251-0.002c0.757-1.088,2.402-1.899,3.589-1.901
		c1.368,0.002,2.622,0.675,3.579,1.846c0.951,1.17,1.566,2.828,1.565,4.684c0.001,1.854-0.614,3.513-1.565,4.683
		c-0.957,1.172-2.211,1.844-3.579,1.846c-1.012-0.001-1.95-0.367-2.767-1.027c-0.813-0.661-1.49-1.624-1.909-2.78l-2.102,0.851
		c0.559,1.537,1.469,2.859,2.636,3.811c1.166,0.95,2.601,1.523,4.142,1.522c0.001,0,0.003,0,0.005,0
		c2.093,0,3.972-1.055,5.282-2.675c1.318-1.624,2.107-3.822,2.108-6.229C24.675,27.231,23.886,25.032,22.567,23.409z"/>
	<path fill="#E13837" d="M165.683,226.59c1.311,1.621,3.192,2.676,5.286,2.675c1.31,0.001,2.536-0.416,3.592-1.122l0.003,5.031
		h-9.365v2.377h11.605v-0.831h0.012l-0.006-9.733l-2.251,0.002c-0.757,1.088-2.402,1.899-3.59,1.9
		c-1.368-0.001-2.622-0.674-3.578-1.846c-0.952-1.169-1.567-2.828-1.565-4.683c-0.002-1.854,0.613-3.513,1.565-4.683
		c0.956-1.172,2.21-1.844,3.578-1.846c1.013,0.001,1.95,0.367,2.767,1.027c0.813,0.661,1.49,1.624,1.91,2.78l2.102-0.851
		c-0.559-1.537-1.469-2.859-2.637-3.811c-1.165-0.95-2.601-1.523-4.142-1.522c-0.001,0-0.003,0-0.004,0
		c-2.093,0-3.972,1.055-5.282,2.675c-1.318,1.623-2.107,3.822-2.109,6.229C163.575,222.768,164.364,224.967,165.683,226.59z"/>
</g>
</svg>
