<?xml version="1.0" encoding="utf-8"?>
<!-- Generator: Adobe Illustrator 16.0.0, SVG Export Plug-In . SVG Version: 6.00 Build 0)  -->
<!DOCTYPE svg PUBLIC "-//W3C//DTD SVG 1.1//EN" "http://www.w3.org/Graphics/SVG/1.1/DTD/svg11.dtd">
<svg version="1.1" id="圖層_1" xmlns="http://www.w3.org/2000/svg" xmlns:xlink="http://www.w3.org/1999/xlink" x="0px" y="0px"
	 width="188.25px" height="250px" viewBox="0 0 188.25 250" enable-background="new 0 0 188.25 250" xml:space="preserve">
<g>
	<path display="none" fill="#F9FAF9" stroke="#000000" d="M183.417,235.549c0,7.828-6.346,14.174-14.174,14.174H19.007
		c-7.827,0-14.173-6.346-14.173-14.174V14.45c0-7.828,6.346-14.173,14.173-14.173h150.236c7.828,0,14.174,6.346,14.174,14.173
		V235.549z"/>
	<path fill="#E13837" d="M17.602,42.797c1.786,3.47,4.145,6.309,7.075,8.512c-2.931,2.207-5.289,5.039-7.075,8.496
		c-1.803-3.457-4.168-6.289-7.098-8.496C13.434,49.106,15.799,46.267,17.602,42.797L17.602,42.797z"/>
	<path fill="#E13837" d="M170.672,190.195c1.786,3.469,4.146,6.307,7.075,8.512c-2.93,2.207-5.289,5.039-7.075,8.496
		c-1.802-3.457-4.169-6.289-7.098-8.496C166.503,196.502,168.87,193.664,170.672,190.195L170.672,190.195z"/>
	<path fill="#E13837" d="M50.922,25.789c4.469,8.674,10.365,15.77,17.691,21.283c-7.326,5.517-13.223,12.595-17.691,21.237
		c-4.503-8.642-10.417-15.721-17.742-21.237C40.505,41.559,46.419,34.463,50.922,25.789L50.922,25.789z"/>
	<path fill="#E13837" d="M50.922,103.742c4.468,8.679,10.364,15.775,17.691,21.273c-7.327,5.513-13.224,12.599-17.691,21.243
		c-4.503-8.645-10.418-15.73-17.742-21.243C40.504,119.517,46.419,112.421,50.922,103.742L50.922,103.742z"/>
	<path fill="#E13837" d="M50.922,181.691c4.469,8.674,10.364,15.768,17.691,21.281c-7.327,5.518-13.223,12.598-17.691,21.238
		c-4.503-8.641-10.417-15.721-17.742-21.238C40.505,197.459,46.419,190.365,50.922,181.691L50.922,181.691z"/>
	<path fill="#E13837" d="M137.378,25.789c4.47,8.674,10.365,15.77,17.691,21.283c-7.326,5.517-13.222,12.595-17.691,21.237
		c-4.502-8.642-10.416-15.721-17.74-21.237C126.962,41.559,132.876,34.463,137.378,25.789L137.378,25.789z"/>
	<path fill="#E13837" d="M137.378,103.741c4.469,8.68,10.364,15.773,17.691,21.271c-7.327,5.515-13.223,12.601-17.691,21.245
		c-4.502-8.645-10.416-15.73-17.741-21.245C126.962,119.515,132.876,112.421,137.378,103.741L137.378,103.741z"/>
	<path fill="#E13837" d="M137.378,181.691c4.469,8.674,10.364,15.77,17.691,21.283c-7.327,5.516-13.223,12.594-17.691,21.236
		c-4.502-8.643-10.416-15.721-17.741-21.236C126.962,197.461,132.876,190.365,137.378,181.691L137.378,181.691z"/>
	<path fill="#E13837" d="M22.853,23.769c-0.604-0.792-1.358-1.445-2.235-1.893c-0.875-0.448-1.871-0.689-2.94-0.689
		c-0.029,0-0.055,0-0.076,0c-1.074,0.011-2.074,0.284-2.949,0.768c-0.581,0.321-1.1,0.737-1.562,1.218
		c0.042-0.248,0.084-0.488,0.127-0.708c0.133-0.677,0.264-1.215,0.359-1.577c0.049-0.181,0.088-0.318,0.115-0.409
		c0.014-0.044,0.023-0.077,0.029-0.098c0.004-0.01,0.006-0.018,0.007-0.021c0-0.001,0.001-0.002,0.001-0.002v-0.002l0.011-0.029
		l0.007-0.026l0.002-0.005v0c0.022-0.083,0.296-0.937,0.912-1.736c0.319-0.417,0.727-0.82,1.237-1.128
		c0.511-0.309,1.129-0.531,1.924-0.576c0.111-0.006,0.218-0.008,0.323-0.008c1.412,0.004,2.34,0.502,2.951,0.986
		c0.305,0.243,0.523,0.484,0.66,0.656c0.068,0.086,0.115,0.154,0.145,0.194c0.013,0.021,0.021,0.034,0.024,0.04
		c0.002,0.003,0.002,0.003,0.002,0.003l0.544-0.387l1.304-0.895c-0.053-0.09-0.478-0.818-1.392-1.55
		c-0.908-0.732-2.332-1.451-4.238-1.447c-0.141,0-0.284,0.004-0.432,0.012c-1.155,0.061-2.146,0.416-2.946,0.917
		c-1.203,0.753-1.97,1.803-2.44,2.649c-0.428,0.774-0.618,1.393-0.664,1.55c-0.113,0.36-1.157,3.746-1.159,8.375
		c0,0.85,0.044,1.749,0.128,2.671c0.096,2.108,0.758,4.013,1.899,5.436c1.227,1.539,3.025,2.484,5.059,2.484
		c0.007,0,0.015,0,0.022,0c1.07,0,2.071-0.255,2.951-0.723c1.324-0.699,2.363-1.864,3.057-3.267
		c0.695-1.405,1.056-3.053,1.057-4.785C24.675,27.484,24.061,25.36,22.853,23.769z M21.127,34.342
		c-0.426,0.565-0.933,1.01-1.514,1.319c-0.582,0.307-1.244,0.483-2.002,0.483c-1.443-0.006-2.59-0.622-3.441-1.67
		c-0.745-0.929-1.244-2.226-1.351-3.763l0.011-0.001c-0.01-0.093-0.012-0.182-0.021-0.274c-0.005-0.114-0.013-0.227-0.013-0.344
		c-0.002-1.828,0.502-3.485,1.343-4.639c0.421-0.579,0.921-1.036,1.496-1.354c0.576-0.318,1.229-0.502,1.985-0.511
		c0.021,0,0.041,0,0.056,0c0.776,0.001,1.441,0.17,2.019,0.464c0.862,0.443,1.544,1.173,2.032,2.152
		c0.485,0.978,0.763,2.204,0.763,3.566C22.491,31.592,21.977,33.215,21.127,34.342z"/>
	<path fill="#E13837" d="M165.397,226.23c0.604,0.791,1.359,1.445,2.234,1.893c0.876,0.447,1.871,0.689,2.941,0.688
		c0.029,0,0.055,0,0.076,0c1.074-0.012,2.074-0.283,2.949-0.768c0.58-0.322,1.1-0.736,1.561-1.219
		c-0.041,0.248-0.084,0.488-0.127,0.709c-0.131,0.676-0.262,1.215-0.358,1.576c-0.05,0.182-0.089,0.318-0.115,0.408
		c-0.014,0.045-0.022,0.078-0.029,0.098c-0.004,0.01-0.007,0.018-0.007,0.021l-0.002,0.002v0.002l-0.01,0.029l-0.006,0.025
		l-0.002,0.006l0,0c-0.023,0.084-0.297,0.938-0.913,1.736c-0.319,0.416-0.727,0.82-1.237,1.127
		c-0.512,0.309-1.129,0.531-1.924,0.576c-0.111,0.006-0.219,0.008-0.323,0.008c-1.411-0.004-2.339-0.502-2.952-0.986
		c-0.304-0.242-0.523-0.484-0.66-0.654c-0.066-0.086-0.115-0.154-0.143-0.195c-0.014-0.02-0.021-0.033-0.025-0.039
		c-0.002-0.004-0.002-0.004-0.002-0.004l-0.544,0.389l-1.304,0.895c0.053,0.09,0.478,0.818,1.391,1.549
		c0.91,0.732,2.333,1.451,4.239,1.447c0.14,0,0.284-0.004,0.433-0.012c1.154-0.061,2.146-0.416,2.945-0.916
		c1.203-0.754,1.97-1.803,2.439-2.65c0.428-0.773,0.619-1.393,0.664-1.549c0.113-0.361,1.158-3.746,1.16-8.377
		c0-0.85-0.044-1.748-0.127-2.67c-0.097-2.109-0.759-4.014-1.9-5.436c-1.227-1.539-3.025-2.484-5.059-2.484
		c-0.008,0-0.016,0-0.022,0c-1.071,0-2.071,0.254-2.952,0.723c-1.322,0.699-2.361,1.863-3.055,3.266
		c-0.695,1.406-1.057,3.053-1.059,4.785C163.575,222.516,164.188,224.639,165.397,226.23z M167.124,215.656
		c0.426-0.564,0.932-1.01,1.513-1.318c0.583-0.307,1.243-0.482,2.002-0.484c1.442,0.008,2.59,0.623,3.44,1.672
		c0.746,0.928,1.245,2.225,1.352,3.762l-0.012,0.002c0.01,0.092,0.014,0.182,0.021,0.273c0.004,0.115,0.013,0.227,0.013,0.344
		c0.002,1.828-0.503,3.486-1.343,4.639c-0.42,0.58-0.921,1.037-1.496,1.355c-0.576,0.318-1.23,0.502-1.985,0.512
		c-0.022,0-0.041,0-0.056,0c-0.775-0.002-1.441-0.17-2.018-0.465c-0.863-0.443-1.545-1.174-2.033-2.152
		c-0.486-0.977-0.763-2.203-0.763-3.566C165.759,218.406,166.273,216.783,167.124,215.656z"/>
</g>
</svg>
