<?xml version="1.0" encoding="utf-8"?>
<!-- Generator: Adobe Illustrator 16.0.0, SVG Export Plug-In . SVG Version: 6.00 Build 0)  -->
<!DOCTYPE svg PUBLIC "-//W3C//DTD SVG 1.1//EN" "http://www.w3.org/Graphics/SVG/1.1/DTD/svg11.dtd">
<svg version="1.1" id="圖層_1" xmlns="http://www.w3.org/2000/svg" xmlns:xlink="http://www.w3.org/1999/xlink" x="0px" y="0px"
	 width="188.25px" height="250px" viewBox="0 0 188.25 250" enable-background="new 0 0 188.25 250" xml:space="preserve">
<g>
	<g display="none">
		<path display="inline" fill="#F9FAF9" stroke="#000000" d="M183.416,235.547c0,7.828-6.346,14.174-14.174,14.174H19.006
			c-7.827,0-14.173-6.346-14.173-14.174V14.452c0-7.827,6.346-14.173,14.173-14.173h150.236c7.828,0,14.174,6.346,14.174,14.173
			V235.547z"/>
	</g>
	<path fill="#E13837" d="M17.601,42.799c1.786,3.471,4.146,6.309,7.075,8.513c-2.93,2.207-5.289,5.038-7.075,8.495
		c-1.802-3.457-4.167-6.288-7.098-8.495C13.434,49.107,15.799,46.27,17.601,42.799L17.601,42.799z"/>
	<path fill="#E13837" d="M170.67,190.192c1.787,3.47,4.146,6.308,7.076,8.513c-2.93,2.206-5.289,5.038-7.076,8.495
		c-1.803-3.457-4.168-6.289-7.098-8.495C166.502,196.5,168.867,193.662,170.67,190.192L170.67,190.192z"/>
	<path fill="#E13837" d="M50.921,25.791c4.47,8.675,10.366,15.77,17.692,21.283c-7.326,5.517-13.223,12.595-17.692,21.236
		c-4.503-8.642-10.417-15.72-17.741-21.236C40.504,41.561,46.418,34.466,50.921,25.791L50.921,25.791z"/>
	<path fill="#E13837" d="M50.922,103.743c4.467,8.675,10.363,15.77,17.691,21.274c-7.328,5.514-13.225,12.596-17.691,21.238
		c-4.504-8.643-10.418-15.725-17.742-21.238C40.504,119.513,46.418,112.418,50.922,103.743L50.922,103.743z"/>
	<path fill="#E13837" d="M50.922,181.688c4.469,8.675,10.363,15.769,17.691,21.282c-7.328,5.518-13.223,12.596-17.691,21.237
		c-4.504-8.642-10.418-15.72-17.742-21.237C40.504,197.457,46.418,190.363,50.922,181.688L50.922,181.688z"/>
	<path fill="#E13837" d="M137.377,25.791c4.469,8.675,10.365,15.77,17.691,21.283c-7.326,5.517-13.223,12.595-17.691,21.236
		c-4.502-8.642-10.416-15.72-17.74-21.236C126.961,41.561,132.875,34.466,137.377,25.791L137.377,25.791z"/>
	<path fill="#E13837" d="M137.377,103.743c4.469,8.677,10.365,15.77,17.691,21.274c-7.326,5.512-13.223,12.596-17.691,21.238
		c-4.502-8.643-10.416-15.727-17.74-21.238C126.961,119.513,132.875,112.42,137.377,103.743L137.377,103.743z"/>
	<path fill="#E13837" d="M137.377,181.688c4.469,8.675,10.365,15.77,17.691,21.282c-7.326,5.517-13.223,12.596-17.691,21.237
		c-4.502-8.642-10.416-15.721-17.74-21.237C126.961,197.458,132.875,190.363,137.377,181.688L137.377,181.688z"/>
	<path fill="#E13837" d="M94.149,56.972c4.47,8.675,10.365,15.771,17.691,21.283c-7.326,5.517-13.221,12.595-17.691,21.237
		c-4.502-8.643-10.416-15.721-17.74-21.237C83.733,72.742,89.647,65.646,94.149,56.972L94.149,56.972z"/>
	<path fill="#E13837" d="M10.504,14.452v1.442h-0.002v2.452l2.227-0.002l-0.002-1.486h9.346c-1.449,2.656-5.354,10.628-6.766,21.688
		l2.238-0.002c0.83-6.522,2.254-11.626,3.879-15.409c0.813-1.892,1.572-3.373,2.125-4.375c0.277-0.501,0.502-0.883,0.656-1.136
		c0.16-0.266,0.432-0.705,0.471-0.767v-2.406H10.504z"/>
	<path fill="#E13837" d="M177.744,235.547v-1.442h0.002v-2.452l-2.227,0.002l0.002,1.486h-9.346
		c1.449-2.656,5.354-10.628,6.766-21.688l-2.238,0.001c-0.83,6.523-2.252,11.627-3.879,15.41c-0.813,1.892-1.572,3.373-2.125,4.375
		c-0.277,0.501-0.502,0.883-0.654,1.136c-0.162,0.266-0.434,0.705-0.473,0.767v2.406H177.744z"/>
</g>
</svg>
