<?xml version="1.0" encoding="utf-8"?>
<!-- Generator: Adobe Illustrator 16.0.0, SVG Export Plug-In . SVG Version: 6.00 Build 0)  -->
<!DOCTYPE svg PUBLIC "-//W3C//DTD SVG 1.1//EN" "http://www.w3.org/Graphics/SVG/1.1/DTD/svg11.dtd">
<svg version="1.1" id="圖層_1" xmlns="http://www.w3.org/2000/svg" xmlns:xlink="http://www.w3.org/1999/xlink" x="0px" y="0px"
	 width="188.25px" height="250px" viewBox="0 0 188.25 250" enable-background="new 0 0 188.25 250" xml:space="preserve">
<g>
	<path display="none" fill="#F9F9F8" stroke="#231815" d="M183.756,235.746c0,7.828-6.346,14.174-14.174,14.174H19.346
		c-7.827,0-14.173-6.346-14.173-14.174V14.647c0-7.828,6.346-14.173,14.173-14.173h150.236c7.828,0,14.174,6.346,14.174,14.173
		V235.746z"/>
	<g>
		<path fill="#E03837" d="M17.94,42.994c1.786,3.47,4.146,6.309,7.075,8.512c-2.93,2.207-5.289,5.039-7.075,8.496
			c-1.802-3.457-4.167-6.289-7.098-8.496C13.773,49.303,16.139,46.464,17.94,42.994L17.94,42.994z"/>
		<path fill="#E03837" d="M171.01,190.392c1.787,3.47,4.146,6.308,7.076,8.513c-2.93,2.206-5.289,5.038-7.076,8.495
			c-1.803-3.457-4.168-6.289-7.098-8.495C166.842,196.699,169.207,193.861,171.01,190.392L171.01,190.392z"/>
		<path fill="#E03837" d="M51.262,25.987c4.469,8.675,10.365,15.77,17.691,21.283c-7.326,5.517-13.223,12.595-17.691,21.236
			c-4.504-8.642-10.418-15.72-17.742-21.236C40.844,41.756,46.758,34.662,51.262,25.987L51.262,25.987z"/>
		<path fill="#E03837" d="M51.261,77.955c4.469,8.676,10.365,15.771,17.692,21.285c-7.327,5.516-13.224,12.595-17.692,21.232
			c-4.503-8.637-10.417-15.716-17.741-21.232C40.844,93.725,46.758,86.63,51.261,77.955L51.261,77.955z"/>
		<path fill="#E03837" d="M51.262,129.92c4.469,8.674,10.364,15.77,17.691,21.282c-7.327,5.517-13.223,12.597-17.691,21.237
			c-4.504-8.641-10.418-15.721-17.742-21.237C40.844,145.689,46.758,138.594,51.262,129.92L51.262,129.92z"/>
		<path fill="#E03837" d="M51.262,181.888c4.469,8.674,10.365,15.769,17.691,21.282c-7.326,5.518-13.223,12.597-17.691,21.237
			c-4.504-8.641-10.418-15.72-17.742-21.237C40.844,197.656,46.758,190.562,51.262,181.888L51.262,181.888z"/>
		<path fill="#E03837" d="M137.717,25.986c4.469,8.675,10.365,15.77,17.691,21.283c-7.326,5.517-13.223,12.595-17.691,21.236
			c-4.502-8.642-10.416-15.72-17.74-21.236C127.301,41.755,133.215,34.661,137.717,25.986L137.717,25.986z"/>
		<path fill="#E03837" d="M137.717,77.955c4.469,8.674,10.365,15.77,17.691,21.284c-7.326,5.516-13.223,12.595-17.691,21.232
			c-4.502-8.637-10.418-15.716-17.74-21.232C127.299,93.724,133.215,86.629,137.717,77.955L137.717,77.955z"/>
		<path fill="#E03837" d="M137.717,129.919c4.469,8.675,10.365,15.77,17.691,21.282c-7.326,5.518-13.223,12.597-17.691,21.238
			c-4.502-8.642-10.416-15.721-17.74-21.238C127.301,145.688,133.215,138.594,137.717,129.919L137.717,129.919z"/>
		<path fill="#E03837" d="M137.717,181.888c4.469,8.674,10.365,15.769,17.691,21.282c-7.326,5.518-13.223,12.597-17.691,21.237
			c-4.502-8.641-10.416-15.72-17.74-21.237C127.301,197.656,133.215,190.562,137.717,181.888L137.717,181.888z"/>
		<path fill="#E03837" d="M94.488,103.938c4.471,8.684,10.365,15.784,17.691,21.292c-7.326,5.512-13.221,12.587-17.691,21.224
			c-4.502-8.637-10.416-15.712-17.74-21.224C84.072,119.722,89.986,112.623,94.488,103.938L94.488,103.938z"/>
		<path fill="none" d="M17.979,16.939c-0.746,0.001-1.395,0.168-1.967,0.463s-1.068,0.721-1.486,1.262
			c-0.834,1.079-1.34,2.634-1.338,4.377c-0.002,1.306,0.271,2.479,0.748,3.415c0.479,0.937,1.148,1.636,1.996,2.06
			c0.566,0.282,1.221,0.444,1.982,0.444c0.014,0,0.031,0,0.055,0c0.742-0.009,1.385-0.186,1.949-0.489
			c0.566-0.306,1.057-0.743,1.469-1.296c0.826-1.104,1.32-2.691,1.32-4.441c-0.002-1.732-0.52-3.188-1.35-4.195
			C20.521,17.535,19.395,16.946,17.979,16.939z"/>
		<path fill="#E03837" d="M24.82,22.022c-0.127-1.936-0.775-3.681-1.857-4.997c-1.205-1.473-2.973-2.378-4.971-2.378
			c-0.006,0-0.014,0-0.02,0c-1.053,0-2.035,0.244-2.9,0.691c-1.299,0.671-2.318,1.785-3,3.128c-0.682,1.345-1.037,2.921-1.039,4.58
			c0.002,2.189,0.605,4.223,1.791,5.744c0.594,0.76,1.334,1.385,2.195,1.813s1.838,0.659,2.889,0.658c0.027,0,0.055,0,0.074,0
			c1.055-0.01,2.037-0.271,2.896-0.735c0.73-0.394,1.363-0.933,1.9-1.568c-0.068,1.604-0.326,3.524-1.059,4.932
			c-0.383,0.739-0.873,1.338-1.539,1.771c-0.666,0.431-1.535,0.716-2.752,0.718c-0.887-0.001-1.58-0.208-2.156-0.512
			c-0.859-0.454-1.463-1.153-1.85-1.751c-0.193-0.298-0.328-0.567-0.414-0.753c-0.041-0.093-0.07-0.165-0.088-0.211
			c-0.01-0.021-0.016-0.037-0.018-0.045l-0.025,0.011l-2.037,0.792c0.033,0.089,0.416,1.233,1.428,2.423
			c0.506,0.594,1.176,1.197,2.037,1.653c0.859,0.456,1.91,0.755,3.123,0.754c0.004,0,0.01,0,0.014,0
			c1.533,0,2.832-0.382,3.869-1.057c0.781-0.505,1.404-1.167,1.887-1.897c0.723-1.098,1.141-2.34,1.396-3.549
			c0.254-1.21,0.348-2.397,0.385-3.409c0.025-0.707,0.035-1.394,0.035-2.042C25.016,24.405,24.85,22.357,24.82,22.022z
			 M21.381,27.18c-0.412,0.554-0.902,0.991-1.469,1.296c-0.564,0.304-1.207,0.48-1.949,0.489c-0.023,0-0.041,0-0.055,0
			c-0.762,0-1.416-0.163-1.982-0.444c-0.848-0.423-1.518-1.123-1.996-2.06c-0.477-0.936-0.75-2.109-0.748-3.415
			c-0.002-1.743,0.504-3.298,1.338-4.377c0.418-0.541,0.914-0.967,1.486-1.262s1.221-0.462,1.967-0.463
			c1.416,0.006,2.543,0.595,3.379,1.6c0.83,1.006,1.348,2.462,1.35,4.195C22.701,24.489,22.207,26.076,21.381,27.18z"/>
		<path fill="#E03837" d="M164.107,228.371c0.127,1.936,0.775,3.681,1.857,4.997c1.205,1.473,2.973,2.378,4.971,2.378
			c0.006,0,0.014,0,0.02,0c1.053,0,2.035-0.244,2.9-0.691c1.299-0.671,2.318-1.785,3-3.129s1.037-2.921,1.039-4.579
			c-0.002-2.188-0.605-4.223-1.791-5.744c-0.594-0.76-1.334-1.385-2.195-1.813s-1.838-0.659-2.889-0.658c-0.027,0-0.055,0-0.074,0
			c-1.055,0.01-2.037,0.271-2.896,0.735c-0.73,0.394-1.363,0.933-1.9,1.568c0.068-1.604,0.326-3.524,1.059-4.932
			c0.383-0.739,0.873-1.338,1.539-1.771c0.666-0.431,1.535-0.716,2.752-0.718c0.887,0.001,1.58,0.209,2.156,0.512
			c0.859,0.453,1.463,1.153,1.85,1.751c0.193,0.298,0.328,0.567,0.414,0.753c0.041,0.093,0.07,0.165,0.088,0.211
			c0.01,0.021,0.016,0.037,0.018,0.045l0.025-0.011l2.037-0.792c-0.033-0.09-0.416-1.233-1.428-2.424
			c-0.506-0.594-1.176-1.197-2.037-1.653c-0.859-0.456-1.91-0.755-3.123-0.754c-0.004,0-0.01,0-0.014,0
			c-1.533,0-2.832,0.382-3.869,1.057c-0.781,0.505-1.404,1.167-1.887,1.897c-0.723,1.098-1.141,2.34-1.396,3.549
			c-0.254,1.211-0.348,2.397-0.385,3.409c-0.025,0.706-0.035,1.394-0.035,2.042C163.912,225.988,164.078,228.036,164.107,228.371z
			 M167.547,223.213c0.412-0.553,0.902-0.99,1.469-1.296c0.564-0.304,1.207-0.48,1.949-0.489c0.023,0,0.041,0,0.055,0
			c0.762,0,1.416,0.162,1.982,0.444c0.848,0.423,1.518,1.122,1.996,2.06c0.477,0.936,0.75,2.109,0.748,3.415
			c0.002,1.743-0.504,3.298-1.338,4.377c-0.418,0.541-0.914,0.967-1.486,1.262s-1.221,0.462-1.967,0.464
			c-1.416-0.007-2.543-0.596-3.379-1.6c-0.83-1.007-1.348-2.463-1.35-4.195C166.227,225.904,166.721,224.317,167.547,223.213z"/>
	</g>
</g>
</svg>
