<?xml version="1.0" encoding="utf-8"?>
<!-- Generator: Adobe Illustrator 16.0.0, SVG Export Plug-In . SVG Version: 6.00 Build 0)  -->
<!DOCTYPE svg PUBLIC "-//W3C//DTD SVG 1.1//EN" "http://www.w3.org/Graphics/SVG/1.1/DTD/svg11.dtd">
<svg version="1.1" id="圖層_1" xmlns="http://www.w3.org/2000/svg" xmlns:xlink="http://www.w3.org/1999/xlink" x="0px" y="0px"
	 width="188.25px" height="250px" viewBox="0 0 188.25 250" enable-background="new 0 0 188.25 250" xml:space="preserve">
<g>
	<path display="none" fill="#F9F9F8" stroke="#231815" d="M183.598,236.293c0,7.827-6.344,14.173-14.172,14.173H19.19
		c-7.828,0-14.174-6.346-14.174-14.173V15.189c0-7.827,6.346-14.173,14.174-14.173h150.236c7.828,0,14.172,6.346,14.172,14.173
		V236.293z"/>
	<path d="M17.771,43.537c-1.862,0-3.376,1.703-3.376,3.802c0,1.198,0.501,2.265,1.269,2.966c0.258,0.238,0.146,0.496-0.115,0.334
		c-0.48-0.291-1.021-0.477-1.606-0.477c-1.797,0-3.256,1.643-3.256,3.666c0,2.025,1.459,3.668,3.256,3.668
		c1.197,0,2.247-0.729,2.811-1.816c0.056-0.107,0.098-0.252,0.176-0.252c0.108,0,0.158,0.174,0.158,0.502
		c0,1.314-0.504,2.85-1.252,4.615c0.324-0.076,1.298-0.271,1.937-0.271s1.615,0.195,1.937,0.271c-0.744-1.766-1.25-3.301-1.25-4.615
		c0-0.328,0.048-0.502,0.156-0.502c0.078,0,0.124,0.145,0.176,0.252c0.566,1.088,1.613,1.816,2.813,1.816
		c1.798,0,3.256-1.643,3.256-3.668c0-2.023-1.458-3.666-3.256-3.666c-0.585,0-1.129,0.186-1.608,0.477
		c-0.263,0.162-0.374-0.096-0.116-0.334c0.771-0.701,1.269-1.768,1.269-2.966C21.147,45.24,19.636,43.537,17.771,43.537z"/>
	<path d="M170.844,207.946c1.861,0,3.377-1.704,3.377-3.802c0-1.2-0.504-2.264-1.268-2.967c-0.262-0.238-0.148-0.495,0.117-0.334
		c0.477,0.292,1.02,0.477,1.602,0.477c1.797,0,3.258-1.643,3.258-3.667c0-2.023-1.461-3.666-3.258-3.666
		c-1.195,0-2.246,0.729-2.811,1.816c-0.055,0.106-0.1,0.253-0.176,0.253c-0.107,0-0.158-0.176-0.158-0.504
		c0-1.313,0.506-2.851,1.256-4.615c-0.324,0.076-1.303,0.271-1.939,0.271s-1.615-0.195-1.936-0.271
		c0.744,1.765,1.252,3.302,1.252,4.615c0,0.328-0.051,0.504-0.16,0.504c-0.074,0-0.121-0.146-0.176-0.253
		c-0.563-1.088-1.613-1.816-2.811-1.816c-1.797,0-3.258,1.643-3.258,3.666c0,2.024,1.461,3.667,3.258,3.667
		c0.582,0,1.127-0.185,1.604-0.477c0.266-0.161,0.377,0.096,0.121,0.334c-0.77,0.703-1.271,1.767-1.271,2.967
		C167.467,206.242,168.98,207.946,170.844,207.946z"/>
	<path d="M94.307,104.482c-4.659,0-8.44,4.258-8.44,9.502c0,3,1.251,5.66,3.172,7.416c0.647,0.594,0.369,1.238-0.292,0.836
		c-1.198-0.729-2.552-1.191-4.015-1.191c-4.493,0-8.141,4.105-8.141,9.164c0,5.061,3.647,9.167,8.141,9.167
		c2.997,0,5.618-1.822,7.028-4.54c0.137-0.267,0.246-0.631,0.443-0.631c0.266,0,0.391,0.437,0.391,1.255
		c0,3.288-1.262,7.126-3.127,11.541c0.805-0.192,3.248-0.679,4.84-0.679c1.597,0,4.037,0.486,4.845,0.679
		c-1.867-4.415-3.131-8.253-3.131-11.541c0-0.818,0.127-1.255,0.395-1.255c0.195,0,0.305,0.364,0.439,0.631
		c1.412,2.718,4.031,4.54,7.027,4.54c4.496,0,8.141-4.106,8.141-9.167c0-5.059-3.645-9.164-8.141-9.164
		c-1.459,0-2.814,0.463-4.018,1.191c-0.654,0.402-0.936-0.242-0.285-0.836c1.918-1.756,3.168-4.416,3.168-7.416
		C102.748,108.74,98.967,104.482,94.307,104.482z"/>
	<g>
		<polygon fill="none" points="15.659,31.148 19.985,31.143 17.826,19.588 		"/>
		<path d="M23.247,36.982L19.18,15.216l-2.189-0.026l0.004,0.016l-0.545-0.004l-4.057,21.781l-1.705,0.001l-0.003,2.302h5.45
			l0.003-2.303h-1.572l0.624-3.334l5.262-0.008l0.624,3.342l-1.667-0.002l-0.004,2.303l5.45,0.002l0.003-2.303H23.247z
			 M15.659,31.148l2.167-11.561l2.159,11.555L15.659,31.148z"/>
	</g>
	<g>
		<polygon fill="none" points="172.955,220.334 168.631,220.34 170.789,231.895 		"/>
		<path d="M165.367,214.5l4.068,21.767l2.188,0.026l-0.002-0.016l0.545,0.004l4.055-21.781l1.705-0.001l0.004-2.302h-5.449
			l-0.004,2.303h1.572l-0.625,3.334l-5.26,0.008l-0.625-3.342l1.666,0.002l0.006-2.303l-5.451-0.002l-0.004,2.303H165.367z
			 M172.955,220.334l-2.166,11.561l-2.158-11.555L172.955,220.334z"/>
	</g>
</g>
</svg>
