<?xml version="1.0" encoding="utf-8"?>
<!-- Generator: Adobe Illustrator 16.0.0, SVG Export Plug-In . SVG Version: 6.00 Build 0)  -->
<!DOCTYPE svg PUBLIC "-//W3C//DTD SVG 1.1//EN" "http://www.w3.org/Graphics/SVG/1.1/DTD/svg11.dtd">
<svg version="1.1" id="圖層_1" xmlns="http://www.w3.org/2000/svg" xmlns:xlink="http://www.w3.org/1999/xlink" x="0px" y="0px"
	 width="188.25px" height="250px" viewBox="0 0 188.25 250" enable-background="new 0 0 188.25 250" xml:space="preserve">
<path display="none" fill="#F9F9F8" stroke="#231815" d="M183.756,235.749c0,7.827-6.345,14.173-14.173,14.173H19.347
	c-7.827,0-14.173-6.346-14.173-14.173V14.647c0-7.828,6.346-14.174,14.173-14.174h150.236c7.828,0,14.173,6.346,14.173,14.174
	V235.749z"/>
<path d="M17.931,42.994c-1.864,0-3.377,1.703-3.377,3.802c0,1.199,0.501,2.264,1.269,2.966c0.259,0.238,0.147,0.495-0.116,0.334
	c-0.479-0.292-1.021-0.477-1.605-0.477c-1.798,0-3.257,1.643-3.257,3.667c0,2.023,1.459,3.667,3.257,3.667
	c1.198,0,2.247-0.729,2.81-1.816c0.056-0.106,0.1-0.253,0.178-0.253c0.107,0,0.157,0.175,0.157,0.503
	c0,1.314-0.505,2.851-1.251,4.615c0.322-0.076,1.298-0.271,1.937-0.271c0.638,0,1.613,0.195,1.937,0.271
	c-0.746-1.765-1.252-3.301-1.252-4.615c0-0.328,0.05-0.503,0.157-0.503c0.078,0,0.122,0.146,0.178,0.253
	c0.563,1.088,1.611,1.816,2.811,1.816c1.797,0,3.256-1.644,3.256-3.667c0-2.024-1.459-3.667-3.256-3.667
	c-0.585,0-1.127,0.186-1.606,0.477c-0.264,0.161-0.375-0.097-0.116-0.334c0.769-0.702,1.269-1.767,1.269-2.966
	C21.307,44.697,19.794,42.994,17.931,42.994z"/>
<path d="M171.002,207.402c1.862,0,3.376-1.704,3.376-3.802c0-1.199-0.501-2.264-1.268-2.967c-0.26-0.237-0.148-0.494,0.115-0.334
	c0.479,0.291,1.021,0.477,1.605,0.477c1.797,0,3.257-1.643,3.257-3.666s-1.46-3.667-3.257-3.667c-1.198,0-2.246,0.729-2.81,1.817
	c-0.056,0.105-0.101,0.252-0.178,0.252c-0.107,0-0.157-0.176-0.157-0.503c0-1.314,0.505-2.851,1.251-4.615
	c-0.322,0.076-1.299,0.271-1.936,0.271c-0.639,0-1.614-0.194-1.938-0.271c0.746,1.765,1.252,3.301,1.252,4.615
	c0,0.327-0.051,0.503-0.157,0.503c-0.078,0-0.123-0.146-0.177-0.252c-0.563-1.089-1.613-1.817-2.812-1.817
	c-1.797,0-3.256,1.644-3.256,3.667s1.459,3.666,3.256,3.666c0.585,0,1.127-0.186,1.606-0.477c0.264-0.16,0.375,0.097,0.116,0.334
	c-0.768,0.703-1.269,1.768-1.269,2.967C167.625,205.698,169.138,207.402,171.002,207.402z"/>
<path d="M51.237,25.986c-4.66,0-8.441,4.258-8.441,9.504c0,2.999,1.251,5.66,3.17,7.416c0.647,0.593,0.371,1.237-0.289,0.836
	c-1.199-0.729-2.554-1.192-4.015-1.192c-4.494,0-8.142,4.106-8.142,9.167s3.647,9.167,8.142,9.167c2.995,0,5.617-1.822,7.025-4.542
	c0.138-0.266,0.249-0.631,0.443-0.631c0.268,0,0.393,0.438,0.393,1.256c0,3.288-1.263,7.126-3.128,11.539
	c0.806-0.192,3.247-0.678,4.842-0.678c1.594,0,4.035,0.486,4.841,0.678c-1.866-4.412-3.128-8.251-3.128-11.539
	c0-0.818,0.125-1.256,0.392-1.256c0.195,0,0.306,0.365,0.443,0.631c1.408,2.719,4.031,4.542,7.026,4.542
	c4.494,0,8.142-4.107,8.142-9.167s-3.647-9.167-8.142-9.167c-1.461,0-2.815,0.463-4.015,1.192c-0.66,0.401-0.938-0.243-0.289-0.836
	c1.918-1.756,3.169-4.417,3.169-7.416C59.677,30.244,55.896,25.986,51.237,25.986z"/>
<path d="M51.237,77.954c-4.66,0-8.441,4.256-8.441,9.5c0,2.998,1.251,5.658,3.17,7.414c0.647,0.593,0.371,1.237-0.289,0.836
	c-1.199-0.729-2.554-1.192-4.015-1.192c-4.494,0-8.142,4.105-8.142,9.163c0,5.059,3.647,9.164,8.142,9.164
	c2.995,0,5.617-1.822,7.025-4.54c0.138-0.266,0.249-0.63,0.443-0.63c0.268,0,0.393,0.437,0.393,1.255
	c0,3.286-1.263,7.129-3.128,11.551c0.806-0.192,3.247-0.68,4.842-0.68c1.594,0,4.035,0.487,4.841,0.68
	c-1.866-4.421-3.128-8.265-3.128-11.551c0-0.818,0.125-1.255,0.392-1.255c0.195,0,0.306,0.365,0.443,0.63
	c1.408,2.718,4.031,4.54,7.026,4.54c4.494,0,8.142-4.105,8.142-9.164c0-5.058-3.647-9.163-8.142-9.163
	c-1.461,0-2.815,0.463-4.015,1.192c-0.66,0.401-0.938-0.243-0.289-0.836c1.918-1.755,3.169-4.416,3.169-7.414
	C59.677,82.21,55.896,77.954,51.237,77.954z"/>
<path d="M51.236,224.41c4.66,0,8.441-4.257,8.441-9.503c0-3-1.252-5.66-3.17-7.417c-0.648-0.593-0.371-1.238,0.289-0.837
	c1.199,0.73,2.554,1.193,4.015,1.193c4.494,0,8.142-4.106,8.142-9.166c0-5.061-3.647-9.168-8.142-9.168
	c-2.995,0-5.617,1.822-7.025,4.541c-0.138,0.266-0.249,0.631-0.444,0.631c-0.267,0-0.392-0.438-0.392-1.256
	c0-3.287,1.262-7.126,3.128-11.538c-0.806,0.191-3.247,0.679-4.842,0.679s-4.035-0.487-4.841-0.679
	c1.866,4.412,3.128,8.251,3.128,11.538c0,0.818-0.125,1.256-0.393,1.256c-0.194,0-0.306-0.365-0.443-0.631
	c-1.408-2.719-4.03-4.541-7.025-4.541c-4.494,0-8.142,4.107-8.142,9.168c0,5.06,3.647,9.166,8.142,9.166
	c1.461,0,2.815-0.463,4.015-1.193c0.66-0.401,0.938,0.244,0.289,0.837c-1.919,1.757-3.169,4.417-3.169,7.417
	C42.797,220.153,46.578,224.41,51.236,224.41z"/>
<path d="M51.237,172.442c4.66,0,8.441-4.258,8.441-9.504c0-3-1.252-5.66-3.17-7.416c-0.648-0.594-0.371-1.238,0.289-0.837
	c1.199,0.729,2.553,1.193,4.015,1.193c4.494,0,8.142-4.106,8.142-9.167s-3.647-9.168-8.142-9.168c-2.995,0-5.617,1.822-7.025,4.542
	c-0.138,0.265-0.249,0.63-0.443,0.63c-0.268,0-0.393-0.437-0.393-1.256c0-3.286,1.262-7.125,3.128-11.537
	c-0.806,0.191-3.247,0.678-4.842,0.678s-4.035-0.486-4.841-0.678c1.866,4.412,3.128,8.251,3.128,11.537
	c0,0.819-0.125,1.256-0.393,1.256c-0.194,0-0.305-0.365-0.443-0.63c-1.408-2.72-4.03-4.542-7.025-4.542
	c-4.494,0-8.143,4.107-8.143,9.168s3.648,9.167,8.143,9.167c1.461,0,2.815-0.464,4.015-1.193c0.66-0.401,0.938,0.243,0.289,0.837
	c-1.918,1.756-3.169,4.416-3.169,7.416C42.798,168.185,46.579,172.442,51.237,172.442z"/>
<path d="M137.693,25.986c-4.659,0-8.44,4.258-8.44,9.504c0,2.999,1.251,5.66,3.17,7.416c0.647,0.593,0.37,1.237-0.29,0.836
	c-1.199-0.729-2.553-1.192-4.015-1.192c-4.494,0-8.142,4.106-8.142,9.167s3.647,9.167,8.142,9.167c2.995,0,5.618-1.822,7.025-4.542
	c0.139-0.266,0.249-0.631,0.444-0.631c0.267,0,0.392,0.438,0.392,1.256c0,3.288-1.262,7.126-3.127,11.539
	c0.806-0.192,3.246-0.678,4.841-0.678s4.035,0.486,4.841,0.678c-1.866-4.412-3.128-8.251-3.128-11.539
	c0-0.818,0.125-1.256,0.393-1.256c0.195,0,0.306,0.365,0.443,0.631c1.408,2.719,4.031,4.542,7.025,4.542
	c4.494,0,8.143-4.107,8.143-9.167s-3.648-9.167-8.143-9.167c-1.461,0-2.814,0.463-4.015,1.192c-0.659,0.401-0.938-0.243-0.289-0.836
	c1.919-1.756,3.17-4.417,3.17-7.416C146.134,30.244,142.352,25.986,137.693,25.986z"/>
<path d="M137.693,77.954c-4.659,0-8.44,4.256-8.44,9.5c0,2.999,1.251,5.659,3.17,7.414c0.647,0.593,0.37,1.237-0.29,0.836
	c-1.199-0.729-2.553-1.192-4.015-1.192c-4.494,0-8.142,4.105-8.142,9.163c0,5.059,3.647,9.164,8.142,9.164
	c2.995,0,5.618-1.822,7.025-4.54c0.139-0.266,0.249-0.63,0.444-0.63c0.267,0,0.392,0.437,0.392,1.255
	c0,3.286-1.262,7.129-3.127,11.551c0.806-0.192,3.246-0.68,4.841-0.68s4.035,0.487,4.841,0.68
	c-1.866-4.421-3.128-8.265-3.128-11.551c0-0.818,0.125-1.255,0.393-1.255c0.195,0,0.306,0.364,0.443,0.63
	c1.408,2.718,4.031,4.54,7.025,4.54c4.494,0,8.143-4.105,8.143-9.164c0-5.058-3.648-9.163-8.143-9.163
	c-1.461,0-2.814,0.463-4.015,1.192c-0.659,0.401-0.938-0.243-0.289-0.836c1.919-1.755,3.17-4.415,3.17-7.414
	C146.134,82.21,142.352,77.954,137.693,77.954z"/>
<path d="M137.693,224.41c4.659,0,8.44-4.257,8.44-9.503c0-3-1.251-5.66-3.17-7.417c-0.647-0.593-0.37-1.238,0.289-0.837
	c1.2,0.73,2.554,1.193,4.016,1.193c4.493,0,8.142-4.106,8.142-9.166c0-5.061-3.648-9.168-8.142-9.168
	c-2.995,0-5.618,1.822-7.025,4.541c-0.139,0.266-0.249,0.631-0.444,0.631c-0.267,0-0.393-0.438-0.393-1.256
	c0-3.287,1.263-7.126,3.128-11.538c-0.806,0.191-3.246,0.679-4.841,0.679s-4.035-0.487-4.842-0.679
	c1.867,4.412,3.128,8.251,3.128,11.538c0,0.818-0.124,1.256-0.392,1.256c-0.195,0-0.306-0.365-0.443-0.631
	c-1.408-2.719-4.031-4.541-7.025-4.541c-4.495,0-8.143,4.107-8.143,9.168c0,5.06,3.647,9.166,8.143,9.166
	c1.461,0,2.814-0.463,4.014-1.193c0.66-0.401,0.938,0.244,0.29,0.837c-1.919,1.757-3.17,4.417-3.17,7.417
	C129.253,220.153,133.034,224.41,137.693,224.41z"/>
<path d="M137.693,172.442c4.659,0,8.44-4.258,8.44-9.504c0-3-1.251-5.66-3.17-7.416c-0.647-0.594-0.37-1.238,0.289-0.837
	c1.2,0.729,2.554,1.193,4.016,1.193c4.493,0,8.142-4.106,8.142-9.167s-3.648-9.168-8.142-9.168c-2.995,0-5.618,1.822-7.025,4.542
	c-0.139,0.265-0.249,0.63-0.444,0.63c-0.267,0-0.393-0.437-0.393-1.256c0-3.286,1.263-7.125,3.128-11.537
	c-0.806,0.191-3.246,0.678-4.841,0.678s-4.035-0.486-4.842-0.678c1.867,4.412,3.128,8.251,3.128,11.537
	c0,0.819-0.124,1.256-0.392,1.256c-0.195,0-0.306-0.365-0.443-0.63c-1.408-2.72-4.031-4.542-7.025-4.542
	c-4.495,0-8.143,4.107-8.143,9.168s3.647,9.167,8.143,9.167c1.461,0,2.814-0.464,4.014-1.193c0.66-0.401,0.938,0.243,0.29,0.837
	c-1.919,1.756-3.17,4.416-3.17,7.416C129.253,168.185,133.034,172.442,137.693,172.442z"/>
<path d="M94.467,103.938c-4.66,0-8.441,4.261-8.441,9.509c0,3.001,1.251,5.664,3.17,7.421c0.648,0.594,0.371,1.238-0.289,0.836
	c-1.199-0.729-2.554-1.193-4.016-1.193c-4.494,0-8.142,4.109-8.142,9.171c0,5.056,3.647,9.158,8.142,9.158
	c2.996,0,5.618-1.82,7.026-4.536c0.138-0.267,0.249-0.63,0.444-0.63c0.267,0,0.392,0.437,0.392,1.254
	c0,3.283-1.263,7.119-3.128,11.529c0.806-0.193,3.247-0.68,4.842-0.68c1.593,0,4.033,0.486,4.839,0.68
	c-1.866-4.41-3.128-8.246-3.128-11.529c0-0.817,0.125-1.254,0.393-1.254c0.194,0,0.305,0.363,0.443,0.63
	c1.408,2.716,4.03,4.536,7.025,4.536c4.495,0,8.143-4.103,8.143-9.158c0-5.062-3.647-9.171-8.143-9.171
	c-1.461,0-2.815,0.464-4.015,1.193c-0.659,0.402-0.938-0.242-0.289-0.836c1.918-1.758,3.17-4.42,3.17-7.421
	C102.905,108.199,99.123,103.938,94.467,103.938z"/>
<g>
	<path fill="none" d="M17.974,16.944c-0.746,0.001-1.394,0.168-1.966,0.463c-0.572,0.295-1.069,0.721-1.487,1.262
		c-0.835,1.079-1.34,2.633-1.338,4.377c-0.002,1.305,0.271,2.479,0.748,3.415c0.479,0.938,1.148,1.637,1.997,2.06
		c0.564,0.282,1.22,0.444,1.981,0.444c0.015,0,0.032,0,0.054,0c0.742-0.009,1.385-0.185,1.95-0.489
		c0.565-0.305,1.056-0.742,1.47-1.296c0.824-1.104,1.32-2.691,1.318-4.441c-0.001-1.732-0.519-3.188-1.349-4.194
		C20.517,17.539,19.391,16.95,17.974,16.944z"/>
	<path d="M24.821,22.021c-0.128-1.936-0.774-3.681-1.858-4.997c-1.205-1.473-2.971-2.377-4.969-2.377c-0.006,0-0.014,0-0.021,0
		c-1.052,0-2.035,0.244-2.9,0.691c-1.299,0.671-2.318,1.786-3,3.129c-0.683,1.345-1.037,2.921-1.039,4.58
		c0.002,2.189,0.604,4.222,1.791,5.744c0.594,0.759,1.334,1.384,2.195,1.813c0.86,0.429,1.838,0.659,2.889,0.659
		c0.028,0,0.054,0,0.075,0c1.055-0.01,2.036-0.271,2.895-0.735c0.73-0.394,1.364-0.933,1.9-1.569
		c-0.068,1.604-0.324,3.525-1.059,4.932c-0.382,0.739-0.872,1.338-1.537,1.771c-0.668,0.431-1.536,0.716-2.753,0.718
		c-0.886-0.001-1.581-0.208-2.156-0.512c-0.86-0.453-1.464-1.153-1.85-1.751c-0.192-0.298-0.329-0.566-0.413-0.752
		c-0.043-0.093-0.072-0.166-0.09-0.211c-0.01-0.022-0.015-0.038-0.018-0.045l-0.025,0.011l-2.036,0.793
		c0.033,0.089,0.416,1.232,1.428,2.423c0.506,0.593,1.177,1.197,2.037,1.653c0.859,0.456,1.909,0.755,3.123,0.754
		c0.005,0,0.009,0,0.014,0c1.534,0,2.832-0.381,3.869-1.056c0.781-0.505,1.404-1.167,1.887-1.898c0.723-1.098,1.14-2.34,1.396-3.549
		c0.255-1.211,0.348-2.397,0.385-3.409c0.026-0.707,0.035-1.394,0.035-2.042C25.016,24.404,24.85,22.356,24.821,22.021z
		 M21.383,27.18c-0.414,0.554-0.904,0.991-1.47,1.296c-0.565,0.304-1.208,0.48-1.95,0.489c-0.021,0-0.039,0-0.054,0
		c-0.762,0-1.417-0.163-1.981-0.444c-0.849-0.423-1.518-1.123-1.997-2.06c-0.477-0.936-0.75-2.109-0.748-3.415
		c-0.002-1.744,0.503-3.298,1.338-4.377c0.418-0.541,0.915-0.967,1.487-1.262c0.572-0.295,1.22-0.462,1.966-0.463
		c1.417,0.006,2.543,0.595,3.379,1.6c0.83,1.006,1.348,2.462,1.349,4.194C22.703,24.488,22.207,26.075,21.383,27.18z"/>
</g>
<g>
	<path fill="none" d="M170.956,233.451c0.746-0.001,1.394-0.168,1.966-0.463c0.572-0.296,1.069-0.722,1.487-1.263
		c0.835-1.078,1.34-2.633,1.338-4.377c0.002-1.305-0.271-2.479-0.748-3.414c-0.479-0.938-1.148-1.637-1.997-2.061
		c-0.564-0.281-1.22-0.443-1.981-0.443c-0.015,0-0.032,0-0.054,0c-0.742,0.009-1.385,0.186-1.95,0.489
		c-0.565,0.306-1.056,0.742-1.47,1.296c-0.824,1.104-1.32,2.691-1.318,4.441c0.001,1.732,0.519,3.188,1.349,4.194
		C168.413,232.856,169.539,233.445,170.956,233.451z"/>
	<path d="M164.108,228.374c0.128,1.936,0.774,3.681,1.858,4.997c1.205,1.473,2.971,2.378,4.969,2.378c0.006,0,0.014,0,0.021,0
		c1.052,0,2.035-0.244,2.9-0.691c1.299-0.671,2.318-1.785,3-3.129c0.683-1.345,1.037-2.921,1.039-4.58
		c-0.002-2.188-0.604-4.222-1.791-5.744c-0.594-0.759-1.334-1.384-2.195-1.813c-0.86-0.43-1.838-0.659-2.889-0.658
		c-0.028,0-0.054,0-0.075,0c-1.055,0.01-2.036,0.271-2.895,0.734c-0.73,0.395-1.364,0.934-1.9,1.569
		c0.068-1.604,0.324-3.524,1.059-4.932c0.382-0.739,0.872-1.339,1.537-1.771c0.668-0.431,1.536-0.716,2.753-0.718
		c0.886,0.001,1.581,0.208,2.156,0.512c0.86,0.453,1.464,1.152,1.85,1.751c0.192,0.298,0.329,0.566,0.413,0.753
		c0.043,0.092,0.072,0.165,0.09,0.211c0.01,0.021,0.015,0.037,0.018,0.045l0.025-0.011l2.036-0.793
		c-0.033-0.089-0.416-1.232-1.428-2.423c-0.506-0.594-1.177-1.197-2.037-1.653c-0.859-0.456-1.909-0.755-3.123-0.754
		c-0.005,0-0.009,0-0.014,0c-1.534,0-2.832,0.382-3.869,1.056c-0.781,0.506-1.404,1.168-1.887,1.898
		c-0.723,1.098-1.14,2.34-1.396,3.549c-0.255,1.211-0.348,2.396-0.385,3.408c-0.026,0.707-0.035,1.395-0.035,2.043
		C163.914,225.991,164.08,228.039,164.108,228.374z M167.547,223.216c0.414-0.554,0.904-0.99,1.47-1.296
		c0.565-0.304,1.208-0.48,1.95-0.489c0.021,0,0.039,0,0.054,0c0.762,0,1.417,0.162,1.981,0.443c0.849,0.424,1.518,1.123,1.997,2.061
		c0.477,0.936,0.75,2.109,0.748,3.414c0.002,1.744-0.503,3.299-1.338,4.377c-0.418,0.541-0.915,0.967-1.487,1.263
		c-0.572,0.295-1.22,0.462-1.966,0.463c-1.417-0.006-2.543-0.595-3.379-1.6c-0.83-1.006-1.348-2.462-1.349-4.194
		C166.227,225.907,166.723,224.32,167.547,223.216z"/>
</g>
</svg>
