<?xml version="1.0" encoding="utf-8"?>
<!-- Generator: Adobe Illustrator 16.0.0, SVG Export Plug-In . SVG Version: 6.00 Build 0)  -->
<!DOCTYPE svg PUBLIC "-//W3C//DTD SVG 1.1//EN" "http://www.w3.org/Graphics/SVG/1.1/DTD/svg11.dtd">
<svg version="1.1" id="圖層_1" xmlns="http://www.w3.org/2000/svg" xmlns:xlink="http://www.w3.org/1999/xlink" x="0px" y="0px"
	 width="188.25px" height="250px" viewBox="0 0 188.25 250" enable-background="new 0 0 188.25 250" xml:space="preserve">
<g>
	<path display="none" fill="#F9FAF9" stroke="#000000" d="M183.417,235.549c0,7.828-6.346,14.174-14.174,14.174H19.007
		c-7.828,0-14.174-6.346-14.174-14.174V14.451c0-7.828,6.346-14.174,14.174-14.174h150.236c7.828,0,14.174,6.346,14.174,14.174
		V235.549z"/>
	<path d="M10.505,14.451v1.442h-0.002v2.452l2.227-0.002l-0.002-1.486h9.346c-1.449,2.657-5.354,10.628-6.766,21.688l2.238-0.001
		c0.83-6.522,2.252-11.627,3.879-15.41c0.813-1.892,1.572-3.373,2.125-4.375c0.277-0.501,0.502-0.883,0.654-1.136
		c0.162-0.266,0.434-0.705,0.473-0.767v-2.406H10.505z"/>
	<path d="M177.745,235.549v-1.441h0.002v-2.453l-2.227,0.002l0.002,1.486h-9.346c1.449-2.656,5.354-10.627,6.766-21.688h-2.238
		c-0.83,6.523-2.252,11.627-3.879,15.41c-0.813,1.893-1.572,3.373-2.125,4.375c-0.277,0.502-0.502,0.883-0.654,1.137
		c-0.162,0.266-0.434,0.705-0.473,0.766v2.406H177.745z"/>
	<path fill-rule="evenodd" clip-rule="evenodd" stroke="#000000" stroke-width="0.065" stroke-linejoin="round" d="M17.58,42.798
		c-0.041,0.027-0.07,0.041-0.117,0.072c-3.038,1.939-6.583,5.725-6.946,10.441c-0.173,2.244,1.263,3.798,3.117,3.832
		c1.185,0.021,2.137-0.399,2.653-1.203c0.429-0.668,0.538-1.699,0.607-1.223c0.25,1.816-0.511,3.563-0.922,5.088
		c0.459-0.167,1.035-0.251,1.613-0.253h0.01c0.577,0.002,1.152,0.086,1.61,0.253c-0.411-1.525-1.17-3.271-0.921-5.088
		c0.069-0.477,0.179,0.555,0.606,1.223c0.516,0.804,1.469,1.225,2.652,1.203c1.855-0.034,3.291-1.588,3.118-3.832
		c-0.364-4.717-3.908-8.502-6.943-10.441c-0.033-0.024-0.063-0.04-0.11-0.072H17.58z"/>
	<path fill-rule="evenodd" clip-rule="evenodd" stroke="#000000" stroke-width="0.065" stroke-linejoin="round" d="M170.651,207.201
		c-0.041-0.027-0.07-0.041-0.117-0.072c-3.039-1.939-6.584-5.725-6.947-10.441c-0.172-2.244,1.264-3.797,3.119-3.832
		c1.184-0.021,2.137,0.4,2.652,1.203c0.428,0.668,0.537,1.699,0.607,1.223c0.25-1.816-0.512-3.563-0.922-5.088
		c0.459,0.168,1.035,0.252,1.613,0.254h0.01c0.576-0.002,1.152-0.086,1.609-0.254c-0.41,1.525-1.17,3.271-0.92,5.088
		c0.068,0.477,0.178-0.555,0.605-1.223c0.516-0.803,1.469-1.225,2.652-1.203c1.855,0.035,3.291,1.588,3.119,3.832
		c-0.363,4.717-3.908,8.502-6.943,10.441c-0.033,0.025-0.063,0.041-0.111,0.072H170.651z"/>
	<path fill-rule="evenodd" clip-rule="evenodd" stroke="#000000" stroke-width="0.1625" stroke-linejoin="round" d="M50.872,25.79
		c-0.102,0.066-0.174,0.103-0.293,0.181c-7.596,4.849-16.455,14.31-17.363,26.104c-0.433,5.61,3.154,9.495,7.793,9.579
		c2.961,0.055,5.342-0.997,6.631-3.007c1.072-1.672,1.346-4.248,1.52-3.058c0.625,4.542-1.275,8.907-2.305,12.721
		c1.146-0.417,2.588-0.627,4.033-0.632h0.023c1.443,0.005,2.881,0.215,4.027,0.632c-1.027-3.813-2.926-8.179-2.303-12.721
		c0.174-1.19,0.447,1.386,1.518,3.058c1.289,2.01,3.67,3.062,6.631,3.007c4.639-0.084,8.225-3.969,7.793-9.579
		c-0.908-11.794-9.77-21.255-17.357-26.104c-0.084-0.063-0.156-0.1-0.275-0.181H50.872z"/>
	<path fill-rule="evenodd" clip-rule="evenodd" stroke="#000000" stroke-width="0.1625" stroke-linejoin="round" d="M137.329,25.79
		c-0.102,0.066-0.174,0.103-0.293,0.181c-7.596,4.849-16.455,14.31-17.363,26.104c-0.434,5.61,3.154,9.495,7.793,9.579
		c2.961,0.055,5.342-0.997,6.631-3.007c1.072-1.672,1.346-4.248,1.52-3.058c0.625,4.542-1.275,8.907-2.305,12.721
		c1.146-0.417,2.588-0.627,4.033-0.632h0.023c1.443,0.005,2.881,0.215,4.027,0.632c-1.027-3.813-2.926-8.179-2.303-12.721
		c0.174-1.19,0.447,1.386,1.518,3.058c1.289,2.01,3.67,3.062,6.631,3.007c4.639-0.084,8.225-3.969,7.793-9.579
		c-0.908-11.794-9.77-21.255-17.357-26.104c-0.084-0.063-0.156-0.1-0.275-0.181H137.329z"/>
	<path fill-rule="evenodd" clip-rule="evenodd" stroke="#000000" stroke-width="0.1625" stroke-linejoin="round" d="M94.101,56.971
		c-0.102,0.067-0.174,0.104-0.293,0.181c-7.596,4.85-16.457,14.311-17.365,26.104c-0.432,5.61,3.156,9.495,7.795,9.579
		c2.961,0.055,5.342-0.997,6.631-3.007c1.072-1.672,1.346-4.248,1.52-3.058c0.625,4.542-1.275,8.907-2.305,12.721
		c1.146-0.418,2.588-0.627,4.033-0.633h0.023c1.443,0.006,2.881,0.215,4.027,0.633c-1.027-3.813-2.926-8.179-2.303-12.721
		c0.174-1.19,0.447,1.386,1.518,3.058c1.289,2.01,3.67,3.062,6.631,3.007c4.639-0.084,8.225-3.969,7.793-9.579
		c-0.908-11.794-9.77-21.255-17.357-26.104c-0.084-0.062-0.156-0.099-0.275-0.181H94.101z"/>
	<path fill-rule="evenodd" clip-rule="evenodd" stroke="#000000" stroke-width="0.1625" stroke-linejoin="round" d="M50.872,103.742
		c-0.102,0.066-0.174,0.104-0.293,0.18c-7.596,4.849-16.455,14.308-17.363,26.1c-0.433,5.611,3.154,9.496,7.793,9.58
		c2.961,0.055,5.342-0.998,6.631-3.008c1.072-1.672,1.346-4.248,1.52-3.057c0.625,4.541-1.275,8.906-2.305,12.721
		c1.146-0.418,2.588-0.627,4.033-0.633h0.023c1.443,0.006,2.881,0.215,4.027,0.633c-1.027-3.814-2.926-8.18-2.303-12.721
		c0.174-1.191,0.447,1.385,1.518,3.057c1.289,2.01,3.67,3.063,6.631,3.008c4.639-0.084,8.225-3.969,7.793-9.58
		c-0.908-11.792-9.77-21.251-17.357-26.1c-0.084-0.061-0.156-0.1-0.275-0.18H50.872z"/>
	<path fill-rule="evenodd" clip-rule="evenodd" stroke="#000000" stroke-width="0.1625" stroke-linejoin="round" d="
		M137.329,103.742c-0.102,0.066-0.174,0.102-0.293,0.18c-7.596,4.849-16.455,14.308-17.363,26.1
		c-0.434,5.611,3.154,9.496,7.793,9.58c2.961,0.055,5.342-0.998,6.631-3.008c1.072-1.67,1.346-4.248,1.52-3.057
		c0.625,4.541-1.275,8.906-2.305,12.721c1.146-0.418,2.588-0.627,4.033-0.633h0.023c1.443,0.006,2.881,0.215,4.027,0.633
		c-1.027-3.814-2.926-8.18-2.303-12.721c0.174-1.191,0.447,1.387,1.518,3.057c1.289,2.01,3.67,3.063,6.631,3.008
		c4.639-0.084,8.225-3.969,7.793-9.58c-0.908-11.792-9.77-21.251-17.357-26.1c-0.084-0.063-0.156-0.1-0.275-0.18H137.329z"/>
	<path fill-rule="evenodd" clip-rule="evenodd" stroke="#000000" stroke-width="0.1625" stroke-linejoin="round" d="M50.872,224.211
		c-0.102-0.066-0.174-0.104-0.293-0.182c-7.596-4.848-16.455-14.309-17.363-26.104c-0.433-5.609,3.154-9.494,7.793-9.578
		c2.961-0.055,5.342,0.996,6.631,3.006c1.072,1.672,1.346,4.248,1.52,3.059c0.625-4.543-1.275-8.908-2.305-12.721
		c1.146,0.416,2.588,0.627,4.033,0.631h0.023c1.443-0.004,2.881-0.215,4.027-0.631c-1.027,3.813-2.926,8.178-2.303,12.721
		c0.174,1.189,0.447-1.387,1.518-3.059c1.289-2.01,3.67-3.061,6.631-3.006c4.639,0.084,8.225,3.969,7.793,9.578
		c-0.908,11.795-9.77,21.256-17.357,26.104c-0.084,0.063-0.156,0.1-0.275,0.182H50.872z"/>
	<path fill-rule="evenodd" clip-rule="evenodd" stroke="#000000" stroke-width="0.1625" stroke-linejoin="round" d="
		M137.329,224.211c-0.102-0.068-0.174-0.104-0.293-0.182c-7.596-4.85-16.455-14.311-17.363-26.104
		c-0.432-5.609,3.154-9.494,7.793-9.58c2.961-0.053,5.342,0.998,6.631,3.008c1.072,1.672,1.346,4.248,1.52,3.059
		c0.625-4.543-1.275-8.908-2.305-12.721c1.146,0.416,2.588,0.627,4.033,0.631h0.023c1.443-0.004,2.881-0.215,4.029-0.631
		c-1.029,3.813-2.928,8.178-2.305,12.721c0.174,1.189,0.449-1.387,1.518-3.059c1.289-2.01,3.67-3.061,6.631-3.008
		c4.639,0.086,8.225,3.971,7.793,9.58c-0.908,11.793-9.77,21.254-17.357,26.104c-0.084,0.063-0.156,0.1-0.275,0.182H137.329z"/>
</g>
</svg>
