<?xml version="1.0" encoding="utf-8"?>
<!-- Generator: Adobe Illustrator 16.0.0, SVG Export Plug-In . SVG Version: 6.00 Build 0)  -->
<!DOCTYPE svg PUBLIC "-//W3C//DTD SVG 1.1//EN" "http://www.w3.org/Graphics/SVG/1.1/DTD/svg11.dtd">
<svg version="1.1" id="圖層_1" xmlns="http://www.w3.org/2000/svg" xmlns:xlink="http://www.w3.org/1999/xlink" x="0px" y="0px"
	 width="188.25px" height="250px" viewBox="0 0 188.25 250" enable-background="new 0 0 188.25 250" xml:space="preserve">
<g>
	<path display="none" fill="#F9FAF9" stroke="#000000" d="M183.417,235.549c0,7.828-6.346,14.174-14.174,14.174H19.007
		c-7.828,0-14.174-6.346-14.174-14.174V14.452c0-7.828,6.346-14.174,14.174-14.174h150.236c7.828,0,14.174,6.346,14.174,14.174
		V235.549z"/>
	<g>
		<path fill="none" d="M17.634,16.75c-0.746,0.001-1.395,0.168-1.967,0.463s-1.069,0.721-1.486,1.262
			c-0.835,1.079-1.34,2.634-1.339,4.377c-0.001,1.306,0.271,2.479,0.748,3.415c0.479,0.938,1.148,1.637,1.997,2.06
			c0.565,0.282,1.22,0.444,1.981,0.444c0.015,0,0.032,0,0.055,0c0.742-0.009,1.385-0.186,1.95-0.489
			c0.565-0.306,1.056-0.742,1.469-1.296c0.825-1.104,1.32-2.691,1.319-4.441c-0.001-1.732-0.52-3.188-1.349-4.194
			C20.177,17.344,19.05,16.755,17.634,16.75z"/>
		<path d="M24.48,21.827c-0.127-1.936-0.774-3.681-1.857-4.997c-1.205-1.473-2.972-2.378-4.97-2.378c-0.006,0-0.014,0-0.02,0
			c-1.053,0-2.035,0.244-2.901,0.691c-1.299,0.671-2.318,1.785-2.999,3.129c-0.683,1.345-1.038,2.921-1.039,4.579
			c0.001,2.189,0.604,4.223,1.791,5.744c0.593,0.76,1.334,1.385,2.194,1.813c0.861,0.429,1.839,0.659,2.889,0.658
			c0.028,0,0.055,0,0.075,0c1.055-0.01,2.037-0.271,2.896-0.735c0.73-0.394,1.363-0.933,1.9-1.568
			c-0.068,1.604-0.325,3.524-1.059,4.932c-0.383,0.739-0.872,1.338-1.538,1.771c-0.667,0.431-1.535,0.716-2.752,0.718
			c-0.887-0.001-1.581-0.208-2.157-0.512c-0.859-0.453-1.463-1.153-1.85-1.751c-0.192-0.298-0.328-0.566-0.413-0.753
			c-0.042-0.093-0.071-0.165-0.089-0.211c-0.01-0.021-0.016-0.037-0.018-0.045l-0.025,0.011l-2.036,0.793
			c0.032,0.089,0.416,1.232,1.428,2.423c0.506,0.594,1.176,1.197,2.036,1.653s1.91,0.755,3.124,0.754c0.004,0,0.009,0,0.013,0
			c1.534,0,2.833-0.382,3.87-1.057c0.78-0.505,1.403-1.167,1.886-1.897c0.723-1.098,1.141-2.34,1.396-3.549
			c0.255-1.211,0.348-2.397,0.385-3.409c0.025-0.706,0.035-1.394,0.035-2.042C24.676,24.209,24.51,22.162,24.48,21.827z
			 M21.042,26.985c-0.413,0.554-0.903,0.99-1.469,1.296c-0.565,0.304-1.208,0.48-1.95,0.489c-0.022,0-0.04,0-0.055,0
			c-0.762,0-1.416-0.162-1.981-0.444c-0.849-0.423-1.518-1.122-1.997-2.06c-0.477-0.936-0.749-2.109-0.748-3.415
			c-0.001-1.743,0.504-3.298,1.339-4.377c0.417-0.541,0.914-0.967,1.486-1.262s1.221-0.462,1.967-0.463
			c1.416,0.006,2.543,0.595,3.379,1.6c0.829,1.006,1.348,2.462,1.349,4.194C22.362,24.293,21.867,25.88,21.042,26.985z"/>
	</g>
	<g>
		<path fill="none" d="M170.616,233.252c0.746-0.002,1.395-0.168,1.967-0.463c0.572-0.297,1.068-0.723,1.486-1.264
			c0.834-1.078,1.34-2.633,1.338-4.377c0.002-1.305-0.271-2.479-0.748-3.414c-0.479-0.938-1.148-1.637-1.996-2.061
			c-0.566-0.281-1.221-0.443-1.982-0.443c-0.014,0-0.031,0-0.055,0c-0.742,0.01-1.385,0.186-1.949,0.49
			c-0.566,0.305-1.057,0.742-1.469,1.295c-0.826,1.105-1.32,2.691-1.32,4.441c0.002,1.732,0.52,3.189,1.35,4.195
			C168.073,232.656,169.2,233.246,170.616,233.252z"/>
		<path d="M163.769,228.174c0.127,1.936,0.775,3.682,1.857,4.998c1.205,1.473,2.973,2.377,4.971,2.377c0.006,0,0.014,0,0.02,0
			c1.053,0,2.035-0.244,2.9-0.691c1.299-0.67,2.318-1.785,3-3.129s1.037-2.92,1.039-4.58c-0.002-2.188-0.605-4.221-1.791-5.744
			c-0.594-0.758-1.334-1.383-2.195-1.813s-1.838-0.658-2.889-0.658c-0.027,0-0.055,0-0.074,0c-1.055,0.01-2.037,0.271-2.896,0.734
			c-0.73,0.395-1.363,0.934-1.9,1.57c0.068-1.605,0.326-3.525,1.059-4.932c0.383-0.74,0.873-1.34,1.539-1.771
			s1.535-0.717,2.752-0.719c0.887,0.002,1.58,0.209,2.156,0.512c0.859,0.453,1.463,1.152,1.85,1.752
			c0.193,0.297,0.328,0.566,0.414,0.752c0.041,0.092,0.07,0.166,0.088,0.211c0.01,0.021,0.016,0.037,0.018,0.045l0.025-0.01
			l2.037-0.793c-0.033-0.09-0.416-1.232-1.428-2.424c-0.506-0.594-1.176-1.197-2.037-1.652c-0.859-0.457-1.91-0.756-3.123-0.754
			c-0.004,0-0.01,0-0.014,0c-1.533,0-2.832,0.381-3.869,1.055c-0.781,0.506-1.404,1.168-1.887,1.898
			c-0.723,1.098-1.141,2.34-1.396,3.549c-0.254,1.211-0.348,2.396-0.385,3.408c-0.025,0.707-0.035,1.395-0.035,2.043
			C163.573,225.791,163.739,227.84,163.769,228.174z M167.208,223.016c0.412-0.553,0.902-0.99,1.469-1.295
			c0.564-0.305,1.207-0.48,1.949-0.49c0.023,0,0.041,0,0.055,0c0.762,0,1.416,0.162,1.982,0.443
			c0.848,0.424,1.518,1.123,1.996,2.061c0.477,0.936,0.75,2.109,0.748,3.414c0.002,1.744-0.504,3.299-1.338,4.377
			c-0.418,0.541-0.914,0.967-1.486,1.264c-0.572,0.295-1.221,0.461-1.967,0.463c-1.416-0.006-2.543-0.596-3.379-1.6
			c-0.83-1.006-1.348-2.463-1.35-4.195C165.888,225.707,166.382,224.121,167.208,223.016z"/>
	</g>
	<path fill-rule="evenodd" clip-rule="evenodd" stroke="#000000" stroke-width="0.065" stroke-linejoin="round" d="M17.58,42.797
		c-0.041,0.027-0.07,0.041-0.117,0.072c-3.038,1.939-6.583,5.725-6.946,10.441c-0.173,2.244,1.263,3.798,3.118,3.832
		c1.184,0.021,2.137-0.399,2.652-1.203c0.429-0.668,0.538-1.699,0.607-1.223c0.25,1.816-0.511,3.563-0.922,5.088
		c0.459-0.167,1.035-0.251,1.613-0.253h0.01c0.577,0.002,1.152,0.086,1.61,0.253c-0.411-1.525-1.17-3.271-0.921-5.088
		c0.069-0.477,0.179,0.555,0.606,1.223c0.516,0.804,1.469,1.225,2.652,1.203c1.855-0.034,3.291-1.588,3.118-3.832
		c-0.363-4.717-3.908-8.502-6.943-10.441c-0.033-0.024-0.063-0.04-0.11-0.072H17.58z"/>
	<path fill-rule="evenodd" clip-rule="evenodd" stroke="#000000" stroke-width="0.065" stroke-linejoin="round" d="M170.651,207.201
		c-0.041-0.025-0.07-0.041-0.117-0.072c-3.039-1.939-6.584-5.723-6.947-10.441c-0.172-2.244,1.264-3.797,3.119-3.832
		c1.184-0.021,2.137,0.4,2.652,1.203c0.428,0.67,0.537,1.699,0.607,1.223c0.25-1.816-0.512-3.563-0.922-5.088
		c0.459,0.168,1.035,0.252,1.613,0.254h0.01c0.576-0.002,1.152-0.086,1.609-0.254c-0.41,1.525-1.17,3.271-0.92,5.088
		c0.068,0.477,0.178-0.553,0.605-1.223c0.516-0.803,1.469-1.225,2.652-1.203c1.855,0.035,3.291,1.588,3.119,3.832
		c-0.363,4.719-3.908,8.502-6.943,10.441c-0.033,0.025-0.063,0.041-0.111,0.072H170.651z"/>
	<path fill-rule="evenodd" clip-rule="evenodd" stroke="#000000" stroke-width="0.1625" stroke-linejoin="round" d="M50.872,25.791
		c-0.102,0.066-0.174,0.103-0.293,0.181c-7.595,4.849-16.456,14.31-17.364,26.104c-0.432,5.61,3.155,9.495,7.794,9.579
		c2.961,0.055,5.342-0.997,6.632-3.007c1.072-1.672,1.346-4.248,1.52-3.058c0.625,4.542-1.277,8.907-2.307,12.721
		c1.147-0.417,2.59-0.627,4.034-0.632h0.023c1.442,0.005,2.882,0.215,4.027,0.632c-1.027-3.813-2.926-8.179-2.303-12.721
		c0.174-1.19,0.446,1.386,1.517,3.058c1.289,2.01,3.671,3.062,6.631,3.007c4.639-0.084,8.227-3.969,7.794-9.579
		c-0.908-11.794-9.77-21.255-17.358-26.104c-0.082-0.063-0.155-0.1-0.274-0.181H50.872z"/>
	<path fill-rule="evenodd" clip-rule="evenodd" stroke="#000000" stroke-width="0.1625" stroke-linejoin="round" d="M137.329,25.791
		c-0.102,0.066-0.174,0.103-0.293,0.181c-7.596,4.849-16.457,14.31-17.365,26.104c-0.432,5.61,3.156,9.495,7.795,9.579
		c2.961,0.055,5.342-0.997,6.631-3.007c1.072-1.672,1.346-4.248,1.52-3.058c0.625,4.542-1.277,8.907-2.307,12.721
		c1.148-0.417,2.59-0.627,4.035-0.632h0.023c1.441,0.005,2.881,0.215,4.027,0.632c-1.027-3.813-2.926-8.179-2.303-12.721
		c0.174-1.19,0.445,1.386,1.516,3.058c1.289,2.01,3.672,3.062,6.631,3.007c4.639-0.084,8.227-3.969,7.795-9.579
		c-0.908-11.794-9.77-21.255-17.359-26.104c-0.082-0.063-0.154-0.1-0.273-0.181H137.329z"/>
	<path fill-rule="evenodd" clip-rule="evenodd" stroke="#000000" stroke-width="0.1625" stroke-linejoin="round" d="M50.872,77.758
		c-0.102,0.067-0.174,0.104-0.293,0.181c-7.595,4.85-16.456,14.311-17.364,26.104c-0.432,5.608,3.155,9.493,7.794,9.577
		c2.961,0.055,5.342-0.998,6.632-3.006c1.072-1.672,1.346-4.248,1.52-3.059c0.625,4.541-1.277,8.905-2.307,12.719
		c1.147-0.418,2.59-0.627,4.034-0.633h0.023c1.442,0.006,2.882,0.215,4.027,0.633c-1.027-3.813-2.926-8.178-2.303-12.719
		c0.174-1.189,0.446,1.387,1.517,3.059c1.289,2.008,3.671,3.061,6.631,3.006c4.639-0.084,8.227-3.969,7.794-9.577
		c-0.908-11.793-9.77-21.254-17.358-26.104c-0.082-0.062-0.155-0.099-0.274-0.181H50.872z"/>
	<path fill-rule="evenodd" clip-rule="evenodd" stroke="#000000" stroke-width="0.1625" stroke-linejoin="round" d="M137.329,77.758
		c-0.102,0.067-0.174,0.104-0.293,0.181c-7.596,4.85-16.457,14.311-17.365,26.104c-0.432,5.608,3.156,9.493,7.795,9.577
		c2.961,0.055,5.342-0.998,6.631-3.006c1.072-1.672,1.346-4.248,1.52-3.059c0.625,4.541-1.277,8.905-2.307,12.719
		c1.148-0.418,2.59-0.627,4.035-0.633h0.023c1.441,0.006,2.881,0.215,4.027,0.633c-1.027-3.813-2.926-8.178-2.303-12.719
		c0.174-1.189,0.445,1.387,1.516,3.059c1.289,2.008,3.672,3.061,6.631,3.006c4.639-0.084,8.227-3.969,7.795-9.577
		c-0.908-11.793-9.77-21.254-17.359-26.104c-0.082-0.062-0.154-0.099-0.273-0.181H137.329z"/>
	<path fill-rule="evenodd" clip-rule="evenodd" stroke="#000000" stroke-width="0.1625" stroke-linejoin="round" d="M94.101,103.742
		c-0.102,0.066-0.174,0.104-0.293,0.18c-7.595,4.849-16.456,14.308-17.364,26.1c-0.432,5.611,3.155,9.496,7.794,9.58
		c2.961,0.055,5.342-0.998,6.632-3.008c1.072-1.672,1.346-4.248,1.52-3.057c0.625,4.541-1.277,8.906-2.307,12.721
		c1.147-0.418,2.59-0.627,4.034-0.633h0.023c1.443,0.006,2.883,0.215,4.027,0.633c-1.027-3.814-2.926-8.18-2.303-12.721
		c0.174-1.191,0.447,1.385,1.518,3.057c1.289,2.01,3.67,3.063,6.631,3.008c4.639-0.084,8.227-3.969,7.793-9.58
		c-0.908-11.792-9.77-21.251-17.358-26.1c-0.082-0.061-0.155-0.099-0.274-0.18H94.101z"/>
	<path fill-rule="evenodd" clip-rule="evenodd" stroke="#000000" stroke-width="0.1625" stroke-linejoin="round" d="M50.872,172.242
		c-0.102-0.068-0.174-0.104-0.293-0.182c-7.595-4.85-16.456-14.311-17.364-26.104c-0.432-5.611,3.155-9.494,7.794-9.58
		c2.961-0.053,5.342,0.998,6.632,3.008c1.072,1.672,1.346,4.248,1.52,3.057c0.625-4.541-1.277-8.906-2.307-12.719
		c1.147,0.416,2.59,0.627,4.034,0.631h0.023c1.442-0.004,2.882-0.215,4.027-0.631c-1.027,3.813-2.926,8.178-2.303,12.719
		c0.174,1.191,0.446-1.385,1.517-3.057c1.289-2.01,3.671-3.061,6.631-3.008c4.639,0.086,8.227,3.969,7.794,9.58
		c-0.908,11.793-9.77,21.254-17.358,26.104c-0.082,0.063-0.155,0.1-0.274,0.182H50.872z"/>
	<path fill-rule="evenodd" clip-rule="evenodd" stroke="#000000" stroke-width="0.1625" stroke-linejoin="round" d="
		M137.329,172.242c-0.102-0.068-0.174-0.104-0.293-0.182c-7.594-4.85-16.455-14.311-17.363-26.104
		c-0.432-5.611,3.154-9.494,7.793-9.58c2.961-0.053,5.342,0.998,6.633,3.008c1.072,1.672,1.346,4.248,1.52,3.057
		c0.625-4.541-1.277-8.906-2.307-12.719c1.146,0.416,2.59,0.627,4.033,0.631h0.023c1.443-0.004,2.883-0.215,4.027-0.631
		c-1.027,3.813-2.926,8.178-2.303,12.719c0.174,1.191,0.447-1.385,1.518-3.057c1.289-2.01,3.67-3.061,6.631-3.008
		c4.639,0.086,8.227,3.969,7.793,9.58c-0.908,11.793-9.77,21.254-17.357,26.104c-0.082,0.063-0.156,0.1-0.275,0.182H137.329z"/>
	<path fill-rule="evenodd" clip-rule="evenodd" stroke="#000000" stroke-width="0.1625" stroke-linejoin="round" d="M50.872,224.211
		c-0.102-0.068-0.174-0.104-0.293-0.182c-7.595-4.85-16.456-14.311-17.364-26.104c-0.432-5.611,3.155-9.494,7.794-9.58
		c2.961-0.053,5.342,0.998,6.632,3.008c1.072,1.672,1.346,4.248,1.52,3.057c0.625-4.541-1.277-8.906-2.307-12.719
		c1.147,0.416,2.59,0.627,4.034,0.631h0.023c1.442-0.004,2.882-0.215,4.027-0.631c-1.027,3.813-2.926,8.178-2.303,12.719
		c0.174,1.191,0.446-1.385,1.517-3.057c1.289-2.01,3.671-3.061,6.631-3.008c4.639,0.086,8.227,3.969,7.794,9.58
		c-0.908,11.793-9.77,21.254-17.358,26.104c-0.082,0.063-0.155,0.1-0.274,0.182H50.872z"/>
	<path fill-rule="evenodd" clip-rule="evenodd" stroke="#000000" stroke-width="0.1625" stroke-linejoin="round" d="
		M137.329,224.211c-0.102-0.068-0.174-0.104-0.293-0.182c-7.594-4.85-16.455-14.311-17.363-26.104
		c-0.432-5.611,3.154-9.494,7.793-9.58c2.961-0.053,5.342,0.998,6.633,3.008c1.072,1.672,1.346,4.248,1.52,3.057
		c0.625-4.541-1.277-8.906-2.307-12.719c1.146,0.416,2.59,0.627,4.033,0.631h0.023c1.443-0.004,2.883-0.215,4.027-0.631
		c-1.027,3.813-2.926,8.178-2.303,12.719c0.174,1.191,0.447-1.385,1.518-3.057c1.289-2.01,3.67-3.061,6.631-3.008
		c4.639,0.086,8.227,3.969,7.793,9.58c-0.908,11.793-9.77,21.254-17.357,26.104c-0.082,0.063-0.156,0.1-0.275,0.182H137.329z"/>
</g>
</svg>
