<?xml version="1.0" encoding="utf-8"?>
<!-- Generator: Adobe Illustrator 16.0.0, SVG Export Plug-In . SVG Version: 6.00 Build 0)  -->
<!DOCTYPE svg PUBLIC "-//W3C//DTD SVG 1.1//EN" "http://www.w3.org/Graphics/SVG/1.1/DTD/svg11.dtd">
<svg version="1.1" id="圖層_1" xmlns="http://www.w3.org/2000/svg" xmlns:xlink="http://www.w3.org/1999/xlink" x="0px" y="0px"
	 width="188.25px" height="250px" viewBox="0 0 188.25 250" enable-background="new 0 0 188.25 250" xml:space="preserve">
<g>
	<g display="none">
		<path display="inline" fill="#F9FAF9" stroke="#000000" d="M183.417,235.551c0,7.828-6.346,14.174-14.174,14.174H19.007
			c-7.828,0-14.174-6.346-14.174-14.174V14.449c0-7.828,6.346-14.174,14.174-14.174h150.236c7.828,0,14.174,6.346,14.174,14.174
			V235.551z"/>
	</g>
	<g>
		<path fill="#E13837" d="M17.588,59.803c-0.007-0.01-0.013-0.019-0.02-0.029c-0.007,0.011-0.013,0.02-0.02,0.029H17.588z"/>
		<path fill="#E13837" d="M21.563,42.895c-1.247-0.387-3.188,0.294-3.899,3.122c-0.06,0.155-0.122,0.151-0.178-0.006
			c-1.029-2.864-2.723-3.49-3.913-3.116c-1.763,0.569-3.195,2.673-3.062,5.356c0.034,4.685,4.226,7.044,7.057,11.522
			c2.831-4.479,7.067-6.831,7.082-11.536C24.895,45.525,23.376,43.453,21.563,42.895z"/>
	</g>
	<g>
		<path fill="#E13837" d="M170.664,190.196c0.007,0.011,0.014,0.02,0.021,0.03c0.006-0.011,0.013-0.02,0.02-0.03H170.664z"/>
		<path fill="#E13837" d="M170.685,190.227c-2.833,4.478-7.073,6.831-7.084,11.535c-0.244,2.711,1.271,4.784,3.087,5.344
			c1.247,0.387,3.188-0.295,3.9-3.123c0.06-0.154,0.122-0.151,0.179,0.004c1.025,2.866,2.722,3.492,3.912,3.119
			c1.768-0.57,3.195-2.674,3.06-5.357C177.707,197.064,173.516,194.704,170.685,190.227z"/>
	</g>
	<g>
		<path fill="#E13837" d="M50.893,68.307c-0.016-0.024-0.031-0.048-0.047-0.072c-0.016,0.024-0.031,0.048-0.047,0.072H50.893z"/>
		<path fill="#E13837" d="M60.83,26.036c-3.117-0.969-7.964,0.735-9.743,7.805c-0.15,0.387-0.306,0.379-0.446-0.014
			c-2.57-7.162-6.805-8.727-9.782-7.791c-4.41,1.423-7.984,6.682-7.658,13.391c0.091,11.712,10.572,17.608,17.646,28.808
			c7.074-11.199,17.673-17.079,17.702-28.842C69.16,32.613,65.366,27.433,60.83,26.036z"/>
	</g>
	<g>
		<path fill="#E13837" d="M60.83,77.061c-3.117-0.97-7.964,0.735-9.743,7.805c-0.15,0.387-0.306,0.378-0.446-0.014
			c-2.57-7.162-6.805-8.727-9.782-7.791c-4.41,1.422-7.984,6.682-7.658,13.391c0.091,11.711,10.572,17.608,17.646,28.807
			c7.074-11.198,17.673-17.078,17.702-28.841C69.16,83.638,65.366,78.456,60.83,77.061z"/>
		<path fill="#E13837" d="M50.893,119.33c-0.016-0.024-0.031-0.048-0.047-0.072c-0.016,0.024-0.031,0.048-0.047,0.072H50.893z"/>
	</g>
	<g>
		<path fill="#E13837" d="M50.9,178.857c0.016,0.024,0.031,0.048,0.047,0.072c0.016-0.024,0.031-0.048,0.047-0.072H50.9z"/>
		<path fill="#E13837" d="M68.592,207.738c-0.088-11.711-10.568-17.608-17.645-28.809c-7.074,11.2-17.673,17.081-17.702,28.842
			c-0.612,6.779,3.182,11.961,7.718,13.357c3.116,0.968,7.964-0.736,9.743-7.805c0.15-0.387,0.306-0.379,0.446,0.014
			c2.569,7.162,6.805,8.727,9.782,7.791C65.345,219.706,68.919,214.447,68.592,207.738z"/>
	</g>
	<g>
		<path fill="#E13837" d="M68.592,156.715c-0.088-11.711-10.568-17.608-17.645-28.809c-7.074,11.2-17.673,17.08-17.702,28.842
			c-0.612,6.781,3.182,11.961,7.718,13.357c3.116,0.969,7.964-0.736,9.743-7.807c0.15-0.386,0.306-0.378,0.446,0.016
			c2.569,7.162,6.805,8.727,9.782,7.791C65.345,168.683,68.919,163.424,68.592,156.715z"/>
		<path fill="#E13837" d="M50.9,127.834c0.016,0.024,0.031,0.048,0.047,0.072c0.016-0.024,0.031-0.048,0.047-0.072H50.9z"/>
	</g>
	<g>
		<path fill="#E13837" d="M104.065,54.383c-3.117-0.969-7.971,0.735-9.754,7.805c-0.148,0.387-0.307,0.379-0.445-0.014
			c-2.572-7.162-6.803-8.727-9.783-7.791c-4.41,1.423-7.98,6.682-7.654,13.391c0.088,11.712,10.567,17.608,17.641,28.808
			c7.081-11.199,17.68-17.079,17.707-28.842C112.392,60.96,108.595,55.778,104.065,54.383z"/>
		<path fill="#E13837" d="M94.116,96.653c-0.016-0.024-0.031-0.048-0.047-0.072c-0.016,0.024-0.031,0.048-0.047,0.072H94.116z"/>
	</g>
	<g>
		<path fill="#E13837" d="M111.82,182.224c-0.085-11.715-10.566-17.612-17.646-28.806c-7.073,11.193-17.672,17.074-17.701,28.84
			c-0.612,6.781,3.184,11.963,7.716,13.359c3.116,0.968,7.962-0.736,9.743-7.808c0.148-0.386,0.305-0.378,0.445,0.015
			c2.575,7.163,6.812,8.728,9.786,7.793C108.575,194.194,112.149,188.936,111.82,182.224z"/>
		<path fill="#E13837" d="M94.128,153.346c0.016,0.024,0.031,0.048,0.047,0.072c0.016-0.024,0.031-0.048,0.047-0.072H94.128z"/>
	</g>
	<g>
		<path fill="#E13837" d="M137.349,68.307c-0.016-0.025-0.032-0.049-0.049-0.074c-0.016,0.025-0.032,0.049-0.048,0.074H137.349z"/>
		<path fill="#E13837" d="M147.286,26.036c-3.117-0.969-7.965,0.736-9.746,7.805c-0.145,0.388-0.303,0.379-0.444-0.014
			c-2.569-7.162-6.801-8.727-9.78-7.791c-4.413,1.423-7.987,6.682-7.658,13.392c0.091,11.71,10.566,17.606,17.643,28.805
			c7.078-11.198,17.671-17.077,17.704-28.839C155.618,32.613,151.821,27.433,147.286,26.036z"/>
	</g>
	<g>
		<path fill="#E13837" d="M147.286,77.06c-3.117-0.968-7.965,0.736-9.746,7.806c-0.145,0.387-0.303,0.378-0.444-0.014
			c-2.569-7.163-6.801-8.728-9.78-7.792c-4.413,1.423-7.987,6.682-7.658,13.392c0.091,11.711,10.566,17.607,17.643,28.805
			c7.078-11.197,17.671-17.078,17.704-28.839C155.618,83.638,151.821,78.456,147.286,77.06z"/>
		<path fill="#E13837" d="M137.349,119.33c-0.016-0.025-0.032-0.049-0.049-0.074c-0.016,0.025-0.032,0.049-0.048,0.074H137.349z"/>
	</g>
	<g>
		<path fill="#E13837" d="M155.05,207.738c-0.092-11.71-10.567-17.607-17.645-28.807c-7.078,11.199-17.677,17.081-17.703,28.84
			c-0.615,6.78,3.183,11.961,7.717,13.357c3.117,0.968,7.965-0.736,9.747-7.805c0.145-0.388,0.303-0.379,0.441,0.014
			c2.572,7.162,6.804,8.727,9.784,7.791C151.8,219.706,155.372,214.447,155.05,207.738z"/>
		<path fill="#E13837" d="M137.357,178.857c0.016,0.025,0.032,0.05,0.048,0.074c0.017-0.024,0.033-0.049,0.049-0.074H137.357z"/>
	</g>
	<g>
		<path fill="#E13837" d="M137.356,127.834c0.016,0.025,0.032,0.05,0.049,0.074c0.016-0.024,0.032-0.049,0.048-0.074H137.356z"/>
		<path fill="#E13837" d="M155.049,156.715c-0.091-11.71-10.566-17.607-17.644-28.807c-7.078,11.199-17.678,17.08-17.703,28.84
			c-0.615,6.781,3.182,11.962,7.717,13.357c3.117,0.968,7.964-0.735,9.746-7.805c0.145-0.387,0.303-0.379,0.441,0.014
			c2.572,7.162,6.804,8.728,9.784,7.791C151.799,168.684,155.372,163.424,155.049,156.715z"/>
	</g>
	<g>
		<g>
			<polygon fill="#E13837" points="10.503,38.507 10.503,14.449 12.684,14.449 12.684,38.507 10.503,38.507 			"/>
		</g>
		<path fill="#E13837" d="M17.243,37.227c-0.794-0.816-1.304-1.98-1.302-3.262l0,0V19.028c-0.002-1.282,0.508-2.445,1.302-3.263l0,0
			c0.793-0.819,1.88-1.316,3.065-1.316l0,0c1.185,0,2.271,0.497,3.066,1.316l0,0c0.793,0.817,1.303,1.98,1.301,3.263l0,0v14.937
			c0.002,1.281-0.508,2.445-1.301,3.262l0,0c-0.795,0.82-1.882,1.316-3.066,1.316l0,0C19.123,38.543,18.036,38.047,17.243,37.227
			L17.243,37.227z M18.74,17.503c-0.393,0.408-0.617,0.938-0.618,1.525l0,0v14.937c0.001,0.588,0.226,1.116,0.618,1.525l0,0
			c0.392,0.405,0.943,0.666,1.568,0.666l0,0c0.625,0,1.176-0.261,1.568-0.666l0,0c0.393-0.409,0.617-0.938,0.618-1.525l0,0V19.028
			c-0.001-0.588-0.226-1.117-0.618-1.525l0,0c-0.393-0.405-0.943-0.666-1.568-0.666l0,0C19.684,16.837,19.132,17.098,18.74,17.503
			L18.74,17.503z"/>
	</g>
	<g>
		<g>
			<polygon fill="#E13837" points="177.747,211.492 177.747,235.551 175.565,235.551 175.565,211.492 177.747,211.492 			"/>
		</g>
		<path fill="#E13837" d="M171.007,212.773c0.794,0.816,1.303,1.98,1.302,3.262l0,0v14.937c0.001,1.282-0.508,2.445-1.302,3.263l0,0
			c-0.793,0.819-1.881,1.316-3.066,1.316l0,0c-1.184,0-2.271-0.497-3.065-1.316l0,0c-0.794-0.817-1.303-1.98-1.302-3.263l0,0
			v-14.937c-0.001-1.281,0.508-2.445,1.302-3.262l0,0c0.794-0.82,1.882-1.316,3.065-1.316l0,0
			C169.126,211.457,170.214,211.953,171.007,212.773L171.007,212.773z M169.51,232.497c0.393-0.408,0.617-0.938,0.618-1.525l0,0
			v-14.937c-0.001-0.588-0.226-1.116-0.618-1.525l0,0c-0.392-0.405-0.943-0.666-1.569-0.666l0,0c-0.624,0-1.176,0.261-1.568,0.666
			l0,0c-0.393,0.409-0.616,0.938-0.617,1.525l0,0v14.937c0.001,0.588,0.225,1.117,0.617,1.525l0,0
			c0.393,0.405,0.944,0.666,1.568,0.666l0,0C168.566,233.163,169.118,232.902,169.51,232.497L169.51,232.497z"/>
	</g>
</g>
</svg>
