<?xml version="1.0" encoding="utf-8"?>
<!-- Generator: Adobe Illustrator 16.0.0, SVG Export Plug-In . SVG Version: 6.00 Build 0)  -->
<!DOCTYPE svg PUBLIC "-//W3C//DTD SVG 1.1//EN" "http://www.w3.org/Graphics/SVG/1.1/DTD/svg11.dtd">
<svg version="1.1" id="圖層_1" xmlns="http://www.w3.org/2000/svg" xmlns:xlink="http://www.w3.org/1999/xlink" x="0px" y="0px"
	 width="188.25px" height="250px" viewBox="0 0 188.25 250" enable-background="new 0 0 188.25 250" xml:space="preserve">
<g>
	<path display="none" fill="#F9FAF9" stroke="#000000" d="M183.418,235.552c0,7.827-6.346,14.173-14.174,14.173H19.006
		c-7.828,0-14.174-6.346-14.174-14.173V14.449c0-7.828,6.346-14.174,14.174-14.174h150.238c7.828,0,14.174,6.346,14.174,14.174
		V235.552z"/>
	<g>
		<path d="M18.646,22.237l5.877-5.248h0.02v-0.018l0.006-0.006l-0.006-0.007v-2.51h-13.53l0.007,1.813v2.257h2.079v-1.542
			l7.913,0.009l-7.769,7.195l1.119,1.658c0.848-0.78,1.911-1.244,3.079-1.244c1.369,0,2.743,0.64,3.642,1.679
			c0.896,1.041,1.449,2.467,1.449,4.054s-0.553,3.012-1.449,4.054c-0.898,1.039-2.272,1.679-3.642,1.679
			c-1.37,0-2.601-0.64-3.5-1.679c-0.648-0.754-1.117-1.708-1.327-2.779l-2.111,0.437c0.68,3.717,3.527,6.504,6.938,6.506
			c3.917-0.002,7.234-3.679,7.234-8.217C24.675,26.265,22.014,22.899,18.646,22.237z"/>
		<polygon points="14.362,25.839 14.362,25.839 14.362,25.839 		"/>
	</g>
	<g>
		<path d="M169.604,227.764l-5.877,5.248h-0.02v0.018l-0.006,0.005l0.006,0.008v2.51h13.531l-0.008-1.813v-2.257h-2.078v1.542
			l-7.914-0.009l7.77-7.195l-1.119-1.658c-0.848,0.78-1.912,1.243-3.08,1.244c-1.369-0.001-2.742-0.64-3.641-1.679
			c-0.898-1.041-1.449-2.467-1.449-4.054s0.551-3.013,1.449-4.054c0.898-1.039,2.271-1.679,3.641-1.679
			c1.371,0,2.602,0.64,3.5,1.679c0.648,0.754,1.117,1.708,1.326,2.779l2.113-0.437c-0.68-3.717-3.527-6.505-6.939-6.506
			c-3.916,0.001-7.234,3.679-7.234,8.217C163.574,223.736,166.236,227.101,169.604,227.764z"/>
		<polygon points="173.889,224.161 173.889,224.162 173.889,224.162 		"/>
	</g>
	<path fill-rule="evenodd" clip-rule="evenodd" stroke="#000000" stroke-width="0.065" stroke-linejoin="round" d="M170.652,207.205
		c-0.041-0.026-0.07-0.041-0.117-0.072c-3.039-1.939-6.584-5.724-6.947-10.441c-0.172-2.244,1.264-3.798,3.119-3.832
		c1.184-0.021,2.137,0.399,2.652,1.203c0.428,0.669,0.537,1.699,0.607,1.223c0.25-1.816-0.512-3.563-0.922-5.088
		c0.459,0.167,1.035,0.251,1.613,0.253h0.01c0.576-0.002,1.152-0.086,1.609-0.253c-0.41,1.525-1.17,3.271-0.92,5.088
		c0.068,0.477,0.178-0.554,0.605-1.223c0.516-0.804,1.469-1.225,2.652-1.203c1.855,0.034,3.291,1.588,3.119,3.832
		c-0.363,4.718-3.908,8.502-6.943,10.441c-0.033,0.024-0.063,0.04-0.111,0.072H170.652z"/>
	<path fill-rule="evenodd" clip-rule="evenodd" stroke="#000000" stroke-width="0.065" stroke-linejoin="round" d="M17.58,42.795
		c-0.041,0.027-0.07,0.042-0.117,0.072c-3.038,1.94-6.583,5.725-6.946,10.441c-0.173,2.244,1.263,3.798,3.117,3.832
		c1.185,0.021,2.137-0.399,2.653-1.203c0.429-0.668,0.538-1.699,0.607-1.223c0.25,1.816-0.511,3.563-0.922,5.088
		c0.459-0.167,1.035-0.251,1.613-0.253h0.01c0.577,0.002,1.152,0.086,1.61,0.253c-0.411-1.525-1.17-3.271-0.921-5.088
		c0.069-0.477,0.179,0.555,0.606,1.223c0.516,0.804,1.469,1.225,2.652,1.203c1.855-0.034,3.291-1.588,3.118-3.832
		c-0.364-4.717-3.908-8.501-6.943-10.441c-0.033-0.024-0.063-0.039-0.11-0.072H17.58z"/>
	<path fill-rule="evenodd" clip-rule="evenodd" stroke="#000000" stroke-width="0.1625" stroke-linejoin="round" d="M94.099,25.787
		c-0.102,0.067-0.174,0.104-0.293,0.181c-7.594,4.85-16.455,14.311-17.363,26.104c-0.432,5.61,3.154,9.494,7.793,9.579
		c2.961,0.054,5.342-0.998,6.631-3.007c1.072-1.672,1.346-4.248,1.52-3.058c0.625,4.541-1.275,8.906-2.305,12.72
		c1.146-0.417,2.588-0.627,4.033-0.632h0.023c1.444,0.005,2.881,0.215,4.03,0.632c-1.029-3.813-2.928-8.179-2.305-12.72
		c0.174-1.19,0.447,1.386,1.518,3.058c1.291,2.009,3.672,3.061,6.633,3.007c4.639-0.085,8.225-3.969,7.793-9.579
		c-0.908-11.794-9.77-21.255-17.36-26.104c-0.084-0.062-0.156-0.099-0.275-0.181H94.099z"/>
	<path fill-rule="evenodd" clip-rule="evenodd" stroke="#000000" stroke-width="0.1625" stroke-linejoin="round" d="M94.099,103.74
		c-0.102,0.067-0.174,0.104-0.293,0.181c-7.594,4.85-16.455,14.311-17.363,26.104c-0.432,5.611,3.154,9.495,7.793,9.58
		c2.961,0.054,5.342-0.998,6.631-3.008c1.072-1.671,1.346-4.248,1.52-3.057c0.625,4.541-1.275,8.906-2.305,12.72
		c1.146-0.417,2.588-0.627,4.033-0.632h0.023c1.444,0.005,2.881,0.215,4.03,0.632c-1.029-3.813-2.928-8.179-2.305-12.72
		c0.174-1.191,0.447,1.386,1.518,3.057c1.291,2.01,3.672,3.062,6.633,3.008c4.639-0.085,8.225-3.969,7.793-9.58
		c-0.908-11.793-9.77-21.254-17.36-26.104c-0.084-0.063-0.156-0.1-0.275-0.181H94.099z"/>
	<path fill-rule="evenodd" clip-rule="evenodd" stroke="#000000" stroke-width="0.1625" stroke-linejoin="round" d="M94.099,224.212
		c-0.102-0.066-0.174-0.103-0.293-0.18c-7.594-4.85-16.455-14.311-17.363-26.104c-0.432-5.611,3.154-9.496,7.793-9.58
		c2.961-0.055,5.342,0.998,6.631,3.008c1.072,1.671,1.346,4.248,1.52,3.057c0.625-4.541-1.275-8.906-2.305-12.721
		c1.146,0.418,2.588,0.627,4.033,0.633h0.023c1.444-0.006,2.881-0.215,4.03-0.633c-1.029,3.814-2.928,8.18-2.305,12.721
		c0.174,1.191,0.447-1.386,1.518-3.057c1.291-2.01,3.672-3.063,6.633-3.008c4.639,0.084,8.225,3.969,7.793,9.58
		c-0.908,11.793-9.77,21.254-17.36,26.104c-0.084,0.063-0.156,0.1-0.275,0.18H94.099z"/>
</g>
</svg>
