<?xml version="1.0" encoding="utf-8"?>
<!-- Generator: Adobe Illustrator 16.0.0, SVG Export Plug-In . SVG Version: 6.00 Build 0)  -->
<!DOCTYPE svg PUBLIC "-//W3C//DTD SVG 1.1//EN" "http://www.w3.org/Graphics/SVG/1.1/DTD/svg11.dtd">
<svg version="1.1" id="圖層_1" xmlns="http://www.w3.org/2000/svg" xmlns:xlink="http://www.w3.org/1999/xlink" x="0px" y="0px"
	 width="188.25px" height="250px" viewBox="0 0 188.25 250" enable-background="new 0 0 188.25 250" xml:space="preserve">
<g>
	<path display="none" fill="#F9F9F8" stroke="#231815" d="M184.143,235.746c0,7.828-6.346,14.174-14.174,14.174H19.732
		c-7.828,0-14.174-6.346-14.174-14.174V14.647c0-7.828,6.346-14.173,14.174-14.173h150.236c7.828,0,14.174,6.346,14.174,14.173
		V235.746z"/>
	<path fill="#E03837" d="M18.326,42.995c1.786,3.47,4.145,6.309,7.075,8.512c-2.931,2.207-5.289,5.039-7.075,8.496
		c-1.803-3.457-4.168-6.289-7.098-8.496C14.158,49.303,16.523,46.464,18.326,42.995L18.326,42.995z"/>
	<path fill="#E03837" d="M171.397,190.392c1.786,3.47,4.146,6.308,7.075,8.513c-2.93,2.206-5.289,5.038-7.075,8.495
		c-1.802-3.457-4.169-6.289-7.098-8.495C167.229,196.699,169.596,193.861,171.397,190.392L171.397,190.392z"/>
	<path fill="#E03837" d="M51.647,25.986c4.469,8.675,10.365,15.77,17.691,21.283c-7.326,5.517-13.223,12.595-17.691,21.236
		c-4.503-8.641-10.417-15.72-17.742-21.236C41.23,41.755,47.145,34.661,51.647,25.986L51.647,25.986z"/>
	<path fill="#E03837" d="M51.646,77.955c4.469,8.675,10.365,15.77,17.692,21.284c-7.327,5.516-13.224,12.595-17.692,21.233
		c-4.502-8.638-10.416-15.717-17.741-21.233C41.23,93.725,47.145,86.63,51.646,77.955L51.646,77.955z"/>
	<path fill="#E03837" d="M51.647,129.92c4.469,8.674,10.364,15.77,17.691,21.283c-7.327,5.517-13.223,12.596-17.691,21.236
		c-4.503-8.641-10.417-15.72-17.742-21.236C41.23,145.689,47.145,138.594,51.647,129.92L51.647,129.92z"/>
	<path fill="#E03837" d="M51.647,181.887c4.469,8.675,10.364,15.77,17.691,21.283c-7.327,5.517-13.223,12.597-17.691,21.237
		c-4.503-8.641-10.417-15.721-17.742-21.237C41.23,197.656,47.145,190.562,51.647,181.887L51.647,181.887z"/>
	<path fill="#E03837" d="M138.104,25.986c4.469,8.675,10.364,15.77,17.691,21.283c-7.327,5.517-13.223,12.595-17.691,21.236
		c-4.502-8.642-10.417-15.72-17.741-21.236C127.688,41.755,133.603,34.661,138.104,25.986L138.104,25.986z"/>
	<path fill="#E03837" d="M138.104,77.957c4.469,8.675,10.365,15.77,17.691,21.283c-7.326,5.516-13.223,12.595-17.691,21.234
		c-4.502-8.639-10.418-15.718-17.742-21.234C127.686,93.726,133.602,86.631,138.104,77.957L138.104,77.957z"/>
	<path fill="#E03837" d="M138.104,129.921c4.469,8.674,10.365,15.769,17.691,21.282c-7.326,5.518-13.223,12.596-17.691,21.237
		c-4.502-8.642-10.417-15.72-17.741-21.237C127.687,145.689,133.602,138.595,138.104,129.921L138.104,129.921z"/>
	<path fill="#E03837" d="M138.104,181.887c4.468,8.675,10.364,15.77,17.691,21.283c-7.327,5.517-13.224,12.597-17.691,21.237
		c-4.503-8.641-10.417-15.721-17.741-21.237C127.688,197.656,133.602,190.562,138.104,181.887L138.104,181.887z"/>
	<path fill="#E03837" d="M94.875,54.333c4.47,8.675,10.365,15.77,17.691,21.284c-7.326,5.517-13.222,12.595-17.691,21.236
		c-4.502-8.642-10.417-15.72-17.741-21.236C84.458,70.103,90.373,63.007,94.875,54.333L94.875,54.333z"/>
	<path fill="#E03837" d="M94.875,153.541c4.47,8.674,10.365,15.77,17.691,21.283c-7.326,5.517-13.222,12.596-17.691,21.236
		c-4.502-8.641-10.417-15.72-17.741-21.236C84.458,169.311,90.373,162.215,94.875,153.541L94.875,153.541z"/>
	<g>
		<g>
			<polygon fill="#E03837" points="11.229,38.706 11.229,14.647 13.409,14.647 13.409,38.706 11.229,38.706 			"/>
		</g>
		<path fill="#E03837" d="M17.969,37.425c-0.794-0.816-1.304-1.98-1.302-3.262l0,0V19.227c-0.002-1.282,0.508-2.445,1.302-3.262l0,0
			c0.793-0.82,1.88-1.317,3.065-1.317l0,0c1.185,0,2.271,0.497,3.066,1.317l0,0c0.793,0.817,1.303,1.98,1.301,3.262l0,0v14.937
			c0.002,1.281-0.508,2.445-1.301,3.262l0,0c-0.795,0.82-1.882,1.317-3.066,1.317l0,0C19.849,38.742,18.762,38.245,17.969,37.425
			L17.969,37.425z M19.466,17.701c-0.393,0.408-0.617,0.938-0.618,1.525l0,0v14.937c0.001,0.588,0.226,1.116,0.618,1.525l0,0
			c0.392,0.405,0.943,0.666,1.568,0.666l0,0c0.625,0,1.176-0.261,1.568-0.666l0,0c0.393-0.409,0.617-0.938,0.618-1.525l0,0V19.227
			c-0.001-0.588-0.226-1.117-0.618-1.525l0,0c-0.393-0.405-0.943-0.666-1.568-0.666l0,0C20.409,17.035,19.857,17.296,19.466,17.701
			L19.466,17.701z"/>
	</g>
	<g>
		<g>
			<polygon fill="#E03837" points="178.473,211.688 178.473,235.746 176.291,235.746 176.291,211.688 178.473,211.688 			"/>
		</g>
		<path fill="#E03837" d="M171.732,212.969c0.795,0.816,1.303,1.98,1.303,3.262l0,0v14.937c0,1.282-0.508,2.445-1.303,3.263l0,0
			c-0.793,0.819-1.881,1.316-3.066,1.316l0,0c-1.184,0-2.271-0.497-3.064-1.316l0,0c-0.795-0.817-1.303-1.98-1.303-3.263l0,0V216.23
			c0-1.281,0.508-2.445,1.303-3.262l0,0c0.793-0.82,1.881-1.316,3.064-1.316l0,0C169.852,211.652,170.939,212.148,171.732,212.969
			L171.732,212.969z M170.236,232.692c0.393-0.408,0.617-0.938,0.617-1.525l0,0V216.23c0-0.588-0.225-1.116-0.617-1.525l0,0
			c-0.393-0.405-0.943-0.666-1.57-0.666l0,0c-0.623,0-1.176,0.261-1.568,0.666l0,0c-0.393,0.409-0.615,0.938-0.617,1.525l0,0v14.937
			c0.002,0.588,0.225,1.117,0.617,1.525l0,0c0.393,0.405,0.945,0.666,1.568,0.666l0,0
			C169.293,233.358,169.844,233.098,170.236,232.692L170.236,232.692z"/>
	</g>
</g>
</svg>
