<?xml version="1.0" encoding="utf-8"?>
<!-- Generator: Adobe Illustrator 16.0.0, SVG Export Plug-In . SVG Version: 6.00 Build 0)  -->
<!DOCTYPE svg PUBLIC "-//W3C//DTD SVG 1.1//EN" "http://www.w3.org/Graphics/SVG/1.1/DTD/svg11.dtd">
<svg version="1.1" id="圖層_1" xmlns="http://www.w3.org/2000/svg" xmlns:xlink="http://www.w3.org/1999/xlink" x="0px" y="0px"
	 width="188.25px" height="250px" viewBox="0 0 188.25 250" enable-background="new 0 0 188.25 250" xml:space="preserve">
<g>
	<path display="none" fill="#F9FAF9" stroke="#000000" d="M183.417,235.552c0,7.827-6.346,14.173-14.174,14.173H19.007
		c-7.828,0-14.174-6.346-14.174-14.173V14.449c0-7.828,6.346-14.174,14.174-14.174h150.236c7.828,0,14.174,6.346,14.174,14.174
		V235.552z"/>
	<g>
		<path fill-rule="evenodd" clip-rule="evenodd" d="M18.906,55.938c-0.427-0.669-0.536-1.699-0.605-1.224
			c-0.249,1.817,0.509,3.563,0.918,5.09c-0.923-0.337-2.325-0.337-3.249,0c0.448-1.552,1.157-3.172,0.988-5.09
			c-0.076-0.434-0.187,0.523-0.635,1.206c-0.573,0.871-1.602,1.25-2.619,1.223c-1.478-0.04-2.964-0.954-3.173-2.563
			c-0.049-0.371-0.026-0.835,0-1.205c0.331-4.686,3.995-8.8,7.063-10.579c0.057,0.012,0.07,0.066,0.142,0.066
			c3.026,1.94,6.56,5.727,6.922,10.445c0.173,2.245-0.945,3.871-3.108,3.884C20.369,57.199,19.42,56.741,18.906,55.938z"/>
	</g>
	<g>
		<path fill-rule="evenodd" clip-rule="evenodd" d="M169.345,194.063c0.426,0.668,0.535,1.699,0.604,1.221
			c0.248-1.816-0.508-3.563-0.918-5.088c0.924,0.338,2.326,0.338,3.248,0c-0.449,1.552-1.156,3.172-0.988,5.088
			c0.076,0.436,0.188-0.521,0.635-1.203c0.574-0.872,1.604-1.252,2.621-1.224c1.477,0.04,2.963,0.954,3.172,2.562
			c0.049,0.372,0.025,0.836,0,1.206c-0.332,4.687-3.994,8.8-7.064,10.579c-0.057-0.014-0.07-0.067-0.141-0.066
			c-3.025-1.941-6.561-5.727-6.922-10.445c-0.172-2.244,0.945-3.871,3.109-3.883C167.88,192.8,168.829,193.259,169.345,194.063z"/>
	</g>
	<g>
		<g>
			<polygon points="177.733,219.373 177.747,219.983 168.87,235.55 168.636,235.548 167.169,233.972 176.12,218.238 			"/>
		</g>
		<g>
			<polygon points="168.794,235.55 166.56,235.552 166.548,211.511 168.784,211.509 168.794,235.55 			"/>
		</g>
		<g>
			<polygon points="170.282,213.848 165.044,213.866 165.038,211.475 170.272,211.456 170.282,213.848 			"/>
		</g>
		<g>
			<polygon points="177.747,217.593 177.747,219.983 163.573,219.983 163.573,217.593 177.747,217.593 			"/>
		</g>
	</g>
	<path fill-rule="evenodd" clip-rule="evenodd" stroke="#000000" stroke-width="0.1625" stroke-linejoin="round" d="M50.873,25.788
		c-0.103,0.067-0.175,0.104-0.293,0.181c-7.596,4.85-16.456,14.311-17.364,26.104c-0.433,5.609,3.155,9.494,7.793,9.579
		c2.961,0.054,5.342-0.998,6.632-3.008c1.072-1.671,1.346-4.247,1.52-3.058c0.625,4.542-1.276,8.907-2.306,12.721
		c1.147-0.417,2.589-0.627,4.033-0.632h0.024c1.442,0.005,2.881,0.215,4.026,0.632c-1.027-3.813-2.926-8.179-2.302-12.721
		c0.173-1.189,0.446,1.387,1.517,3.058c1.288,2.01,3.67,3.062,6.63,3.008c4.639-0.085,8.227-3.97,7.794-9.579
		c-0.908-11.794-9.77-21.255-17.357-26.104c-0.083-0.063-0.155-0.1-0.274-0.181H50.873z"/>
	<path fill-rule="evenodd" clip-rule="evenodd" stroke="#000000" stroke-width="0.1625" stroke-linejoin="round" d="M137.329,25.788
		c-0.102,0.067-0.174,0.104-0.293,0.181c-7.596,4.85-16.455,14.311-17.363,26.104c-0.434,5.609,3.154,9.494,7.793,9.579
		c2.961,0.054,5.342-0.998,6.631-3.008c1.072-1.671,1.346-4.247,1.52-3.058c0.625,4.542-1.275,8.907-2.305,12.721
		c1.146-0.417,2.588-0.627,4.033-0.632h0.023c1.443,0.005,2.881,0.215,4.027,0.632c-1.027-3.813-2.926-8.179-2.303-12.721
		c0.174-1.189,0.447,1.387,1.518,3.058c1.287,2.01,3.67,3.062,6.629,3.008c4.639-0.085,8.227-3.97,7.795-9.579
		c-0.908-11.794-9.77-21.255-17.357-26.104c-0.084-0.063-0.156-0.1-0.275-0.181H137.329z"/>
	<path fill-rule="evenodd" clip-rule="evenodd" stroke="#000000" stroke-width="0.1625" stroke-linejoin="round" d="M50.872,224.213
		c-0.102-0.067-0.174-0.104-0.293-0.181c-7.595-4.85-16.456-14.311-17.364-26.104c-0.432-5.61,3.155-9.494,7.794-9.579
		c2.961-0.054,5.342,0.998,6.632,3.008c1.072,1.671,1.346,4.247,1.52,3.057c0.625-4.541-1.277-8.906-2.307-12.72
		c1.147,0.417,2.59,0.627,4.034,0.632h0.023c1.442-0.005,2.882-0.215,4.027-0.632c-1.027,3.813-2.926,8.179-2.303,12.72
		c0.174,1.19,0.446-1.386,1.517-3.057c1.289-2.01,3.671-3.062,6.631-3.008c4.639,0.085,8.227,3.969,7.794,9.579
		c-0.908,11.794-9.77,21.255-17.358,26.104c-0.082,0.062-0.155,0.1-0.274,0.181H50.872z"/>
	<path fill-rule="evenodd" clip-rule="evenodd" stroke="#000000" stroke-width="0.1625" stroke-linejoin="round" d="
		M137.329,224.213c-0.102-0.067-0.174-0.104-0.293-0.181c-7.596-4.85-16.455-14.311-17.363-26.104
		c-0.434-5.61,3.154-9.494,7.793-9.579c2.961-0.054,5.342,0.998,6.631,3.008c1.072,1.671,1.346,4.247,1.52,3.057
		c0.625-4.541-1.275-8.906-2.305-12.72c1.146,0.417,2.588,0.627,4.033,0.632h0.023c1.443-0.005,2.881-0.215,4.027-0.632
		c-1.027,3.813-2.926,8.179-2.303,12.72c0.174,1.19,0.447-1.386,1.518-3.057c1.287-2.01,3.67-3.062,6.629-3.008
		c4.639,0.085,8.227,3.969,7.795,9.579c-0.908,11.794-9.77,21.255-17.357,26.104c-0.084,0.062-0.156,0.1-0.275,0.181H137.329z"/>
	<g>
		<g>
			<polygon points="10.517,30.627 10.503,30.017 19.379,14.45 19.613,14.452 21.081,16.028 12.129,31.762 			"/>
		</g>
		<g>
			<polygon points="19.456,14.45 21.69,14.449 21.701,38.489 19.466,38.491 19.456,14.45 			"/>
		</g>
		<g>
			<polygon points="17.968,36.152 23.205,36.134 23.212,38.525 17.977,38.544 17.968,36.152 			"/>
		</g>
		<g>
			<polygon points="10.503,32.408 10.503,30.017 24.676,30.017 24.676,32.408 10.503,32.408 			"/>
		</g>
	</g>
</g>
</svg>
