<?xml version="1.0" encoding="utf-8"?>
<!-- Generator: Adobe Illustrator 16.0.0, SVG Export Plug-In . SVG Version: 6.00 Build 0)  -->
<!DOCTYPE svg PUBLIC "-//W3C//DTD SVG 1.1//EN" "http://www.w3.org/Graphics/SVG/1.1/DTD/svg11.dtd">
<svg version="1.1" id="圖層_1" xmlns="http://www.w3.org/2000/svg" xmlns:xlink="http://www.w3.org/1999/xlink" x="0px" y="0px"
	 width="188.25px" height="250px" viewBox="0 0 188.25 250" enable-background="new 0 0 188.25 250" xml:space="preserve">
<g>
	<path display="none" fill="#F9F9F8" stroke="#231815" d="M183.756,236.292c0,7.828-6.345,14.174-14.173,14.174H19.348
		c-7.828,0-14.174-6.346-14.174-14.174V15.189c0-7.827,6.346-14.173,14.174-14.173h150.235c7.828,0,14.173,6.346,14.173,14.173
		V236.292z"/>
	<path d="M17.93,43.536c-1.863,0-3.377,1.703-3.377,3.802c0,1.2,0.501,2.265,1.27,2.967c0.259,0.237,0.147,0.495-0.116,0.334
		c-0.479-0.291-1.021-0.477-1.606-0.477c-1.797,0-3.256,1.643-3.256,3.666c0,2.024,1.459,3.667,3.256,3.667
		c1.198,0,2.248-0.729,2.811-1.816c0.056-0.105,0.1-0.252,0.178-0.252c0.107,0,0.156,0.175,0.156,0.502
		c0,1.314-0.504,2.852-1.251,4.615c0.323-0.076,1.299-0.271,1.937-0.271c0.639,0,1.614,0.194,1.937,0.271
		c-0.745-1.764-1.251-3.301-1.251-4.615c0-0.327,0.05-0.502,0.157-0.502c0.077,0,0.122,0.146,0.177,0.252
		c0.563,1.088,1.612,1.816,2.811,1.816c1.798,0,3.257-1.643,3.257-3.667c0-2.023-1.459-3.666-3.257-3.666
		c-0.584,0-1.126,0.186-1.606,0.477c-0.263,0.161-0.374-0.097-0.115-0.334c0.768-0.702,1.269-1.767,1.269-2.967
		C21.307,45.239,19.793,43.536,17.93,43.536z"/>
	<path d="M171.001,207.946c1.863,0,3.376-1.704,3.376-3.803c0-1.199-0.5-2.264-1.268-2.966c-0.26-0.238-0.147-0.495,0.115-0.335
		c0.479,0.292,1.021,0.477,1.606,0.477c1.797,0,3.257-1.643,3.257-3.666s-1.46-3.666-3.257-3.666c-1.198,0-2.247,0.729-2.811,1.816
		c-0.056,0.105-0.1,0.252-0.177,0.252c-0.107,0-0.157-0.175-0.157-0.502c0-1.314,0.505-2.852,1.25-4.616
		c-0.321,0.076-1.298,0.271-1.936,0.271c-0.639,0-1.613-0.195-1.937-0.271c0.745,1.765,1.252,3.302,1.252,4.616
		c0,0.327-0.052,0.502-0.158,0.502c-0.078,0-0.123-0.146-0.177-0.252c-0.563-1.088-1.612-1.816-2.811-1.816
		c-1.798,0-3.257,1.643-3.257,3.666s1.459,3.666,3.257,3.666c0.585,0,1.126-0.185,1.606-0.477c0.264-0.16,0.374,0.097,0.116,0.335
		c-0.769,0.702-1.269,1.767-1.269,2.966C167.625,206.242,169.138,207.946,171.001,207.946z"/>
	<path d="M51.238,26.528c-4.66,0-8.441,4.258-8.441,9.504c0,2.999,1.252,5.66,3.17,7.417c0.647,0.593,0.371,1.237-0.289,0.836
		c-1.2-0.729-2.554-1.193-4.016-1.193c-4.494,0-8.142,4.106-8.142,9.167s3.647,9.168,8.142,9.168c2.996,0,5.618-1.823,7.025-4.542
		c0.139-0.266,0.25-0.631,0.445-0.631c0.266,0,0.391,0.438,0.391,1.256c0,3.287-1.262,7.126-3.127,11.538
		c0.806-0.191,3.247-0.678,4.842-0.678c1.594,0,4.035,0.486,4.841,0.678c-1.866-4.412-3.128-8.251-3.128-11.538
		c0-0.818,0.125-1.256,0.393-1.256c0.194,0,0.306,0.365,0.442,0.631c1.408,2.719,4.031,4.542,7.026,4.542
		c4.494,0,8.142-4.107,8.142-9.168s-3.647-9.167-8.142-9.167c-1.462,0-2.816,0.464-4.015,1.193c-0.66,0.401-0.938-0.243-0.29-0.836
		c1.92-1.757,3.17-4.418,3.17-7.417C59.678,30.786,55.896,26.528,51.238,26.528z"/>
	<path d="M51.237,224.806c4.659,0,8.441-4.258,8.441-9.502c0-3.001-1.251-5.662-3.171-7.418c-0.647-0.592-0.37-1.236,0.29-0.837
		c1.199,0.73,2.553,1.194,4.015,1.194c4.494,0,8.142-4.107,8.142-9.167c0-5.061-3.647-9.167-8.142-9.167
		c-2.995,0-5.617,1.822-7.025,4.541c-0.138,0.266-0.249,0.629-0.443,0.629c-0.268,0-0.393-0.436-0.393-1.254
		c0-3.287,1.262-7.127,3.128-11.539c-0.806,0.192-3.247,0.68-4.842,0.68s-4.035-0.487-4.841-0.68
		c1.866,4.412,3.127,8.252,3.127,11.539c0,0.818-0.124,1.254-0.391,1.254c-0.195,0-0.307-0.363-0.444-0.629
		c-1.408-2.719-4.03-4.541-7.026-4.541c-4.494,0-8.142,4.106-8.142,9.167c0,5.06,3.647,9.167,8.142,9.167
		c1.462,0,2.816-0.464,4.016-1.194c0.66-0.399,0.938,0.245,0.289,0.837c-1.918,1.756-3.17,4.417-3.17,7.418
		C42.797,220.548,46.578,224.806,51.237,224.806z"/>
	<path d="M137.693,26.677c-4.659,0-8.439,4.258-8.439,9.504c0,2.998,1.25,5.66,3.169,7.416c0.648,0.594,0.371,1.237-0.289,0.836
		c-1.199-0.729-2.554-1.192-4.015-1.192c-4.494,0-8.142,4.106-8.142,9.167c0,5.06,3.647,9.167,8.142,9.167
		c2.994,0,5.617-1.822,7.024-4.542c0.14-0.266,0.25-0.631,0.445-0.631c0.267,0,0.392,0.438,0.392,1.257
		c0,3.286-1.262,7.126-3.127,11.538c0.805-0.191,3.246-0.679,4.84-0.679c1.596,0,4.037,0.487,4.842,0.679
		c-1.866-4.412-3.128-8.252-3.128-11.538c0-0.819,0.125-1.257,0.393-1.257c0.195,0,0.306,0.365,0.443,0.631
		c1.408,2.72,4.03,4.542,7.025,4.542c4.494,0,8.142-4.107,8.142-9.167c0-5.061-3.647-9.167-8.142-9.167
		c-1.461,0-2.814,0.463-4.015,1.192c-0.659,0.401-0.938-0.242-0.289-0.836c1.917-1.756,3.17-4.418,3.17-7.416
		C146.135,30.935,142.353,26.677,137.693,26.677z"/>
	<path d="M137.693,224.954c4.66,0,8.441-4.258,8.441-9.504c0-2.998-1.253-5.66-3.17-7.416c-0.647-0.594-0.37-1.238,0.289-0.836
		c1.2,0.729,2.554,1.193,4.016,1.193c4.493,0,8.141-4.107,8.141-9.168c0-5.06-3.647-9.167-8.141-9.167
		c-2.996,0-5.618,1.822-7.026,4.54c-0.138,0.266-0.248,0.632-0.443,0.632c-0.267,0-0.393-0.437-0.393-1.257
		c0-3.286,1.263-7.125,3.128-11.537c-0.805,0.191-3.246,0.678-4.842,0.678c-1.594,0-4.035-0.486-4.841-0.678
		c1.866,4.412,3.128,8.251,3.128,11.537c0,0.82-0.124,1.257-0.392,1.257c-0.195,0-0.306-0.366-0.443-0.632
		c-1.408-2.718-4.032-4.54-7.025-4.54c-4.495,0-8.143,4.107-8.143,9.167c0,5.061,3.647,9.168,8.143,9.168
		c1.46,0,2.814-0.465,4.014-1.193c0.66-0.402,0.938,0.242,0.289,0.836c-1.919,1.756-3.169,4.418-3.169,7.416
		C129.254,220.696,133.035,224.954,137.693,224.954z"/>
	<g>
		<polygon fill="none" points="13.462,30.757 19.803,30.757 19.799,19.622 		"/>
		<path d="M25.016,33.148v-2.392h-2.978L22.031,15.19h-2.234v0.001L19.72,15.19l-8.877,15.566v2.392h8.961l0.002,3.739l-1.497,0.006
			l0.008,2.391l5.236-0.019l-0.008-2.392l-1.504,0.006l-0.002-3.731H25.016z M13.462,30.757l6.337-11.135l0.004,11.135H13.462z"/>
	</g>
	<g>
		<polygon fill="none" points="175.468,220.726 169.127,220.726 169.132,231.86 		"/>
		<path d="M163.914,218.333v2.393h2.978l0.007,15.566l2.235-0.001v-0.001l0.076,0.001l8.877-15.565v-2.393h-8.961l-0.002-3.738
			l1.497-0.006l-0.008-2.391l-5.236,0.018l0.008,2.393l1.505-0.006l0.001,3.73H163.914z M175.468,220.726l-6.336,11.135
			l-0.005-11.135H175.468z"/>
	</g>
</g>
</svg>
