<?xml version="1.0" encoding="utf-8"?>
<!-- Generator: Adobe Illustrator 16.0.0, SVG Export Plug-In . SVG Version: 6.00 Build 0)  -->
<!DOCTYPE svg PUBLIC "-//W3C//DTD SVG 1.1//EN" "http://www.w3.org/Graphics/SVG/1.1/DTD/svg11.dtd">
<svg version="1.1" id="圖層_1" xmlns="http://www.w3.org/2000/svg" xmlns:xlink="http://www.w3.org/1999/xlink" x="0px" y="0px"
	 width="188.25px" height="250px" viewBox="0 0 188.25 250" enable-background="new 0 0 188.25 250" xml:space="preserve">
<g>
	<path display="none" fill="#F9F9F8" stroke="#231815" d="M183.598,235.749c0,7.827-6.344,14.173-14.172,14.173H19.189
		c-7.828,0-14.173-6.346-14.173-14.173V14.647c0-7.828,6.346-14.174,14.173-14.174h150.236c7.828,0,14.172,6.346,14.172,14.174
		V235.749z"/>
	<path d="M17.772,42.994c-1.864,0-3.377,1.703-3.377,3.801c0,1.2,0.5,2.264,1.269,2.966c0.259,0.237,0.148,0.495-0.116,0.334
		c-0.48-0.292-1.021-0.477-1.606-0.477c-1.797,0-3.256,1.642-3.256,3.667c0,2.024,1.459,3.667,3.256,3.667
		c1.198,0,2.248-0.729,2.811-1.816c0.056-0.107,0.1-0.253,0.178-0.253c0.107,0,0.157,0.175,0.157,0.503
		c0,1.314-0.504,2.851-1.251,4.615c0.323-0.076,1.299-0.271,1.937-0.271c0.638,0,1.614,0.195,1.936,0.271
		c-0.746-1.765-1.251-3.301-1.251-4.615c0-0.328,0.05-0.503,0.157-0.503c0.077,0,0.122,0.146,0.177,0.253
		c0.563,1.088,1.612,1.816,2.81,1.816c1.798,0,3.257-1.643,3.257-3.667c0-2.024-1.459-3.667-3.257-3.667
		c-0.584,0-1.126,0.185-1.606,0.477c-0.263,0.161-0.374-0.097-0.115-0.334c0.768-0.702,1.269-1.767,1.269-2.966
		C21.149,44.697,19.635,42.994,17.772,42.994z"/>
	<path d="M170.844,207.402c1.863,0,3.375-1.704,3.375-3.802c0-1.198-0.5-2.264-1.268-2.967c-0.26-0.237-0.146-0.494,0.115-0.334
		c0.48,0.293,1.021,0.477,1.607,0.477c1.797,0,3.256-1.643,3.256-3.666s-1.459-3.666-3.256-3.666c-1.199,0-2.248,0.729-2.811,1.816
		c-0.057,0.105-0.1,0.252-0.178,0.252c-0.107,0-0.156-0.175-0.156-0.503c0-1.313,0.504-2.851,1.25-4.616
		c-0.322,0.077-1.299,0.272-1.936,0.272c-0.639,0-1.613-0.195-1.938-0.272c0.746,1.766,1.252,3.303,1.252,4.616
		c0,0.328-0.051,0.503-0.158,0.503c-0.078,0-0.123-0.146-0.176-0.252c-0.563-1.088-1.613-1.816-2.811-1.816
		c-1.799,0-3.258,1.643-3.258,3.666s1.459,3.666,3.258,3.666c0.584,0,1.125-0.184,1.605-0.477c0.264-0.16,0.375,0.097,0.117,0.334
		c-0.77,0.703-1.27,1.769-1.27,2.967C167.467,205.698,168.98,207.402,170.844,207.402z"/>
	<path d="M51.081,26.09c-4.66,0-8.441,4.258-8.441,9.504c0,2.999,1.251,5.66,3.17,7.417c0.647,0.593,0.371,1.237-0.289,0.836
		c-1.2-0.729-2.554-1.193-4.016-1.193c-4.493,0-8.142,4.107-8.142,9.167c0,5.061,3.648,9.168,8.142,9.168
		c2.996,0,5.618-1.823,7.026-4.542c0.138-0.266,0.25-0.631,0.444-0.631c0.267,0,0.392,0.438,0.392,1.256
		c0,3.287-1.262,7.126-3.127,11.539c0.806-0.192,3.247-0.678,4.842-0.678c1.594,0,4.035,0.486,4.841,0.678
		c-1.867-4.413-3.128-8.251-3.128-11.539c0-0.818,0.125-1.256,0.393-1.256c0.194,0,0.306,0.365,0.443,0.631
		c1.408,2.719,4.03,4.542,7.026,4.542c4.494,0,8.142-4.107,8.142-9.168c0-5.06-3.647-9.167-8.142-9.167
		c-1.462,0-2.816,0.464-4.015,1.193c-0.66,0.401-0.938-0.243-0.289-0.836c1.918-1.757,3.169-4.418,3.169-7.417
		C59.52,30.348,55.739,26.09,51.081,26.09z"/>
	<path d="M51.081,103.991c-4.66,0-8.441,4.253-8.441,9.492c0,3,1.251,5.668,3.17,7.428c0.647,0.594,0.371,1.24-0.289,0.838
		c-1.2-0.731-2.554-1.195-4.016-1.195c-4.493,0-8.142,4.115-8.142,9.172c0,5.054,3.648,9.157,8.142,9.157
		c2.996,0,5.618-1.82,7.026-4.537c0.138-0.266,0.25-0.63,0.444-0.63c0.267,0,0.392,0.437,0.392,1.255
		c0,3.283-1.262,7.123-3.127,11.54c0.806-0.192,3.247-0.679,4.842-0.679c1.594,0,4.035,0.486,4.841,0.679
		c-1.867-4.417-3.128-8.257-3.128-11.54c0-0.818,0.125-1.255,0.393-1.255c0.194,0,0.306,0.364,0.443,0.63
		c1.408,2.717,4.03,4.537,7.026,4.537c4.494,0,8.142-4.104,8.142-9.157c0-5.057-3.647-9.172-8.142-9.172
		c-1.462,0-2.816,0.464-4.015,1.195c-0.66,0.402-0.938-0.244-0.289-0.838c1.918-1.76,3.169-4.428,3.169-7.428
		C59.52,108.244,55.739,103.991,51.081,103.991z"/>
	<path d="M51.08,224.41c4.66,0,8.441-4.258,8.441-9.505c0-2.998-1.251-5.658-3.17-7.415c-0.648-0.593-0.371-1.237,0.289-0.837
		c1.199,0.73,2.553,1.193,4.015,1.193c4.494,0,8.142-4.105,8.142-9.166s-3.647-9.168-8.142-9.168c-2.995,0-5.618,1.822-7.026,4.541
		c-0.137,0.266-0.249,0.632-0.443,0.632c-0.268,0-0.393-0.438-0.393-1.257c0-3.286,1.262-7.125,3.128-11.538
		c-0.806,0.192-3.247,0.679-4.842,0.679s-4.035-0.486-4.841-0.679c1.866,4.413,3.127,8.252,3.127,11.538
		c0,0.818-0.124,1.257-0.392,1.257c-0.194,0-0.305-0.366-0.443-0.632c-1.408-2.719-4.03-4.541-7.025-4.541
		c-4.494,0-8.143,4.107-8.143,9.168s3.648,9.166,8.143,9.166c1.461,0,2.815-0.463,4.015-1.193c0.66-0.4,0.938,0.244,0.289,0.837
		c-1.918,1.757-3.169,4.417-3.169,7.415C42.64,220.152,46.421,224.41,51.08,224.41z"/>
	<path d="M137.535,25.986c-4.66,0-8.439,4.258-8.439,9.503c0,2.999,1.25,5.66,3.168,7.417c0.648,0.593,0.371,1.237-0.287,0.836
		c-1.201-0.729-2.555-1.192-4.016-1.192c-4.494,0-8.143,4.106-8.143,9.167s3.648,9.167,8.143,9.167c2.994,0,5.617-1.822,7.025-4.541
		c0.139-0.267,0.248-0.631,0.443-0.631c0.268,0,0.393,0.438,0.393,1.256c0,3.287-1.264,7.126-3.129,11.538
		c0.807-0.191,3.248-0.678,4.842-0.678c1.596,0,4.035,0.487,4.842,0.678c-1.865-4.412-3.127-8.251-3.127-11.538
		c0-0.819,0.125-1.256,0.391-1.256c0.195,0,0.307,0.365,0.443,0.631c1.408,2.719,4.029,4.541,7.027,4.541
		c4.494,0,8.141-4.107,8.141-9.167s-3.646-9.167-8.141-9.167c-1.461,0-2.816,0.463-4.016,1.192c-0.66,0.401-0.938-0.243-0.289-0.836
		c1.918-1.756,3.17-4.417,3.17-7.417C145.977,30.244,142.195,25.986,137.535,25.986z"/>
	<path d="M137.535,103.938c-4.66,0-8.439,4.253-8.439,9.492c0,2.999,1.25,5.666,3.168,7.426c0.648,0.595,0.371,1.239-0.287,0.839
		c-1.201-0.732-2.555-1.196-4.016-1.196c-4.494,0-8.143,4.116-8.143,9.173c0,5.054,3.648,9.156,8.143,9.156
		c2.994,0,5.617-1.819,7.025-4.535c0.139-0.267,0.248-0.63,0.443-0.63c0.268,0,0.393,0.437,0.393,1.254
		c0,3.283-1.264,7.123-3.129,11.541c0.807-0.193,3.248-0.68,4.842-0.68c1.596,0,4.035,0.486,4.842,0.68
		c-1.865-4.418-3.127-8.258-3.127-11.541c0-0.817,0.125-1.254,0.391-1.254c0.195,0,0.307,0.363,0.443,0.63
		c1.408,2.716,4.029,4.535,7.027,4.535c4.494,0,8.141-4.103,8.141-9.156c0-5.057-3.646-9.173-8.141-9.173
		c-1.461,0-2.816,0.464-4.016,1.196c-0.66,0.4-0.938-0.244-0.289-0.839c1.918-1.76,3.17-4.427,3.17-7.426
		C145.977,108.191,142.195,103.938,137.535,103.938z"/>
	<path d="M137.535,224.41c4.66,0,8.441-4.257,8.441-9.505c0-2.998-1.252-5.658-3.17-7.414c-0.648-0.594-0.371-1.239,0.289-0.838
		c1.201,0.73,2.555,1.194,4.016,1.194c4.494,0,8.141-4.106,8.141-9.167s-3.646-9.168-8.141-9.168c-2.998,0-5.619,1.822-7.027,4.541
		c-0.137,0.266-0.248,0.631-0.443,0.631c-0.266,0-0.391-0.438-0.391-1.256c0-3.286,1.262-7.126,3.127-11.538
		c-0.807,0.192-3.246,0.679-4.842,0.679c-1.594,0-4.035-0.486-4.842-0.679c1.867,4.412,3.129,8.252,3.129,11.538
		c0,0.818-0.125,1.256-0.393,1.256c-0.195,0-0.305-0.365-0.443-0.631c-1.408-2.719-4.031-4.541-7.025-4.541
		c-4.494,0-8.143,4.107-8.143,9.168s3.648,9.167,8.143,9.167c1.461,0,2.814-0.464,4.016-1.194c0.658-0.401,0.938,0.244,0.287,0.838
		c-1.918,1.756-3.168,4.416-3.168,7.414C129.096,220.153,132.877,224.41,137.535,224.41z"/>
	<g>
		<path fill="none" d="M19.877,24.249c-0.577-0.294-1.242-0.464-2.019-0.465c-0.015,0-0.033,0.001-0.055,0.001
			c-0.756,0.009-1.41,0.193-1.986,0.511c-0.575,0.318-1.076,0.775-1.496,1.354c-0.84,1.153-1.345,2.811-1.343,4.639
			c0,0.117,0.009,0.229,0.013,0.345c0.009,0.092,0.012,0.181,0.021,0.273l-0.011,0.002c0.106,1.537,0.605,2.833,1.351,3.762
			c0.851,1.049,1.998,1.664,3.44,1.671c0.759-0.001,1.42-0.176,2.002-0.483c0.582-0.31,1.088-0.754,1.514-1.319
			c0.851-1.127,1.365-2.751,1.363-4.573c0-1.362-0.276-2.589-0.763-3.566C21.422,25.422,20.741,24.691,19.877,24.249z"/>
		<path d="M23.036,23.966c-0.604-0.792-1.359-1.445-2.235-1.893c-0.876-0.448-1.871-0.689-2.941-0.688
			c-0.028,0-0.054,0.001-0.075,0.001c-1.074,0.011-2.074,0.283-2.949,0.768c-0.581,0.321-1.101,0.736-1.562,1.219
			c0.042-0.249,0.084-0.488,0.127-0.708c0.132-0.678,0.263-1.215,0.359-1.577c0.049-0.181,0.088-0.318,0.115-0.409
			c0.013-0.044,0.023-0.077,0.029-0.097c0.004-0.011,0.007-0.018,0.008-0.021c0-0.001,0.001-0.002,0.001-0.002v-0.002l0.01-0.029
			l0.006-0.026l0.002-0.005v-0.001c0.023-0.083,0.296-0.936,0.912-1.735c0.32-0.416,0.727-0.819,1.237-1.128
			c0.512-0.309,1.13-0.531,1.925-0.576c0.111-0.006,0.218-0.008,0.322-0.008c1.412,0.004,2.34,0.502,2.952,0.986
			c0.305,0.243,0.523,0.484,0.66,0.655c0.067,0.086,0.115,0.154,0.144,0.195c0.014,0.021,0.021,0.033,0.024,0.039
			c0.003,0.003,0.003,0.003,0.003,0.003l0.543-0.388l1.304-0.895c-0.053-0.09-0.477-0.818-1.391-1.55
			c-0.909-0.732-2.332-1.45-4.239-1.446c-0.14,0-0.284,0.003-0.432,0.012c-1.155,0.061-2.146,0.415-2.945,0.916
			c-1.203,0.753-1.971,1.803-2.44,2.649c-0.428,0.774-0.619,1.393-0.664,1.55c-0.113,0.36-1.158,3.747-1.16,8.376
			c0,0.851,0.044,1.748,0.128,2.672c0.096,2.108,0.758,4.012,1.899,5.435c1.227,1.54,3.026,2.484,5.06,2.484
			c0.007,0,0.015,0,0.021,0c1.071,0,2.072-0.255,2.952-0.722c1.323-0.7,2.362-1.864,3.056-3.267
			c0.695-1.405,1.057-3.052,1.058-4.786C24.858,27.681,24.244,25.557,23.036,23.966z M21.309,34.54
			c-0.426,0.565-0.932,1.009-1.514,1.319c-0.582,0.307-1.243,0.482-2.002,0.483c-1.442-0.007-2.59-0.622-3.44-1.671
			c-0.746-0.929-1.245-2.225-1.351-3.762l0.011-0.002c-0.01-0.093-0.013-0.182-0.021-0.273c-0.004-0.115-0.013-0.228-0.013-0.345
			c-0.002-1.828,0.503-3.485,1.343-4.639c0.42-0.579,0.921-1.036,1.496-1.354c0.576-0.317,1.23-0.502,1.986-0.511
			c0.021,0,0.04-0.001,0.055-0.001c0.776,0.001,1.441,0.171,2.019,0.465c0.863,0.442,1.545,1.173,2.032,2.151
			c0.486,0.978,0.763,2.204,0.763,3.566C22.674,31.789,22.16,33.413,21.309,34.54z"/>
	</g>
	<g>
		<path fill="none" d="M168.738,226.146c0.576,0.294,1.242,0.464,2.018,0.465c0.014,0,0.033-0.001,0.055-0.001
			c0.756-0.009,1.41-0.193,1.986-0.511c0.574-0.318,1.074-0.775,1.496-1.354c0.84-1.153,1.344-2.811,1.342-4.639
			c0-0.117-0.008-0.229-0.012-0.344c-0.01-0.093-0.012-0.182-0.021-0.274l0.012-0.001c-0.107-1.537-0.605-2.834-1.352-3.763
			c-0.852-1.05-1.998-1.664-3.441-1.671c-0.758,0.001-1.418,0.176-2.002,0.483c-0.58,0.31-1.086,0.754-1.512,1.319
			c-0.852,1.127-1.365,2.75-1.365,4.572c0,1.362,0.277,2.589,0.764,3.566C167.193,224.974,167.875,225.704,168.738,226.146z"/>
		<path d="M165.58,226.43c0.604,0.792,1.359,1.445,2.234,1.893c0.875,0.448,1.871,0.689,2.941,0.688c0.029,0,0.055,0,0.076,0
			c1.074-0.012,2.074-0.284,2.949-0.769c0.58-0.321,1.1-0.736,1.561-1.218c-0.041,0.248-0.084,0.487-0.127,0.707
			c-0.133,0.678-0.264,1.215-0.359,1.577c-0.049,0.181-0.088,0.318-0.115,0.409c-0.014,0.044-0.023,0.077-0.029,0.098
			c-0.004,0.01-0.006,0.018-0.006,0.021c0,0.001-0.002,0.002-0.002,0.002v0.002l-0.01,0.029l-0.008,0.026l-0.002,0.005v0.001
			c-0.021,0.083-0.295,0.936-0.912,1.735c-0.318,0.417-0.727,0.819-1.236,1.128c-0.512,0.309-1.129,0.531-1.924,0.576
			c-0.111,0.006-0.219,0.008-0.324,0.008c-1.41-0.004-2.338-0.502-2.951-0.986c-0.305-0.242-0.523-0.484-0.66-0.655
			c-0.066-0.086-0.115-0.154-0.143-0.194c-0.014-0.021-0.021-0.034-0.025-0.04c-0.002-0.003-0.002-0.003-0.002-0.003l-0.545,0.388
			l-1.303,0.895c0.053,0.09,0.477,0.818,1.391,1.55c0.91,0.732,2.332,1.451,4.238,1.447c0.141,0,0.285-0.004,0.434-0.013
			c1.154-0.061,2.145-0.415,2.945-0.916c1.203-0.753,1.969-1.803,2.439-2.649c0.428-0.774,0.619-1.393,0.664-1.55
			c0.113-0.36,1.158-3.747,1.16-8.376c0-0.85-0.045-1.748-0.129-2.672c-0.096-2.107-0.758-4.012-1.898-5.435
			c-1.227-1.54-3.025-2.484-5.059-2.484c-0.008,0-0.016,0-0.023,0c-1.07-0.001-2.07,0.255-2.951,0.722
			c-1.322,0.7-2.361,1.865-3.055,3.268c-0.695,1.405-1.057,3.053-1.059,4.785C163.758,222.715,164.371,224.839,165.58,226.43z
			 M167.307,215.856c0.426-0.565,0.932-1.01,1.512-1.319c0.584-0.308,1.244-0.482,2.002-0.483c1.443,0.007,2.59,0.621,3.441,1.671
			c0.746,0.929,1.244,2.226,1.352,3.763l-0.012,0.001c0.01,0.093,0.012,0.182,0.021,0.274c0.004,0.114,0.012,0.227,0.012,0.344
			c0.002,1.828-0.502,3.485-1.342,4.639c-0.422,0.579-0.922,1.036-1.496,1.354c-0.576,0.317-1.23,0.502-1.986,0.511
			c-0.021,0-0.041,0.001-0.055,0.001c-0.775-0.001-1.441-0.171-2.018-0.465c-0.863-0.442-1.545-1.173-2.033-2.151
			c-0.486-0.978-0.764-2.204-0.764-3.566C165.941,218.606,166.455,216.983,167.307,215.856z"/>
	</g>
</g>
</svg>
