<?xml version="1.0" encoding="utf-8"?>
<!-- Generator: Adobe Illustrator 16.0.0, SVG Export Plug-In . SVG Version: 6.00 Build 0)  -->
<!DOCTYPE svg PUBLIC "-//W3C//DTD SVG 1.1//EN" "http://www.w3.org/Graphics/SVG/1.1/DTD/svg11.dtd">
<svg version="1.1" id="圖層_1" xmlns="http://www.w3.org/2000/svg" xmlns:xlink="http://www.w3.org/1999/xlink" x="0px" y="0px"
	 width="188.25px" height="250px" viewBox="0 0 188.25 250" enable-background="new 0 0 188.25 250" xml:space="preserve">
<path display="none" fill="#F9F9F8" stroke="#231815" d="M183.366,235.749c0,7.827-6.345,14.173-14.173,14.173H18.963
	c-7.828,0-14.173-6.346-14.173-14.173V14.647c0-7.828,6.346-14.174,14.173-14.174h150.23c7.828,0,14.173,6.346,14.173,14.174
	V235.749z"/>
<path d="M17.545,42.994c-1.863,0-3.376,1.703-3.376,3.801c0,1.2,0.5,2.264,1.269,2.967c0.259,0.237,0.148,0.495-0.116,0.334
	c-0.48-0.292-1.021-0.478-1.606-0.478c-1.797,0-3.256,1.643-3.256,3.667c0,2.023,1.459,3.667,3.256,3.667
	c1.198,0,2.248-0.729,2.811-1.817c0.056-0.106,0.1-0.252,0.178-0.252c0.106,0,0.157,0.175,0.157,0.503
	c0,1.314-0.505,2.851-1.252,4.615c0.323-0.076,1.299-0.271,1.937-0.271c0.638,0,1.614,0.195,1.937,0.271
	c-0.746-1.765-1.251-3.301-1.251-4.615c0-0.328,0.05-0.503,0.157-0.503c0.078,0,0.123,0.146,0.178,0.252
	c0.563,1.088,1.612,1.817,2.81,1.817c1.798,0,3.257-1.644,3.257-3.667c0-2.024-1.459-3.667-3.257-3.667
	c-0.584,0-1.126,0.186-1.606,0.478c-0.263,0.16-0.374-0.097-0.115-0.334c0.768-0.703,1.269-1.767,1.269-2.967
	C20.922,44.697,19.409,42.994,17.545,42.994z"/>
<path d="M170.612,207.402c1.863,0,3.377-1.704,3.377-3.802c0-1.199-0.501-2.264-1.268-2.967c-0.261-0.237-0.149-0.494,0.114-0.334
	c0.479,0.291,1.021,0.477,1.606,0.477c1.797,0,3.257-1.643,3.257-3.666s-1.46-3.667-3.257-3.667c-1.198,0-2.247,0.729-2.81,1.817
	c-0.057,0.105-0.101,0.252-0.179,0.252c-0.106,0-0.156-0.176-0.156-0.503c0-1.314,0.505-2.851,1.251-4.615
	c-0.322,0.076-1.299,0.271-1.937,0.271s-1.613-0.194-1.937-0.271c0.746,1.765,1.252,3.301,1.252,4.615
	c0,0.327-0.051,0.503-0.158,0.503c-0.077,0-0.123-0.146-0.177-0.252c-0.563-1.089-1.612-1.817-2.811-1.817
	c-1.798,0-3.257,1.644-3.257,3.667s1.459,3.666,3.257,3.666c0.585,0,1.126-0.186,1.606-0.477c0.264-0.16,0.375,0.097,0.116,0.334
	c-0.769,0.703-1.269,1.768-1.269,2.967C167.236,205.698,168.749,207.402,170.612,207.402z"/>
<path d="M50.853,25.985c-4.659,0-8.44,4.258-8.44,9.504c0,2.999,1.251,5.66,3.17,7.417c0.647,0.593,0.37,1.237-0.29,0.836
	c-1.199-0.729-2.553-1.193-4.015-1.193c-4.494,0-8.142,4.107-8.142,9.167c0,5.061,3.647,9.168,8.142,9.168
	c2.996,0,5.618-1.823,7.026-4.542c0.138-0.266,0.248-0.631,0.443-0.631c0.267,0,0.392,0.438,0.392,1.256
	c0,3.287-1.262,7.126-3.127,11.539c0.806-0.192,3.247-0.679,4.841-0.679c1.595,0,4.036,0.486,4.842,0.679
	c-1.866-4.412-3.128-8.251-3.128-11.539c0-0.819,0.125-1.256,0.392-1.256c0.195,0,0.306,0.365,0.443,0.631
	c1.408,2.719,4.03,4.542,7.026,4.542c4.494,0,8.141-4.107,8.141-9.168c0-5.06-3.647-9.167-8.141-9.167
	c-1.462,0-2.816,0.463-4.015,1.193c-0.66,0.401-0.938-0.243-0.289-0.836c1.918-1.756,3.169-4.417,3.169-7.417
	C59.293,30.243,55.512,25.985,50.853,25.985z"/>
<path d="M50.853,103.938c-4.659,0-8.44,4.256-8.44,9.5c0,2.998,1.251,5.658,3.17,7.413c0.647,0.594,0.37,1.238-0.29,0.837
	c-1.199-0.729-2.553-1.192-4.015-1.192c-4.494,0-8.142,4.103-8.142,9.161c0,5.059,3.647,9.164,8.142,9.164
	c2.996,0,5.618-1.82,7.026-4.539c0.138-0.266,0.248-0.631,0.443-0.631c0.267,0,0.392,0.438,0.392,1.256
	c0,3.285-1.262,7.129-3.127,11.551c0.806-0.193,3.247-0.68,4.841-0.68c1.595,0,4.036,0.486,4.842,0.68
	c-1.866-4.422-3.128-8.266-3.128-11.551c0-0.818,0.125-1.256,0.392-1.256c0.195,0,0.306,0.365,0.443,0.631
	c1.408,2.719,4.03,4.539,7.026,4.539c4.494,0,8.141-4.105,8.141-9.164c0-5.058-3.647-9.161-8.141-9.161
	c-1.462,0-2.816,0.463-4.015,1.192c-0.66,0.401-0.938-0.243-0.289-0.837c1.918-1.755,3.169-4.415,3.169-7.413
	C59.293,108.195,55.512,103.938,50.853,103.938z"/>
<path d="M50.853,224.41c4.659,0,8.441-4.257,8.441-9.505c0-2.998-1.252-5.658-3.17-7.415c-0.648-0.593-0.371-1.238,0.289-0.837
	c1.199,0.73,2.553,1.193,4.015,1.193c4.494,0,8.141-4.105,8.141-9.166s-3.647-9.168-8.141-9.168c-2.995,0-5.617,1.822-7.026,4.541
	c-0.138,0.266-0.248,0.631-0.443,0.631c-0.267,0-0.392-0.438-0.392-1.256c0-3.286,1.262-7.126,3.127-11.538
	c-0.805,0.191-3.246,0.679-4.841,0.679s-4.035-0.487-4.841-0.679c1.866,4.412,3.127,8.252,3.127,11.538
	c0,0.818-0.124,1.256-0.392,1.256c-0.195,0-0.306-0.365-0.443-0.631c-1.408-2.719-4.03-4.541-7.025-4.541
	c-4.495,0-8.143,4.107-8.143,9.168s3.647,9.166,8.143,9.166c1.461,0,2.815-0.463,4.014-1.193c0.66-0.401,0.938,0.244,0.29,0.837
	c-1.919,1.757-3.17,4.417-3.17,7.415C42.413,220.153,46.194,224.41,50.853,224.41z"/>
<path d="M137.304,25.986c-4.659,0-8.44,4.258-8.44,9.504c0,2.999,1.252,5.66,3.17,7.416c0.647,0.593,0.37,1.237-0.289,0.836
	c-1.2-0.729-2.554-1.192-4.016-1.192c-4.493,0-8.142,4.106-8.142,9.167s3.648,9.167,8.142,9.167c2.995,0,5.618-1.822,7.026-4.542
	c0.138-0.266,0.248-0.631,0.443-0.631c0.267,0,0.393,0.438,0.393,1.256c0,3.288-1.263,7.126-3.128,11.539
	c0.806-0.192,3.247-0.678,4.841-0.678c1.595,0,4.035,0.486,4.842,0.678c-1.866-4.412-3.128-8.251-3.128-11.539
	c0-0.818,0.125-1.256,0.393-1.256c0.194,0,0.306,0.365,0.443,0.631c1.407,2.719,4.03,4.542,7.025,4.542
	c4.494,0,8.142-4.107,8.142-9.167s-3.647-9.167-8.142-9.167c-1.461,0-2.815,0.463-4.015,1.192c-0.66,0.401-0.938-0.243-0.289-0.836
	c1.918-1.756,3.169-4.417,3.169-7.416C145.744,30.244,141.963,25.986,137.304,25.986z"/>
<path d="M137.304,103.938c-4.659,0-8.44,4.257-8.44,9.5c0,2.998,1.252,5.658,3.17,7.413c0.647,0.594,0.37,1.236-0.289,0.837
	c-1.2-0.73-2.554-1.193-4.016-1.193c-4.493,0-8.142,4.104-8.142,9.162c0,5.059,3.648,9.164,8.142,9.164
	c2.995,0,5.618-1.822,7.026-4.539c0.138-0.267,0.248-0.631,0.443-0.631c0.267,0,0.393,0.438,0.393,1.256
	c0,3.285-1.263,7.128-3.128,11.55c0.806-0.192,3.247-0.681,4.841-0.681c1.595,0,4.035,0.488,4.842,0.681
	c-1.866-4.422-3.128-8.265-3.128-11.55c0-0.818,0.125-1.256,0.393-1.256c0.194,0,0.306,0.364,0.443,0.631
	c1.407,2.717,4.03,4.539,7.025,4.539c4.494,0,8.142-4.105,8.142-9.164c0-5.058-3.647-9.162-8.142-9.162
	c-1.461,0-2.815,0.463-4.015,1.193c-0.66,0.399-0.938-0.243-0.289-0.837c1.918-1.755,3.169-4.415,3.169-7.413
	C145.744,108.195,141.963,103.938,137.304,103.938z"/>
<path d="M137.304,224.41c4.659,0,8.441-4.257,8.441-9.505c0-2.998-1.252-5.658-3.17-7.415c-0.648-0.593-0.371-1.238,0.289-0.837
	c1.2,0.73,2.554,1.193,4.015,1.193c4.494,0,8.142-4.105,8.142-9.166s-3.647-9.168-8.142-9.168c-2.995,0-5.617,1.822-7.025,4.541
	c-0.138,0.266-0.249,0.631-0.443,0.631c-0.268,0-0.393-0.438-0.393-1.256c0-3.286,1.262-7.126,3.127-11.538
	c-0.806,0.191-3.246,0.679-4.841,0.679s-4.035-0.487-4.841-0.679c1.866,4.412,3.128,8.252,3.128,11.538
	c0,0.818-0.125,1.256-0.393,1.256c-0.195,0-0.306-0.365-0.443-0.631c-1.408-2.719-4.03-4.541-7.025-4.541
	c-4.494,0-8.143,4.107-8.143,9.168s3.648,9.166,8.143,9.166c1.461,0,2.815-0.463,4.015-1.193c0.659-0.401,0.938,0.244,0.289,0.837
	c-1.918,1.757-3.17,4.417-3.17,7.415C128.863,220.153,132.646,224.41,137.304,224.41z"/>
<path d="M94.078,67.088c-4.66,0-8.44,4.257-8.44,9.5c0,2.998,1.251,5.658,3.169,7.414c0.647,0.593,0.37,1.237-0.289,0.836
	c-1.199-0.73-2.553-1.193-4.015-1.193c-4.493,0-8.14,4.105-8.14,9.163s3.647,9.164,8.14,9.164c2.996,0,5.617-1.822,7.025-4.54
	c0.138-0.267,0.249-0.631,0.444-0.631c0.266,0,0.391,0.438,0.391,1.256c0,3.286-1.262,7.128-3.127,11.55
	c0.805-0.192,3.246-0.68,4.841-0.68c1.592,0,4.033,0.488,4.839,0.68c-1.866-4.422-3.128-8.264-3.128-11.55
	c0-0.818,0.125-1.256,0.392-1.256c0.194,0,0.306,0.364,0.443,0.631c1.408,2.718,4.03,4.54,7.026,4.54
	c4.495,0,8.142-4.106,8.142-9.164s-3.646-9.163-8.142-9.163c-1.461,0-2.816,0.463-4.015,1.193c-0.66,0.4-0.938-0.243-0.289-0.836
	c1.918-1.755,3.169-4.416,3.169-7.414C102.516,71.345,98.734,67.088,94.078,67.088z"/>
<path d="M94.077,183.308c4.658,0,8.44-4.258,8.44-9.504c0-2.999-1.252-5.66-3.17-7.416c-0.648-0.594-0.371-1.238,0.289-0.836
	c1.199,0.729,2.554,1.193,4.015,1.193c4.495,0,8.142-4.107,8.142-9.168c0-5.06-3.646-9.167-8.142-9.167
	c-2.996,0-5.617,1.822-7.026,4.541c-0.138,0.266-0.249,0.631-0.443,0.631c-0.267,0-0.392-0.437-0.392-1.256
	c0-3.286,1.262-7.126,3.127-11.538c-0.806,0.191-3.246,0.678-4.839,0.678c-1.595,0-4.035-0.486-4.84-0.678
	c1.866,4.412,3.127,8.252,3.127,11.538c0,0.819-0.125,1.256-0.391,1.256c-0.195,0-0.307-0.365-0.443-0.631
	c-1.409-2.719-4.031-4.541-7.025-4.541c-4.494,0-8.141,4.107-8.141,9.167c0,5.061,3.647,9.168,8.141,9.168
	c1.461,0,2.815-0.464,4.014-1.193c0.659-0.402,0.937,0.242,0.289,0.836c-1.918,1.756-3.169,4.417-3.169,7.416
	C85.638,179.05,89.419,183.308,94.077,183.308z"/>
<g>
	<path fill="none" d="M17.545,27.088h-0.002c-1.354,0-2.561,0.541-3.416,1.382c-0.855,0.846-1.35,1.957-1.352,3.178
		c0.002,1.22,0.496,2.331,1.352,3.177c0.855,0.841,2.064,1.382,3.418,1.381c1.354,0.001,2.563-0.54,3.417-1.381
		c0.856-0.846,1.352-1.957,1.353-3.177c-0.001-1.221-0.496-2.332-1.353-3.178C20.108,27.629,18.899,27.087,17.545,27.088z"/>
	<path fill="none" d="M17.545,24.53c1.123,0.001,2.12-0.448,2.826-1.142c0.705-0.697,1.108-1.607,1.109-2.605
		c-0.001-0.998-0.404-1.908-1.109-2.605c-0.706-0.693-1.703-1.143-2.826-1.142h-0.002c-1.121,0-2.119,0.448-2.824,1.142
		c-0.704,0.697-1.108,1.607-1.109,2.605c0.001,0.998,0.405,1.908,1.109,2.605C15.424,24.082,16.423,24.531,17.545,24.53z"/>
	<path d="M22.511,26.584c-0.369-0.363-0.78-0.68-1.22-0.953c0.188-0.146,0.368-0.299,0.538-0.465
		c1.115-1.091,1.837-2.651,1.835-4.383c0.002-1.731-0.72-3.292-1.835-4.383c-1.114-1.095-2.63-1.753-4.284-1.753
		c-1.655,0-3.17,0.658-4.285,1.753c-1.114,1.091-1.835,2.651-1.834,4.383c-0.001,1.731,0.72,3.292,1.834,4.383
		c0.17,0.166,0.352,0.319,0.538,0.465c-0.438,0.273-0.85,0.59-1.22,0.953c-1.289,1.263-2.121,3.065-2.12,5.063
		c-0.001,1.998,0.831,3.8,2.12,5.063c1.29,1.268,3.047,2.03,4.967,2.031c1.919-0.001,3.676-0.764,4.966-2.031
		c1.29-1.263,2.123-3.065,2.12-5.063C24.634,29.649,23.801,27.847,22.511,26.584z M14.719,18.178
		c0.705-0.693,1.703-1.142,2.824-1.142h0.002c1.123-0.001,2.12,0.448,2.826,1.142c0.705,0.697,1.108,1.607,1.109,2.605
		c-0.001,0.998-0.404,1.908-1.109,2.605c-0.706,0.693-1.703,1.143-2.826,1.142c-1.122,0.001-2.121-0.448-2.826-1.142
		c-0.704-0.697-1.108-1.607-1.109-2.605C13.611,19.785,14.015,18.875,14.719,18.178z M20.962,34.824
		c-0.854,0.841-2.063,1.382-3.417,1.381c-1.354,0.001-2.563-0.54-3.418-1.381c-0.855-0.846-1.35-1.957-1.352-3.177
		c0.002-1.221,0.496-2.332,1.352-3.178c0.855-0.841,2.062-1.382,3.416-1.382h0.002c1.354-0.001,2.563,0.541,3.417,1.382
		c0.856,0.846,1.352,1.957,1.353,3.178C22.314,32.868,21.819,33.978,20.962,34.824z"/>
</g>
<g>
	<path fill="none" d="M170.61,223.308h0.002c1.354,0,2.561-0.541,3.416-1.381c0.855-0.847,1.35-1.957,1.352-3.178
		c-0.002-1.221-0.496-2.331-1.352-3.178c-0.855-0.841-2.064-1.382-3.418-1.381c-1.354-0.001-2.563,0.54-3.417,1.381
		c-0.856,0.847-1.352,1.957-1.353,3.178c0.001,1.221,0.496,2.331,1.353,3.178C168.048,222.767,169.257,223.309,170.61,223.308z"/>
	<path fill="none" d="M170.61,225.865c-1.123-0.001-2.12,0.448-2.826,1.142c-0.705,0.697-1.108,1.607-1.109,2.605
		c0.001,0.998,0.404,1.908,1.109,2.605c0.706,0.693,1.703,1.143,2.826,1.142h0.002c1.121,0,2.119-0.448,2.824-1.142
		c0.704-0.697,1.108-1.607,1.109-2.605c-0.001-0.998-0.405-1.908-1.109-2.605C172.731,226.313,171.732,225.864,170.61,225.865z"/>
	<path d="M165.645,223.812c0.369,0.363,0.78,0.68,1.22,0.953c-0.188,0.146-0.368,0.299-0.538,0.465
		c-1.115,1.091-1.837,2.652-1.835,4.383c-0.002,1.731,0.72,3.293,1.835,4.383c1.114,1.096,2.63,1.753,4.284,1.754
		c1.655-0.001,3.17-0.658,4.285-1.754c1.114-1.09,1.835-2.651,1.834-4.383c0.001-1.73-0.72-3.292-1.834-4.383
		c-0.17-0.166-0.352-0.318-0.538-0.465c0.438-0.273,0.85-0.59,1.22-0.953c1.289-1.262,2.121-3.064,2.12-5.063
		c0.001-1.998-0.831-3.801-2.12-5.063c-1.29-1.268-3.047-2.03-4.967-2.031c-1.919,0.001-3.676,0.764-4.966,2.031
		c-1.29,1.263-2.123,3.065-2.12,5.063C163.521,220.747,164.354,222.55,165.645,223.812z M173.437,232.218
		c-0.705,0.693-1.703,1.142-2.824,1.142h-0.002c-1.123,0.001-2.12-0.448-2.826-1.142c-0.705-0.697-1.108-1.607-1.109-2.605
		c0.001-0.998,0.404-1.908,1.109-2.605c0.706-0.693,1.703-1.143,2.826-1.142c1.122-0.001,2.121,0.448,2.826,1.142
		c0.704,0.697,1.108,1.607,1.109,2.605C174.545,230.61,174.141,231.521,173.437,232.218z M167.193,215.571
		c0.854-0.841,2.063-1.382,3.417-1.381c1.354-0.001,2.563,0.54,3.418,1.381c0.855,0.847,1.35,1.957,1.352,3.178
		c-0.002,1.221-0.496,2.331-1.352,3.178c-0.855,0.84-2.062,1.381-3.416,1.381h-0.002c-1.354,0.001-2.563-0.541-3.417-1.381
		c-0.856-0.847-1.352-1.957-1.353-3.178C165.842,217.528,166.337,216.418,167.193,215.571z"/>
</g>
</svg>
